<svg xmlns="http://www.w3.org/2000/svg" width="169.855" height="169.855" viewBox="0 0 169.855 169.855">
  <g id="about" transform="translate(0 0)">
    <path id="Path_238" data-name="Path 238" d="M89.928,5a84.928,84.928,0,1,0,84.928,84.928A84.928,84.928,0,0,0,89.928,5Zm3.353,39.694a11.922,11.922,0,0,1,11.387-8.783,7.2,7.2,0,0,1,7.545,8.887,11.922,11.922,0,0,1-11.387,8.783,7.2,7.2,0,0,1-7.545-8.887Zm19.044,81.194A64.389,64.389,0,0,1,93.206,141.3c-10.172,5.168-21.52,2.72-19.417-6.953L84.317,85.918c2-9.215-6.259-8.331-15.611-2.947a.94.94,0,0,1-1.176-1.427A64.389,64.389,0,0,1,86.649,66.133c10.172-5.167,21.52-2.72,19.417,6.953L95.539,121.514c-2,9.215,6.259,8.331,15.611,2.947a.94.94,0,0,1,1.176,1.427Z" transform="translate(-5 -5)" fill="#ff4e4e"/>
  </g>
</svg>
