<svg xmlns="http://www.w3.org/2000/svg" width="261.874" height="229.146" viewBox="0 0 261.874 229.146">
  <g id="camera" transform="translate(0 -30.522)">
    <path id="Path_225" data-name="Path 225" d="M239.044,208.022a32.735,32.735,0,1,1-46.294,0,32.735,32.735,0,0,1,46.294,0" transform="translate(-84.965 -77.89)" fill="#fff"/>
    <path id="Path_226" data-name="Path 226" d="M229.138,63.257H206.521L190.145,30.522H71.712L55.352,63.273l-22.585.04A32.793,32.793,0,0,0,.088,96.033L0,226.925a32.774,32.774,0,0,0,32.735,32.743h196.4a32.768,32.768,0,0,0,32.735-32.735V95.992a32.768,32.768,0,0,0-32.735-32.735ZM130.932,218.749A65.471,65.471,0,1,1,196.4,153.279,65.545,65.545,0,0,1,130.932,218.749Z" transform="translate(0 0)" fill="#fff"/>
  </g>
</svg>
