<svg xmlns="http://www.w3.org/2000/svg" width="175" height="218.81" viewBox="0 0 175 218.81">
  <g id="cart" transform="translate(0.435)">
    <path id="Subtraction_2" data-name="Subtraction 2" d="M7,0H166a9,9,0,0,1,9,9V131a32,32,0,0,1-32,32H32A32,32,0,0,1,0,131V7A7,7,0,0,1,7,0Z" transform="translate(-0.435 55.81)" fill="#fff"/>
    <path id="Subtraction_1" data-name="Subtraction 1" d="M54.583,62.612C54,62.6,53.41,62.6,52.823,62.6H51.378C35.295,62.6,19.449,61.127,0,57.819a57.825,57.825,0,0,1,115.65,0c-18.191,1.931-30.067,3.152-41.68,3.946,5.43-.865,12.912-2.223,22.384-3.943a38.543,38.543,0,1,0-77.086,0c16.188,1.521,24.9,3.014,30.668,4,1.748.3,3.257.558,4.649.763Z" transform="translate(30.398 0)" fill="#fff"/>
  </g>
</svg>
