<svg xmlns="http://www.w3.org/2000/svg" width="169.855" height="169.855" viewBox="0 0 169.855 169.855">
  <g id="contact" transform="translate(0 0)">
    <path id="Path_237" data-name="Path 237" d="M146.038,26.067a84.9,84.9,0,1,0,0,120.072A84.845,84.845,0,0,0,146.038,26.067Zm-12.685,98.872c-.174.174-.348.521-.521.7a9.887,9.887,0,0,1-6.082,2.78,9.292,9.292,0,0,1-7.124-2.78l-8.167-8.167a.17.17,0,0,0-.174-.174,10.761,10.761,0,0,1-6.256,1.39,37.166,37.166,0,0,1-13.38-4A72.061,72.061,0,0,1,67.323,95.573c-5.039-6.082-9.21-12.337-11.816-19.809A23.961,23.961,0,0,1,53.6,64.816a9.4,9.4,0,0,1,2.78-6.082l5.56-5.56a5.357,5.357,0,0,1,7.819,0c1.564,1.39,2.954,2.954,4.518,4.518l4.344,4.344c2.606,2.606,2.606,5.56,0,7.993-1.911,1.911-3.475,3.649-5.56,5.387a1.135,1.135,0,0,0-.348,1.39A33.913,33.913,0,0,0,77.575,84.8,58.585,58.585,0,0,0,91.3,97.311c1.043.7,2.433,1.216,3.475,1.911.7.348,1.043.174,1.564-.348l5.561-5.56c2.433-2.433,5.56-2.433,7.819,0l8.862,8.862a5.289,5.289,0,0,1,0,7.993c-.348.348-.521.7-.869.869l8.167,8.167a.638.638,0,0,0,.521.174c.174,0,.348,0,.348-.174a52.739,52.739,0,1,0-22.242,15.639,4.454,4.454,0,0,1,3.128,8.341A61.087,61.087,0,0,1,43.17,129.11,58.744,58.744,0,0,1,25.1,84.973a61.176,61.176,0,0,1,102.7-43.789C151.425,63.253,154.032,100.091,133.354,124.939Z" transform="translate(-1.075 -1.175)" fill="#ff4e4e"/>
  </g>
</svg>
