<svg xmlns="http://www.w3.org/2000/svg" width="34.586" height="34.585" viewBox="0 0 34.586 34.585">
  <g id="facebook_3_" data-name="facebook (3)" transform="translate(0 0)">
    <path id="Subtraction_4" data-name="Subtraction 4" d="M-4131.308-1722.821a17.175,17.175,0,0,1-12.229-5.068,17.18,17.18,0,0,1-5.064-12.225,17.18,17.18,0,0,1,5.064-12.229,17.178,17.178,0,0,1,12.229-5.063,17.181,17.181,0,0,1,12.226,5.063,17.176,17.176,0,0,1,5.068,12.229,17.18,17.18,0,0,1-5.064,12.225A17.18,17.18,0,0,1-4131.308-1722.821Zm-2.183-17.328v8.641h3.252v-8.641h2.669l.51-3.229h-3.18v-1a1.073,1.073,0,0,1,1.032-1.128h2.232v-3.3h-2.624v.011a3.937,3.937,0,0,0-3.106,1.224,4.078,4.078,0,0,0-.775,2.55h-.011v1.638h-2.161v3.229Z" transform="translate(4148.6 1757.407)" fill="#bbb"/>
  </g>
</svg>
