<svg xmlns="http://www.w3.org/2000/svg" width="349.538" height="387.245" viewBox="0 0 349.538 387.245">
  <g id="filter_1_" data-name="filter (1)" transform="translate(-24.927)">
    <path id="Path_257" data-name="Path 257" d="M159.072,214.287c6.084,8.805,4.266,1.468,4.266,176.981a19.116,19.116,0,0,0,30.549,15.3c53.967-40.688,64.749-44.212,64.749-63.244,0-127.9-1.491-120.707,4.266-129.037L350.537,95H71.436Z" transform="translate(-11.332 -23.148)" fill="#fff"/>
    <path id="Path_258" data-name="Path 258" d="M372.309,9.727A18.036,18.036,0,0,0,356.275,0H43.033A18.088,18.088,0,0,0,28.216,28.438c.069.115-.951-1.28,15.218,20.724h312.44c13.778-18.752,22.988-26.854,16.435-39.435Z" transform="translate(0)" fill="#fff"/>
  </g>
</svg>
