<svg xmlns="http://www.w3.org/2000/svg" width="34.593" height="34.593" viewBox="0 0 34.593 34.593">
  <path id="google-plus_1_" data-name="google-plus (1)" d="M17.3,34.593A17.3,17.3,0,1,0,0,17.3,17.3,17.3,0,0,0,17.3,34.593ZM23.47,16.061h2.476V13.586h2.476v2.476h2.455v2.476H28.422v2.476H25.946V18.539H23.47Zm-11.1-7.414a8.365,8.365,0,0,1,5.79,2.253l-2.344,2.274a4.9,4.9,0,0,0-3.446-1.332,5.447,5.447,0,0,0,0,10.894,4.689,4.689,0,0,0,4.889-3.717H12.365V16.048h8.154a7.6,7.6,0,0,1,.133,1.443c0,4.938-3.314,8.452-8.286,8.452h0a8.649,8.649,0,1,1,0-17.3Z" fill="#bbb"/>
</svg>
