<svg xmlns="http://www.w3.org/2000/svg" width="229.01" height="207.088" viewBox="0 0 229.01 207.088">
  <path id="heart_4_" data-name="heart (4)" d="M226.574,68.55a71.49,71.49,0,0,0-24.025-38.091A63.687,63.687,0,0,0,162.531,15.8c-18.335,0-34.994,8.154-48.043,23.257C101.446,23.952,84.793,15.8,66.463,15.8a63.653,63.653,0,0,0-40,14.663A71.5,71.5,0,0,0,2.439,68.548C-1.756,85-2.6,111.234,17.191,142.8c18,28.7,49.055,55.219,92.31,78.815a10.408,10.408,0,0,0,9.968,0c43.267-23.6,74.336-50.114,92.341-78.814C231.611,111.236,230.768,85,226.574,68.55ZM114.486,200.579C13.8,143.831,18.639,89.258,22.608,73.692c5.479-21.485,23.923-37.079,43.855-37.079,15.253,0,29.145,9.071,39.119,25.543a10.407,10.407,0,0,0,8.9,5.017h0a10.406,10.406,0,0,0,8.9-5.014c9.983-16.474,23.885-25.546,39.146-25.546,19.943,0,38.394,15.595,43.872,37.08C210.372,89.259,215.218,143.824,114.486,200.579Z" transform="translate(0 -15.797)" fill="#fff"/>
</svg>
