<svg xmlns="http://www.w3.org/2000/svg" width="165.139" height="169.855" viewBox="0 0 165.139 169.855">
  <g id="history" transform="translate(0 0)">
    <g id="Group_273" data-name="Group 273" transform="translate(0 0)">
      <path id="Path_235" data-name="Path 235" d="M133.779,88.387A49.16,49.16,0,0,1,167,101.308l0-75.362a18.831,18.831,0,0,0-18.8-18.8H26.637a18.831,18.831,0,0,0-18.8,18.8V142.009a18.808,18.808,0,0,0,18.8,18.8H90.068a49.375,49.375,0,0,1,43.711-72.419ZM34.566,29.74H140.307a5.126,5.126,0,1,1,0,10.253H34.566a5.126,5.126,0,0,1,0-10.253Zm0,31.921H140.307a5.126,5.126,0,1,1,0,10.253H34.566a5.126,5.126,0,0,1,0-10.253Zm28.469,74.06h-28.5a5.126,5.126,0,1,1,0-10.253h28.5a5.126,5.126,0,0,1,0,10.253Zm10.184-31.886H34.532a5.126,5.126,0,1,1,0-10.253H73.219a5.126,5.126,0,1,1,0,10.253Zm60.56-5.195a39.183,39.183,0,1,0,39.2,39.194A39.183,39.183,0,0,0,133.779,98.639Zm5.126,36.739a5.032,5.032,0,0,1-.137,1.23,4.682,4.682,0,0,1,.137,1.23,5.141,5.141,0,0,1-5.126,5.126H113.307a5.126,5.126,0,0,1,0-10.253h15.345V113.4a5.126,5.126,0,0,1,10.253,0Z" transform="translate(-7.84 -7.15)" fill="#ff4e4e"/>
    </g>
  </g>
</svg>
