<svg xmlns="http://www.w3.org/2000/svg" width="182.797" height="238.327" viewBox="0 0 182.797 238.327">
  <g id="Home" transform="translate(-123.15 -104.782)">
    <path id="home_1_" data-name="home (1)" d="M177.887,79.517l-.013-.013L103.3,4.931a16.826,16.826,0,0,0-23.8,0L4.963,79.465l-.075.077a16.823,16.823,0,0,0,11.2,28.674q.257.025.519.025h2.972v54.881a19.719,19.719,0,0,0,19.7,19.7H68.453a5.356,5.356,0,0,0,5.356-5.356V134.435a9,9,0,0,1,8.987-8.987H100a9,9,0,0,1,8.987,8.987v43.027a5.356,5.356,0,0,0,5.356,5.356h29.176a19.719,19.719,0,0,0,19.7-19.7V108.241h2.756a16.832,16.832,0,0,0,11.91-28.724Zm0,0" transform="translate(123.15 104.782)" fill="#ff4e4e"/>
    <rect id="Rectangle_324" data-name="Rectangle 324" width="79.145" height="23.744" rx="11.872" transform="translate(174.594 319.364)" fill="#262863"/>
  </g>
</svg>
