<svg xmlns="http://www.w3.org/2000/svg" width="34.66" height="34.66" viewBox="0 0 34.66 34.66">
  <g id="instagram_6_" data-name="instagram (6)" transform="translate(0)">
    <path id="Path_244" data-name="Path 244" d="M213.634,210.317A3.317,3.317,0,1,1,210.317,207,3.317,3.317,0,0,1,213.634,210.317Zm0,0" transform="translate(-192.987 -192.987)" fill="#bbb"/>
    <path id="Path_245" data-name="Path 245" d="M151.4,137.778a3.3,3.3,0,0,0-1.889-1.889,5.507,5.507,0,0,0-1.848-.342c-1.05-.048-1.364-.058-4.021-.058s-2.972.01-4.021.058a5.51,5.51,0,0,0-1.848.343,3.3,3.3,0,0,0-1.889,1.889,5.509,5.509,0,0,0-.342,1.848c-.048,1.049-.058,1.364-.058,4.021s.01,2.972.058,4.021a5.506,5.506,0,0,0,.342,1.848,3.3,3.3,0,0,0,1.889,1.889,5.5,5.5,0,0,0,1.848.343c1.049.048,1.364.058,4.021.058s2.972-.01,4.021-.058a5.5,5.5,0,0,0,1.848-.343,3.3,3.3,0,0,0,1.889-1.889,5.509,5.509,0,0,0,.343-1.848c.048-1.05.058-1.364.058-4.021s-.01-2.972-.058-4.021A5.5,5.5,0,0,0,151.4,137.778Zm-7.757,10.979a5.11,5.11,0,1,1,5.11-5.11A5.11,5.11,0,0,1,143.643,148.757Zm5.312-9.228a1.194,1.194,0,1,1,1.194-1.194A1.194,1.194,0,0,1,148.955,139.529Zm0,0" transform="translate(-126.313 -126.317)" fill="#bbb"/>
    <path id="Path_246" data-name="Path 246" d="M17.33,0A17.33,17.33,0,1,0,34.66,17.33,17.332,17.332,0,0,0,17.33,0Zm9.891,21.433a7.3,7.3,0,0,1-.462,2.416,5.088,5.088,0,0,1-2.91,2.91,7.306,7.306,0,0,1-2.415.462c-1.061.048-1.4.06-4.1.06s-3.042-.012-4.1-.06a7.306,7.306,0,0,1-2.415-.462,5.088,5.088,0,0,1-2.91-2.91,7.3,7.3,0,0,1-.462-2.415c-.049-1.061-.06-1.4-.06-4.1s.011-3.042.06-4.1A7.3,7.3,0,0,1,7.9,10.812,5.092,5.092,0,0,1,10.812,7.9a7.308,7.308,0,0,1,2.416-.462c1.061-.048,1.4-.06,4.1-.06s3.042.012,4.1.06a7.309,7.309,0,0,1,2.416.462,5.09,5.09,0,0,1,2.91,2.911,7.3,7.3,0,0,1,.463,2.416c.048,1.061.06,1.4.06,4.1S27.27,20.372,27.221,21.433Zm0,0" transform="translate(0)" fill="#bbb"/>
  </g>
</svg>
