<svg xmlns="http://www.w3.org/2000/svg" width="255.5" height="255.512" viewBox="0 0 255.5 255.512">
  <path id="lang_eng" d="M-3895.5-907.5H-4111a19.868,19.868,0,0,1-14.142-5.858A19.869,19.869,0,0,1-4131-927.5V-1143.01a19.869,19.869,0,0,1,5.858-14.142A19.868,19.868,0,0,1-4111-1163.01h215.5a19.868,19.868,0,0,1,14.142,5.858,19.869,19.869,0,0,1,5.858,14.142V-927.5a19.869,19.869,0,0,1-5.858,14.142A19.868,19.868,0,0,1-3895.5-907.5Zm-49.935-147.068a19.817,19.817,0,0,1,7.1,1.157,11.754,11.754,0,0,1,4.917,3.471,15.394,15.394,0,0,1,2.87,6.007,35.445,35.445,0,0,1,.957,8.766v52.154h22.25v-53.4c0-11.931-2.575-20.974-7.653-26.879s-12.924-8.9-23.318-8.9a36.053,36.053,0,0,0-16.909,3.916,30.235,30.235,0,0,0-11.927,11.214v-12.994h-21.716v87.042h22.25v-49.307a27.13,27.13,0,0,1,1.446-9.122,19.789,19.789,0,0,1,4.339-7.075,18.766,18.766,0,0,1,6.742-4.539A23.6,23.6,0,0,1-3945.432-1054.566Zm-146.316-53.935V-983.01h84.017v-18.156h-61.589v-36.668h58.029v-17.978h-58.029v-34.532h61.589V-1108.5Z" transform="translate(4130.998 1163.01)" fill="#262863"/>
</svg>
