<svg xmlns="http://www.w3.org/2000/svg" width="211.501" height="211.51" viewBox="0 0 211.501 211.51">
  <path id="Lang_arabic" d="M-3939.5-951.5H-4111a19.871,19.871,0,0,1-14.143-5.858A19.869,19.869,0,0,1-4131-971.5v-171.51a19.869,19.869,0,0,1,5.858-14.142,19.871,19.871,0,0,1,14.143-5.857h171.5a19.87,19.87,0,0,1,14.142,5.857,19.873,19.873,0,0,1,5.857,14.142V-971.5a19.872,19.872,0,0,1-5.857,14.142A19.87,19.87,0,0,1-3939.5-951.5Zm-136.946-86.765h50.422l10.437,24.255h18.816l-46.894-103.635H-4059.1l-46.892,103.635h19.11l10.437-24.255Zm89.082-47.628v71.883h18.375v-38.808a22.265,22.265,0,0,1,1.139-7.386,14.872,14.872,0,0,1,3.418-5.549,16.838,16.838,0,0,1,5.7-3.712,29.241,29.241,0,0,1,7.975-1.874l10.731-1.029-1.176-15.435-5.586.441c-11.607.781-19.373,5.529-23.079,14.112v-12.642Zm-44.982,32.928h-37.925l18.963-44.1,18.962,44.1Z" transform="translate(4130.999 1163.008)" fill="#ff4e4e"/>
</svg>
