<svg xmlns="http://www.w3.org/2000/svg" width="132.339" height="169.855" viewBox="0 0 132.339 169.855">
  <g id="location" transform="translate(0 0)">
    <g id="Group_274" data-name="Group 274" transform="translate(0 0)">
      <path id="Path_236" data-name="Path 236" d="M76.734,151.485c2.459,0,10.35-3.278,21.642-13.72,17.939-16.512,38.882-45.529,38.882-72.847a60.888,60.888,0,0,0-121.776,0C15.481,107.837,65.473,150.574,76.734,151.485ZM76.37,28.646A29.017,29.017,0,1,1,47.352,57.664,29.017,29.017,0,0,1,76.37,28.646Zm66.17,128.545c0,5.676-23.341,16.694-66.17,16.694S10.2,162.867,10.2,157.191c0-3.794,10.927-10.836,35.27-14.478a4.068,4.068,0,0,0,1.214-.395c11.413,10.775,22.583,17.7,29.321,18.212h.85c9.106,0,22.37-11.2,27.712-16.117.668-.607,1.336-1.275,2-1.943a6.069,6.069,0,0,0,.7.182C131.612,146.355,142.539,153.4,142.539,157.191Z" transform="translate(-10.2 -4.03)" fill="#ff4e4e"/>
    </g>
  </g>
</svg>
