<svg xmlns="http://www.w3.org/2000/svg" width="169.855" height="170.51" viewBox="0 0 169.855 170.51">
  <g id="logout" transform="translate(0 -0.001)">
    <g id="Group_276" data-name="Group 276" transform="translate(0 0.001)">
      <g id="Group_275" data-name="Group 275" transform="translate(0 0)">
        <path id="Path_241" data-name="Path 241" d="M79.583,5.215A5.035,5.035,0,0,0,73.917.107l-.045.006a85.255,85.255,0,1,0,22.8,0c-1.9-.254-.09-.012-.09-.012a5.039,5.039,0,0,0-5.656,5.109v97.059c0,1.566.895,1.938,1.991.838l22.338-22.4c5.346-5.36,13.37,2.677,8.021,8.037l-33.14,33.561a6.976,6.976,0,0,1-9.98-.04L47.234,88.748c-5.349-5.36,2.672-13.4,8.021-8.037l22.338,22.4c1.1,1.1,1.991.738,1.991-.838Z" transform="translate(169.855) rotate(90)" fill="#ff4e4e"/>
      </g>
    </g>
  </g>
</svg>
