<svg xmlns="http://www.w3.org/2000/svg" width="233.494" height="248.55" viewBox="0 0 233.494 248.55">
  <g id="logo" transform="translate(-3537.3 -1498.74)">
    <g id="_1807339579120" transform="translate(3537.3 1498.74)">
      <path id="Path_1" data-name="Path 1" d="M3834.865,2117.1c0-11.182,13.462-17.41,21.246-9.3a14.226,14.226,0,0,1,3.372,6.093,12.657,12.657,0,0,1-3.148,11.611,12.132,12.132,0,0,1-13.809,2.867,9.531,9.531,0,0,1-2.9-1.832,13.08,13.08,0,0,1-4.762-9.436Zm41.012-12.62a13.558,13.558,0,0,1-8.737-3.431,12.6,12.6,0,0,1-.4-17.871c4.635-4.991,13.185-4.971,17.984.058a13.088,13.088,0,0,1,3.191,6.047,12.156,12.156,0,0,1-3.421,11.423,10.562,10.562,0,0,1-3.529,2.555,15.635,15.635,0,0,1-5.091,1.219Zm-88.334,56.786c0,2.473.156,10.643.9,12.4,1.934,4.556,2.875,4.055,9.24,4.055,9.011,0,17.318.225,26.365.225,4.287,0,7.831-.225,12.168-.225v-34.478c0-11.5,3.175-10.591,13.972-10.591,10.085,0,8.909,4.492,9.452,11.054.393,4.748-.361,27.643.168,30.7.18,1.042.441,2.149.52,3.086a6.053,6.053,0,0,0,2.028-.226c0-3.18.225-6.052.225-9.464v-49.125c0-3-.244-7.105.547-9.367,1.844-5.28,6.864-4.153,13.2-4.153,6.592,0,9.194,1.24,9.233,7.442.008,1.171.178,1.236.232,2.246.328,6.074,0,13.191,0,19.381,0,2.708-.254,33.647.225,36.055.2.987.6.675,1.8.675,1.447-6.213.9-17.054.9-24.788v-51.378c0-7.046-1.778-17.258,7.672-17.009a5.933,5.933,0,0,0,2.866-.169c.248-.054.688-.141,1.1-.254l.677-.224c.042-.018.12-.057.154-.072a1.009,1.009,0,0,0,.151-.074,13.036,13.036,0,0,1-5.865-1.12,20.329,20.329,0,0,1-2.209-1.17,10.891,10.891,0,0,1-1.011-.792,12.688,12.688,0,0,1-1.006-.8,5.333,5.333,0,0,1-.727-.85,11.006,11.006,0,0,1-2.1-3.3,13.34,13.34,0,0,1-1.006-7.961c-1.1.27-1.126.984-2.463,2.306l-9.578,10.026c-.934.928-1.45,1.688-2.365,2.593-2.893,2.858-3.02,3.411-4.729,5.187-1.555,1.615-3.217,3.337-4.847,4.843l-16.171,13.349a11.449,11.449,0,0,0-1.577-1.127l8.211-12.071c4.583-7.661,8.915-14.894,8.915-25.561a32.58,32.58,0,0,0-2.156-11.364c-1.042-2.582-3.158-7.251-5.014-8.732a5.329,5.329,0,0,0-5.064-.929c-3.044,1.087-3.6,4.743-5.082,8.44-2.944,7.366-8.255,15.327-12.814,21.437-2.21,2.964-4.129,5.022-6.183,7.564-4.885,6.048-10.312,11.42-15.771,18.254-2.192,2.745-6.993,9.33-8.663,12.069-6.5,10.669-8.913,15.891-11.994,29.019a124.1,124.1,0,0,0-2.523,24.968Z" transform="translate(-3774.248 -2010.512)" fill="#262863" fill-rule="evenodd"/>
      <path id="Path_2" data-name="Path 2" d="M3598.593,3023.99a25.465,25.465,0,0,1-4.314-4.248,56.094,56.094,0,0,0-4.305-4.484c-.542-.542-.933-.919-1.469-1.46-.609-.616-.754-.975-1.343-1.586-2.122-2.2-4.367-4.263-6.331-6.514-.289-.332-.452-.489-.771-.807-.543-.54-.923-.92-1.466-1.463l-9.937-10.344a56.246,56.246,0,0,0-4.371-4.416c-.5-.5-.865-.837-1.357-1.348l-4.277-4.511c-.541-.542-.931-.918-1.467-1.462l-1.057-1.2a19.645,19.645,0,0,0-3.279-3.256,11.7,11.7,0,0,0-2.082,1.974c-.424.482-.45.642-.9,1.128l-7.767,8.457a13.971,13.971,0,0,1-.907,1.121l-3.892,4.221,11.492,11.042c1.449,1.105,2.515,2.511,3.884,3.777l3.831,3.606a11.385,11.385,0,0,0,.95.853c.124.1.124.1.248.2l.245.207,3.408,3.352c.448.4.563.4,1.01.792l29.11,27.676c1.509,1.166,2.41,2.471,3.8,3.634a24.089,24.089,0,0,1,2.017,1.813,13.643,13.643,0,0,0,1.972,1.859,5.96,5.96,0,0,1,1.211-1.267l28.816-29.1c5.442-5.442,11.086-10.713,16.3-16.371,4.449-4.822,9.237-9.4,13.891-14.051,6.819-6.819,13.348-13.572,20.168-20.394l11.187-11.347c5.711-6.175,12.921-12.986,18.9-18.962.467-.467.773-.771,1.24-1.237l.875-.927.108-.117c5.7-6.216,11.868-12.035,17.832-18l10.027-10.252c2.123-2.124,4.275-4.119,6.223-6.4,1.931-2.259,4.322-4.111,6.282-6.337,1.578-1.791,3.518-3.366,4.606-5.535,3.406-6.782-.56-15.026-8.942-15.026-4.66,0-8.706,4.761-11.211,7.268l-46.194,46.2c-3.129,3.129-6.146,6.08-9.241,9.236l-8.077,8.148a8.887,8.887,0,0,0-1.217,1.261c-1.688,2.226-34.981,35.095-36.9,37.014l-25.234,25.467c-.8.836-1.617,1.51-2.369,2.364l-8.959,9.745Z" transform="translate(-3537.3 -2804.057)" fill="#eb1f2a" fill-rule="evenodd"/>
      <path id="Path_3" data-name="Path 3" d="M6608.391,2270.237l.463,12.607c.315,3.816.664,8.391.664,12.405.881-.235,2.791-2.456,3.544-3.215l12.17-11.717c.684-.687,1.141-.906,1.811-1.569l12.273-11.836c.61-.538,1.105-1.1,1.691-1.688,1.218-1.218,2.268-2.29,3.488-3.5l10.483-10.023c1.22-1.219,2.274-2.273,3.492-3.493,2.292-2.289,4.9-4.365,4.9-8.844,0-5.558-5.306-11.042-10.142-11.042-2.526,0-3.762-.056-6.158,1.275a15.567,15.567,0,0,0-2.914,2.27L6613.4,2264.66c-.844.838-5.015,5.132-5.015,5.577Z" transform="translate(-6445.242 -2189.566)" fill="#262863" fill-rule="evenodd"/>
      <path id="Path_4" data-name="Path 4" d="M6370.85,1689.785c2.285,0,4.5-.839,8.417,1.046a14.128,14.128,0,0,1,6.978,7.445c.787,1.852.831,3.8.831,6.381,1.1-.735,8.534-8.047,10.3-9.75l22.088-20.953a31,31,0,0,1,2.985-2.874,76.867,76.867,0,0,0,5.8-5.688c2.915-2.875,4.918-7.718,2.57-12.151a13.251,13.251,0,0,0-5.154-5.211c-4.639-2.25-9.243-.709-12.945,2.283-1.96,1.584-6.19,6.122-7.952,7.6l-.249.2-.244.206-7.17,7.027c-2.4,2.009-5.007,5.015-8.064,7.709-1.013.891-1.955,1.951-2.932,2.928l-15.268,13.8Z" transform="translate(-6220.321 -1639.083)" fill="#262863" fill-rule="evenodd"/>
      <path id="Path_5" data-name="Path 5" d="M5870.311,1538.175c7.847-1.828,16.45,4.208,16.45,13.971l10.419-9.86c1.7-1.493,3.447-3.425,5.071-5.07l10.368-9.913c1.738-1.75,3.323-3.326,5.068-5.071,1.709-1.708,3.328-3.45,5.091-5.049l.573-.555c.266-.283.4-.434.645-.708,1.916-2.185,2.2-4.332,2.2-7.04,0-4.825-5.531-10.14-10.365-10.14-4.056,0-5.244.817-8.055,3.663l-5.415,4.952c-3.562,3.526-7.157,6.7-10.7,10.258l-21.353,20.562Z" transform="translate(-5746.372 -1498.74)" fill="#262863" fill-rule="evenodd"/>
      <path id="Path_6" data-name="Path 6" d="M6255.617,4357.231l13.35,13.464-13.521,13.405c-.684-1-9.992-10.093-11.829-11.941-.607-.611-.92-1.321-1.971-1.408-.25.934-.45.684-1.45,1.705-.032.033-.078.082-.109.116l-.217.232c-.18.194-.222.261-.433.47l-2.507,2.451c-.014.014-.283.276-.34.336-.83.862-.591.987-1.48,1.224.277,1.038,7.489,7.827,8.395,8.732,2.077,2.079,24.766,25.015,25.857,25.745.626-.419,6.516-6.066,6.76-6.985l-14.7-14.817,13.295-13.407,14.872,14.759c1.012-.313,6.6-6.162,7.042-6.815l-34.082-34.2-.939.753c-.032.032-.076.083-.108.116l-1.132,1.121c-.006,0-.447.445-.451.45l-2.125,2.156a5.879,5.879,0,0,1-.441.46Z" transform="translate(-6091.792 -4198.814)" fill="#262863" fill-rule="evenodd"/>
      <path id="Path_7" data-name="Path 7" d="M5659.327,5108.861l-9.517-9.636a66.055,66.055,0,0,1,8.223-7.884,6.337,6.337,0,0,1,8.455.445c4.014,3.961,2.162,7.909-1.469,11.5C5663.62,5104.666,5660.687,5107.952,5659.327,5108.861Zm-22.307-8.563,34.194,34.309c.656-.452,6.568-6.113,6.816-7.043l-12.675-12.79c1.174-1.71,6.233-5.95,7.849-8.035,1.9-2.466,3.568-3.858,4.69-7.254,4.105-12.447-11.854-25.793-23.109-16.572Z" transform="translate(-5525.476 -4889.605)" fill="#262863" fill-rule="evenodd"/>
      <path id="Path_8" data-name="Path 8" d="M7019.87,3823.088c0,13.243,14.231,27.266,25.689,27.266,6.137,0,8.5-.733,13.339-4.01l2.719-2.239a11.894,11.894,0,0,0,1.2-1.281,26.018,26.018,0,0,0,3.156-4.281,18.209,18.209,0,0,0,1.223-15.457c-.527-1.438-1.736-3.242-2.03-4.5a23.95,23.95,0,0,0-4.518,2.243c-1.406.818-3.045,1.5-4.5,2.264,1.719,3.25,3.936,7.479,1.732,11.874a11.173,11.173,0,0,1-10.521,6.38c-2.433,0-5.1-1.522-6.675-2.567-2.945-1.965-7.6-6.489-9.4-9.529a17.7,17.7,0,0,1-1.575-3.157c-3.381-8.622,5.2-17.017,13.065-14.417,1.067.354,1.777.968,2.779,1.051.587-1.112,4.881-7.646,4.957-8.563-2.761-.643-10.047-6.665-21.022,1.511l-2.922,2.488c-3.675,4.194-6.7,8.609-6.7,14.93Z" transform="translate(-6834.864 -3679.095)" fill="#262863" fill-rule="evenodd"/>
      <path id="Path_9" data-name="Path 9" d="M6082.41,2660.581c0,2.482,1.84,7.409,2.224,11.072.223,2.134-.075,4.6.194,6.567.252,1.841.061,45.563.061,50.415h2.028c.042-1.877.682-4.642.676-8.113v-35.379c0-5.165.341-10.081,7-10.583,1.472-.11,2.983.122,4.439-.067,1.094-.142,2.765-.524,3.889-.618v-1.352c-3.314.393-5.183.315-8.3-1.166a13,13,0,0,1-7.524-11.2,28.12,28.12,0,0,1,.05-3.413C6085.751,2657.122,6083.637,2660.254,6082.41,2660.581Z" transform="translate(-5947.205 -2595.233)" fill="#262863" fill-rule="evenodd"/>
    </g>
  </g>
</svg>
