<svg xmlns="http://www.w3.org/2000/svg" width="160.372" height="219.929" viewBox="0 0 160.372 219.929">
  <g id="myorder1" transform="translate(-1503.045 -620.437)">
    <g id="Group_267" data-name="Group 267" transform="translate(1503.045 620.438)">
      <path id="Subtraction_3" data-name="Subtraction 3" d="M142.372,160.37H18a18,18,0,0,1-18-18V18A18,18,0,0,1,18,0H48.962a8.608,8.608,0,0,0-6.081,7.949V92.637a6.544,6.544,0,0,0,1.1,3.766,4.31,4.31,0,0,0,3.535,1.84,6.354,6.354,0,0,0,4.056-1.71L77.19,74.786a5.074,5.074,0,0,1,6.217,0l25.528,21.741a6.185,6.185,0,0,0,3.961,1.714c2.209,0,4.437-1.733,4.437-5.6V7.948A8.507,8.507,0,0,0,111.53,0h30.842a18,18,0,0,1,18,18V142.37a18,18,0,0,1-18,18Z" transform="translate(0 0.427)" fill="#ff4e4e"/>
      <path id="bookmark" d="M78.81,0H33.154a6.973,6.973,0,0,0-6.983,6.68L26,79.974a5.176,5.176,0,0,0,.881,3,3.416,3.416,0,0,0,2.82,1.467,5.092,5.092,0,0,0,3.235-1.364L53.364,65.738a4.047,4.047,0,0,1,4.958,0L78.68,83.078a4.914,4.914,0,0,0,3.159,1.367c1.792,0,3.538-1.382,3.538-4.47l.168-73.3A6.753,6.753,0,0,0,78.81,0Z" transform="translate(24.249 -0.001)" fill="#ff4e4e"/>
    </g>
    <rect id="Rectangle_355" data-name="Rectangle 355" width="69.039" height="20.712" rx="10" transform="translate(1548.755 819.654)" fill="#262863"/>
  </g>
</svg>
