<svg xmlns="http://www.w3.org/2000/svg" width="159.056" height="169.855" viewBox="0 0 159.056 169.855">
  <g id="notification" transform="translate(0 0)">
    <path id="Path_233" data-name="Path 233" d="M159.375,126.02l-.063-.045a24.982,24.982,0,0,1-10.245-20V65.864a61.362,61.362,0,0,0-19.02-44.456A65.754,65.754,0,0,0,59.868,7.746,64.086,64.086,0,0,0,19.411,65.865v39.812A24.956,24.956,0,0,1,8.825,125.927a10.161,10.161,0,0,0-3.813,11.458,10.386,10.386,0,0,0,9.9,7.1H153.162a10.388,10.388,0,0,0,9.873-7.022,10.158,10.158,0,0,0-3.66-11.44Z" transform="translate(-4.508 -2.999)" fill="#ff4e4e"/>
    <path id="Path_234" data-name="Path 234" d="M40.22,61.976A20,20,0,0,0,60.2,42H20.242A20,20,0,0,0,40.22,61.976Z" transform="translate(39.322 107.88)" fill="#ff4e4e"/>
  </g>
</svg>
