<svg xmlns="http://www.w3.org/2000/svg" width="655" height="584" viewBox="0 0 655 584">
  <g id="placeholder" transform="translate(-17 -605)">
    <rect id="Rectangle_38" data-name="Rectangle 38" width="655" height="584" transform="translate(17 605)" fill="#fbfbfb"/>
    <g id="Layer_x0020_1" transform="translate(244.974 789.573)" opacity="0.08">
      <g id="_1807339579120" transform="translate(0 0)">
        <path id="Path_1" data-name="Path 1" d="M3828.179,2106.1c0-9.6,11.561-14.95,18.245-7.989a12.227,12.227,0,0,1,2.9,5.232,10.871,10.871,0,0,1-2.705,9.97,10.416,10.416,0,0,1-11.857,2.462,8.178,8.178,0,0,1-2.489-1.573A11.229,11.229,0,0,1,3828.179,2106.1Zm35.219-10.836a11.643,11.643,0,0,1-7.5-2.947,10.751,10.751,0,1,1,15.1-15.3,11.224,11.224,0,0,1,2.74,5.192,10.439,10.439,0,0,1-2.937,9.809,9.1,9.1,0,0,1-3.03,2.195A13.454,13.454,0,0,1,3863.4,2095.259Zm-75.854,48.763c0,2.123.134,9.139.773,10.645,1.659,3.912,2.468,3.482,7.934,3.482,7.738,0,14.871.192,22.641.192,3.681,0,6.725-.192,10.449-.192v-29.607c0-9.879,2.726-9.094,12-9.094,8.661,0,7.651,3.856,8.117,9.492.337,4.076-.31,23.738.145,26.366.154.895.38,1.845.446,2.649a5.2,5.2,0,0,0,1.742-.193c0-2.73.193-5.2.193-8.127V2107.45c0-2.579-.21-6.1.47-8.044,1.583-4.534,5.895-3.566,11.334-3.566,5.66,0,7.9,1.064,7.929,6.39.006,1.005.153,1.062.2,1.928.281,5.216,0,11.328,0,16.643,0,2.327-.217,28.894.194,30.961.169.848.515.58,1.548.58,1.243-5.335.774-14.645.774-21.286v-44.119c0-6.051-1.527-14.82,6.588-14.606a5.09,5.09,0,0,0,2.461-.146c.213-.046.591-.12.944-.217l.581-.192c.036-.016.1-.049.132-.062a.92.92,0,0,0,.129-.064,11.194,11.194,0,0,1-5.036-.962,17.21,17.21,0,0,1-1.9-1.005,9.279,9.279,0,0,1-.868-.68,10.844,10.844,0,0,1-.864-.685,4.561,4.561,0,0,1-.624-.729,9.443,9.443,0,0,1-1.808-2.837,11.46,11.46,0,0,1-.864-6.836c-.944.231-.967.845-2.115,1.979l-8.225,8.609c-.8.8-1.245,1.45-2.031,2.227-2.483,2.455-2.593,2.929-4.061,4.454-1.335,1.387-2.763,2.866-4.163,4.159l-13.886,11.463a9.776,9.776,0,0,0-1.354-.967l7.051-10.366c3.937-6.578,7.656-12.789,7.656-21.949a27.952,27.952,0,0,0-1.853-9.758c-.895-2.217-2.711-6.227-4.3-7.5a4.577,4.577,0,0,0-4.35-.8c-2.613.934-3.094,4.072-4.363,7.247-2.528,6.326-7.09,13.162-11,18.409-1.9,2.545-3.546,4.313-5.31,6.5-4.194,5.194-8.854,9.806-13.543,15.675-1.882,2.357-6,8.012-7.438,10.365-5.586,9.162-7.653,13.646-10.3,24.919a106.529,106.529,0,0,0-2.167,21.44Z" transform="translate(-3776.125 -2014.569)" fill="#262863" fill-rule="evenodd"/>
        <path id="Path_2" data-name="Path 2" d="M3589.934,3003.265a21.885,21.885,0,0,1-3.705-3.648,48.331,48.331,0,0,0-3.7-3.851c-.465-.465-.8-.789-1.261-1.253-.524-.528-.648-.838-1.154-1.362-1.822-1.894-3.749-3.661-5.437-5.594-.248-.285-.388-.42-.661-.693-.467-.464-.793-.789-1.259-1.256l-8.534-8.883a48.4,48.4,0,0,0-3.753-3.792c-.431-.431-.743-.72-1.166-1.157l-3.673-3.874c-.464-.466-.8-.788-1.259-1.257l-.907-1.027a16.934,16.934,0,0,0-2.816-2.8,10.1,10.1,0,0,0-1.789,1.694c-.363.413-.386.551-.773.969l-6.668,7.262a12.178,12.178,0,0,1-.779.964l-3.342,3.624,9.868,9.481c1.244.949,2.16,2.157,3.335,3.242l3.29,3.1a9.589,9.589,0,0,0,.815.732c.106.09.106.086.212.175l.211.178,2.927,2.878c.384.34.482.341.867.681l25,23.766c1.3,1,2.07,2.121,3.265,3.122a20.457,20.457,0,0,1,1.732,1.556,11.746,11.746,0,0,0,1.693,1.6,5.087,5.087,0,0,1,1.041-1.089l24.744-24.986c4.673-4.673,9.52-9.2,14-14.058,3.82-4.141,7.932-8.07,11.928-12.066,5.857-5.854,11.462-11.654,17.319-17.511l9.606-9.745c4.9-5.3,11.1-11.149,16.227-16.282.4-.4.665-.663,1.065-1.062l.751-.8c.027-.028.066-.071.093-.1,4.9-5.337,10.191-10.334,15.313-15.455l8.61-8.8c1.822-1.825,3.671-3.537,5.343-5.5,1.659-1.938,3.712-3.529,5.395-5.441,1.354-1.538,3.021-2.89,3.956-4.753,2.924-5.824-.48-12.9-7.679-12.9-4,0-7.477,4.089-9.628,6.24l-39.667,39.669c-2.687,2.687-5.278,5.221-7.936,7.932l-6.937,7a7.759,7.759,0,0,0-1.045,1.082c-1.448,1.911-30.038,30.137-31.685,31.784l-21.669,21.869c-.69.719-1.389,1.3-2.034,2.029l-7.693,8.368Z" transform="translate(-3537.301 -2814.405)" fill="#eb1f2a" fill-rule="evenodd"/>
        <path id="Path_3" data-name="Path 3" d="M6608.391,2264.315l.4,10.826c.271,3.276.57,7.205.57,10.653.756-.2,2.4-2.109,3.043-2.761l10.451-10.062c.586-.591.979-.777,1.555-1.348l10.539-10.164c.523-.462.949-.945,1.453-1.449,1.045-1.046,1.945-1.967,2.994-3l9-8.607,3-3c1.967-1.966,4.209-3.749,4.209-7.6,0-4.771-4.557-9.48-8.709-9.48-2.17,0-3.23-.049-5.287,1.1a13.218,13.218,0,0,0-2.5,1.948l-26.41,28.158C6611.973,2260.247,6608.391,2263.933,6608.391,2264.315Z" transform="translate(-6468.293 -2195.042)" fill="#262863" fill-rule="evenodd"/>
        <path id="Path_4" data-name="Path 4" d="M6370.848,1683.734c1.963,0,3.863-.721,7.229.9a12.135,12.135,0,0,1,5.994,6.393,13.615,13.615,0,0,1,.711,5.479c.941-.63,7.33-6.91,8.848-8.372l18.971-17.992a26.27,26.27,0,0,1,2.563-2.468,66.039,66.039,0,0,0,4.982-4.884c2.506-2.469,4.223-6.628,2.209-10.435a11.383,11.383,0,0,0-4.426-4.475c-3.982-1.933-7.937-.609-11.117,1.96-1.684,1.36-5.314,5.257-6.83,6.522l-.213.174-.209.178-6.158,6.034c-2.062,1.725-4.3,4.307-6.926,6.619-.867.766-1.678,1.675-2.516,2.515l-13.111,11.852Z" transform="translate(-6241.587 -1640.196)" fill="#262863" fill-rule="evenodd"/>
        <path id="Path_5" data-name="Path 5" d="M5870.311,1532.6c6.738-1.57,14.127,3.614,14.127,12l8.947-8.467c1.455-1.282,2.959-2.941,4.355-4.354l8.9-8.513c1.492-1.5,2.854-2.855,4.354-4.354,1.467-1.467,2.855-2.962,4.371-4.336l.49-.476c.229-.243.348-.373.555-.608,1.646-1.876,1.887-3.72,1.887-6.045,0-4.144-4.75-8.708-8.9-8.708-3.482,0-4.5.7-6.918,3.146l-4.65,4.252c-3.059,3.028-6.145,5.757-9.187,8.808l-18.336,17.657Z" transform="translate(-5763.881 -1498.74)" fill="#262863" fill-rule="evenodd"/>
        <path id="Path_6" data-name="Path 6" d="M6252.717,4356.252l11.467,11.563-11.611,11.512c-.588-.855-8.58-8.666-10.158-10.254-.521-.525-.791-1.137-1.691-1.211-.215.8-.387.588-1.244,1.465l-.1.1-.186.2c-.156.166-.191.223-.371.4l-2.154,2.1c-.012.014-.242.238-.291.289-.713.74-.508.85-1.271,1.051.238.893,6.432,6.723,7.209,7.5,1.783,1.783,21.266,21.48,22.2,22.105.539-.357,5.6-5.207,5.8-6l-12.623-12.725,11.418-11.514,12.768,12.676c.869-.27,5.674-5.293,6.047-5.854L6258.67,4350.3l-.807.646c-.027.027-.066.07-.094.1l-.973.963s-.383.383-.385.387l-1.826,1.852c-.217.232-.143.166-.379.395Z" transform="translate(-6112.041 -4220.218)" fill="#262863" fill-rule="evenodd"/>
        <path id="Path_7" data-name="Path 7" d="M5656.176,5104.76l-8.172-8.273a56.512,56.512,0,0,1,7.063-6.77,5.442,5.442,0,0,1,7.26.381c3.447,3.4,1.857,6.795-1.26,9.875A59.043,59.043,0,0,1,5656.176,5104.76Zm-19.156-7.352,29.365,29.461c.563-.389,5.639-5.25,5.852-6.049l-10.883-10.982c1.008-1.469,5.354-5.109,6.738-6.9,1.637-2.117,3.066-3.312,4.029-6.229,3.523-10.687-10.18-22.148-19.844-14.23Z" transform="translate(-5541.234 -4916.482)" fill="#262863" fill-rule="evenodd"/>
        <path id="Path_8" data-name="Path 8" d="M7019.869,3820.026c0,11.372,12.223,23.414,22.061,23.414,5.27,0,7.3-.63,11.453-3.443l2.334-1.924a10.342,10.342,0,0,0,1.031-1.1,22.347,22.347,0,0,0,2.709-3.677,15.629,15.629,0,0,0,1.049-13.272c-.451-1.235-1.488-2.783-1.74-3.867a20.522,20.522,0,0,0-3.881,1.925c-1.207.7-2.613,1.284-3.861,1.945,1.477,2.79,3.379,6.422,1.488,10.2a9.594,9.594,0,0,1-9.033,5.478c-2.088,0-4.385-1.308-5.734-2.2a32.952,32.952,0,0,1-8.068-8.183,15.142,15.142,0,0,1-1.352-2.712c-2.9-7.4,4.461-14.612,11.221-12.38a10.919,10.919,0,0,0,2.385.9c.5-.955,4.191-6.565,4.258-7.354-2.373-.552-8.629-5.724-18.053,1.3l-2.51,2.136c-3.154,3.6-5.756,7.394-5.756,12.821Z" transform="translate(-6861.002 -3696.378)" fill="#262863" fill-rule="evenodd"/>
        <path id="Path_9" data-name="Path 9" d="M6082.41,2660.04c0,2.131,1.582,6.361,1.912,9.509.189,1.832-.066,3.954.166,5.639.215,1.581.051,39.126.051,43.292h1.74c.037-1.611.586-3.986.582-6.967v-30.38c0-4.435.293-8.657,6.008-9.087,1.264-.1,2.563.1,3.811-.059.939-.121,2.375-.449,3.34-.529V2670.3a10.985,10.985,0,0,1-7.127-1,11.481,11.481,0,0,1-5.965-6.806,11.277,11.277,0,0,1-.5-2.81,24.429,24.429,0,0,1,.043-2.931C6085.279,2657.07,6083.465,2659.759,6082.41,2660.04Z" transform="translate(-5966.308 -2603.925)" fill="#262863" fill-rule="evenodd"/>
      </g>
    </g>
  </g>
</svg>
