<svg xmlns="http://www.w3.org/2000/svg" width="496" height="496" viewBox="0 0 496 496">
  <g id="prescription_placeholder" transform="translate(-1709 -940)">
    <g id="Group_45" data-name="Group 45" transform="translate(1708.668 939.668)">
      <rect id="Rectangle_92" data-name="Rectangle 92" width="496" height="496" transform="translate(0.332 0.332)" fill="#fbfbfb"/>
    </g>
    <g id="Layer_x0020_1" transform="translate(1879.837 1105.084)" opacity="0.3">
      <g id="_1807339579120" transform="translate(0 0)">
        <path id="Path_1" data-name="Path 1" d="M3819.671,2092.1c0-7.591,9.141-11.82,14.428-6.317a9.691,9.691,0,0,1,2.289,4.136,8.594,8.594,0,0,1-2.139,7.885,8.239,8.239,0,0,1-9.376,1.948,6.445,6.445,0,0,1-1.968-1.245A8.882,8.882,0,0,1,3819.671,2092.1Zm27.848-8.569a9.2,9.2,0,0,1-5.933-2.328,8.5,8.5,0,1,1,11.941-12.095,8.917,8.917,0,0,1,2.168,4.106,8.26,8.26,0,0,1-2.325,7.754,7.158,7.158,0,0,1-2.4,1.735A10.619,10.619,0,0,1,3847.519,2083.528Zm-59.976,38.557c0,1.679.105,7.225.611,8.417,1.312,3.093,1.952,2.753,6.272,2.753,6.119,0,11.758.153,17.9.153,2.912,0,5.318-.153,8.261-.153v-23.409c0-7.811,2.156-7.191,9.487-7.191,6.847,0,6.05,3.05,6.417,7.506.268,3.223-.245,18.768.114,20.847.124.707.3,1.458.355,2.1a4.157,4.157,0,0,0,1.377-.153c0-2.159.152-4.111.152-6.427v-33.353c0-2.038-.166-4.825.371-6.361,1.251-3.585,4.66-2.82,8.96-2.82,4.478,0,6.243.842,6.269,5.053.005.795.123.84.157,1.525.223,4.124,0,8.956,0,13.158,0,1.84-.173,22.846.154,24.482.135.67.406.458,1.225.458.982-4.219.611-11.579.611-16.831V2076.95c0-4.785-1.208-11.718,5.208-11.549a4.015,4.015,0,0,0,1.947-.115c.167-.037.466-.095.746-.172l.461-.152c.029-.013.081-.04.1-.049a.668.668,0,0,0,.1-.05,8.85,8.85,0,0,1-3.982-.761,14.185,14.185,0,0,1-1.5-.795,7.576,7.576,0,0,1-.684-.538,8.628,8.628,0,0,1-.683-.541,3.674,3.674,0,0,1-.494-.577,7.464,7.464,0,0,1-1.429-2.242,9.08,9.08,0,0,1-.684-5.406c-.747.183-.765.669-1.673,1.565l-6.5,6.808c-.632.63-.984,1.146-1.605,1.76-1.964,1.941-2.049,2.316-3.21,3.522-1.055,1.1-2.184,2.266-3.29,3.288l-10.981,9.063a7.633,7.633,0,0,0-1.07-.765l5.575-8.2c3.11-5.2,6.052-10.111,6.052-17.355a22.136,22.136,0,0,0-1.462-7.716c-.709-1.753-2.146-4.923-3.407-5.928a3.613,3.613,0,0,0-3.437-.631c-2.066.739-2.446,3.22-3.45,5.731-2,5-5.606,10.406-8.7,14.554-1.5,2.012-2.8,3.41-4.2,5.136-3.314,4.106-7,7.753-10.707,12.394-1.488,1.863-4.747,6.335-5.881,8.2-4.415,7.243-6.052,10.787-8.142,19.7a84.033,84.033,0,0,0-1.714,16.953Z" transform="translate(-3778.517 -2019.729)" fill="#262863" fill-rule="evenodd"/>
        <path id="Path_2" data-name="Path 2" d="M3578.917,2976.894a17.346,17.346,0,0,1-2.931-2.884,37.959,37.959,0,0,0-2.924-3.045c-.368-.368-.632-.624-1-.991-.414-.419-.511-.662-.913-1.077-1.44-1.5-2.964-2.9-4.3-4.423-.195-.224-.305-.332-.523-.548l-.994-.993-6.747-7.024a38.351,38.351,0,0,0-2.969-3c-.34-.339-.587-.567-.922-.914l-2.9-3.064c-.368-.367-.633-.623-1-.991l-.718-.814a13.408,13.408,0,0,0-2.227-2.209,7.979,7.979,0,0,0-1.414,1.338c-.286.328-.3.437-.613.767l-5.271,5.741a9.764,9.764,0,0,1-.616.762l-2.643,2.865,7.8,7.5c.986.749,1.707,1.705,2.639,2.565l2.6,2.448a7.629,7.629,0,0,0,.647.58l.167.137c.035.028.131.11.164.14l2.316,2.277c.3.267.381.27.683.538l19.765,18.79c1.025.792,1.636,1.677,2.582,2.468a16.365,16.365,0,0,1,1.369,1.229,9.12,9.12,0,0,0,1.339,1.262,4.018,4.018,0,0,1,.822-.859l19.565-19.756c3.7-3.695,7.527-7.274,11.071-11.116,3.021-3.273,6.271-6.38,9.429-9.54,4.631-4.63,9.065-9.215,13.7-13.846l7.595-7.7c3.877-4.193,8.773-8.817,12.83-12.875.316-.318.525-.524.842-.841l.594-.629c.022-.023.053-.056.074-.079,3.873-4.221,8.057-8.172,12.106-12.22l6.808-6.961c1.443-1.442,2.9-2.8,4.226-4.343s2.934-2.791,4.265-4.3a19.163,19.163,0,0,0,3.128-3.758c2.313-4.6-.38-10.2-6.071-10.2-3.164,0-5.91,3.233-7.614,4.935l-31.363,31.364c-2.125,2.125-4.174,4.127-6.276,6.271l-5.484,5.532a6.041,6.041,0,0,0-.825.857c-1.148,1.51-23.751,23.827-25.054,25.13l-17.133,17.292c-.545.569-1.1,1.025-1.609,1.6l-6.081,6.619Z" transform="translate(-3537.3 -2827.569)" fill="#eb1f2a" fill-rule="evenodd"/>
        <path id="Path_3" data-name="Path 3" d="M6608.389,2256.781l.314,8.56c.218,2.592.453,5.7.453,8.423.6-.161,1.9-1.668,2.406-2.184l8.265-7.955c.462-.467.773-.616,1.229-1.066l8.333-8.037c.414-.364.749-.746,1.146-1.146.829-.827,1.543-1.555,2.372-2.374l7.118-6.806c.825-.827,1.543-1.543,2.368-2.371,1.561-1.555,3.332-2.964,3.332-6.006,0-3.772-3.6-7.5-6.887-7.5a6.9,6.9,0,0,0-4.184.866,10.524,10.524,0,0,0-1.975,1.542l-20.882,22.263A34.65,34.65,0,0,0,6608.389,2256.781Z" transform="translate(-6497.618 -2202.008)" fill="#262863" fill-rule="evenodd"/>
        <path id="Path_4" data-name="Path 4" d="M6370.852,1676.035c1.55,0,3.052-.57,5.717.71a9.571,9.571,0,0,1,4.733,5.055,10.757,10.757,0,0,1,.566,4.333c.746-.5,5.792-5.464,6.994-6.62l15-14.226a20.7,20.7,0,0,1,2.026-1.951,53.515,53.515,0,0,0,3.942-3.862c1.978-1.952,3.338-5.24,1.743-8.25a8.99,8.99,0,0,0-3.5-3.538c-3.148-1.527-6.276-.482-8.789,1.55-1.329,1.076-4.2,4.157-5.4,5.157l-.166.138-.169.139-4.868,4.772c-1.633,1.365-3.4,3.406-5.479,5.234-.687.606-1.322,1.325-1.988,1.988l-10.363,9.37Z" transform="translate(-6268.65 -1641.611)" fill="#262863" fill-rule="evenodd"/>
        <path id="Path_5" data-name="Path 5" d="M5870.312,1525.515a9.333,9.333,0,0,1,11.166,9.485l7.072-6.695c1.155-1.013,2.344-2.325,3.447-3.442l7.039-6.731c1.181-1.189,2.258-2.258,3.442-3.443,1.16-1.16,2.259-2.342,3.456-3.428l.388-.377c.181-.192.276-.294.437-.48a6.438,6.438,0,0,0,1.5-4.78c0-3.276-3.756-6.885-7.039-6.885-2.753,0-3.561.555-5.468,2.487l-3.676,3.362c-2.42,2.394-4.859,4.553-7.263,6.965l-14.5,13.961Z" transform="translate(-5786.16 -1498.74)" fill="#262863" fill-rule="evenodd"/>
        <path id="Path_6" data-name="Path 6" d="M6249.034,4355.006l9.062,9.14-9.177,9.1c-.464-.675-6.785-6.853-8.031-8.109-.415-.413-.625-.894-1.338-.953-.171.632-.306.462-.985,1.158-.024.019-.052.054-.076.076l-.145.159c-.123.133-.154.178-.295.319l-1.7,1.664c-.01.009-.191.187-.229.228-.566.585-.4.67-1,.832.188.7,5.083,5.313,5.7,5.927,1.41,1.412,16.815,16.984,17.556,17.481.426-.285,4.424-4.12,4.591-4.743l-9.98-10.061,9.023-9.1,10.1,10.021c.687-.214,4.484-4.186,4.783-4.629l-23.14-23.216-.639.511c-.022.021-.053.057-.074.08l-.768.759c-.005,0-.3.3-.306.306l-1.444,1.465c-.171.183-.112.133-.3.313Z" transform="translate(-6137.806 -4247.448)" fill="#262863" fill-rule="evenodd"/>
        <path id="Path_7" data-name="Path 7" d="M5652.166,5099.545,5645.7,5093a45.07,45.07,0,0,1,5.584-5.354,4.3,4.3,0,0,1,5.741.3c2.726,2.689,1.467,5.368-1,7.806A46.146,46.146,0,0,1,5652.166,5099.545Zm-15.145-5.813,23.216,23.295c.447-.309,4.46-4.151,4.629-4.781l-8.606-8.686c.8-1.162,4.232-4.039,5.327-5.455,1.294-1.674,2.423-2.62,3.187-4.928,2.788-8.449-8.047-17.509-15.69-11.25Z" transform="translate(-5561.287 -4950.681)" fill="#262863" fill-rule="evenodd"/>
        <path id="Path_8" data-name="Path 8" d="M7019.871,3816.132c0,8.993,9.663,18.514,17.444,18.514,4.163,0,5.768-.5,9.055-2.724l1.847-1.521a8.751,8.751,0,0,0,.814-.87,17.789,17.789,0,0,0,2.14-2.906,12.362,12.362,0,0,0,.829-10.495c-.355-.977-1.177-2.2-1.377-3.059a16.281,16.281,0,0,0-3.065,1.524c-.956.556-2.068,1.013-3.055,1.536,1.167,2.208,2.672,5.078,1.177,8.061a7.584,7.584,0,0,1-7.143,4.333,9.162,9.162,0,0,1-4.532-1.742,26.079,26.079,0,0,1-6.38-6.469,11.943,11.943,0,0,1-1.07-2.146c-2.3-5.855,3.528-11.554,8.872-9.787a8.711,8.711,0,0,0,1.889.713c.4-.754,3.311-5.19,3.366-5.815-1.878-.437-6.821-4.524-14.274,1.025l-1.985,1.692c-2.5,2.846-4.55,5.844-4.55,10.137Z" transform="translate(-6894.258 -3718.366)" fill="#262863" fill-rule="evenodd"/>
        <path id="Path_9" data-name="Path 9" d="M6082.41,2659.351c0,1.686,1.248,5.031,1.51,7.518.15,1.45-.052,3.127.133,4.458.171,1.25.04,30.936.04,34.23h1.377c.028-1.275.462-3.153.459-5.509v-24.02c0-3.507.233-6.845,4.747-7.187,1-.074,2.028.084,3.015-.045.746-.1,1.881-.356,2.641-.419v-.919a8.678,8.678,0,0,1-5.634-.791,9.064,9.064,0,0,1-4.716-5.379,8.829,8.829,0,0,1-.39-2.221,18.405,18.405,0,0,1,.031-2.318C6084.68,2657,6083.24,2659.129,6082.41,2659.351Z" transform="translate(-5990.61 -2614.983)" fill="#262863" fill-rule="evenodd"/>
      </g>
    </g>
  </g>
</svg>
