<svg xmlns="http://www.w3.org/2000/svg" width="119.61" height="220.271" viewBox="0 0 119.61 220.271">
  <g id="presciption1" transform="translate(-966.9 -620.095)">
    <rect id="Rectangle_330" data-name="Rectangle 330" width="69.039" height="20.712" rx="10" transform="translate(991.755 819.654)" fill="#262863"/>
    <g id="prescription_1_" data-name="prescription (1)" transform="translate(966.9 620.095)">
      <g id="Group_256" data-name="Group 256" transform="translate(0)">
        <path id="Path_224" data-name="Path 224" d="M182.633,34.194,149.416.977A3.312,3.312,0,0,0,147.063,0H77.29A13.305,13.305,0,0,0,64,13.29v132.9a13.305,13.305,0,0,0,13.29,13.29h93.03a13.305,13.305,0,0,0,13.29-13.29V36.547A3.311,3.311,0,0,0,182.633,34.194ZM93.9,139.545a9.968,9.968,0,1,1,9.968-9.967A9.978,9.978,0,0,1,93.9,139.545Zm0-33.225a9.968,9.968,0,1,1,9.968-9.967A9.978,9.978,0,0,1,93.9,106.32ZM113.838,73.1h-13.29a3.321,3.321,0,0,1-3.323-3.323V59.805H87.257a3.321,3.321,0,0,1-3.323-3.323V43.192a3.321,3.321,0,0,1,3.323-3.323h9.968V29.9a3.321,3.321,0,0,1,3.323-3.323h13.29A3.321,3.321,0,0,1,117.16,29.9V39.87h9.967a3.321,3.321,0,0,1,3.323,3.323v13.29a3.321,3.321,0,0,1-3.323,3.323H117.16v9.967A3.321,3.321,0,0,1,113.838,73.1ZM160.353,132.9h-39.87a3.323,3.323,0,1,1,0-6.645h39.87a3.323,3.323,0,0,1,0,6.645Zm0-33.225h-39.87a3.323,3.323,0,1,1,0-6.645h39.87a3.323,3.323,0,0,1,0,6.645Zm-3.322-66.45a6.651,6.651,0,0,1-6.645-6.645V11.343l21.882,21.882Z" transform="translate(-64)" fill="#ff4e4e"/>
      </g>
    </g>
  </g>
</svg>
