<svg xmlns="http://www.w3.org/2000/svg" width="169.855" height="169.855" viewBox="0 0 169.855 169.855">
  <g id="promotion_icon" transform="translate(0 0)">
    <g id="Group_272" data-name="Group 272" transform="translate(0 0)">
      <g id="Group_271" data-name="Group 271" transform="translate(0 0)">
        <path id="Path_232" data-name="Path 232" d="M179.758,106.59l9-5.725-9.27-4.908,8.179-6.816L177.577,85.6l7.089-7.907-10.36-2.181,6-8.725-10.633-.818,4.635-9.542-10.633.818,3.272-10.088-10.36,2.181,1.908-10.36L148.4,42.52l.273-10.633-9.27,4.908-1.091-10.633-8.452,6.271-2.726-10.36L119.5,29.433l-4.09-9.815-6.543,8.452-5.18-9.27-5.18,9.27-6.543-8.452-4.09,9.815-7.634-7.361L77.79,32.432l-8.452-6.271L68.248,36.794l-9.27-4.908.273,10.633L49.163,38.975l1.908,10.36-10.36-2.181,3.272,10.088L33.35,56.424l4.635,9.542-10.633.818,6,8.725L22.99,77.69,30.078,85.6,19.991,89.141l8.179,6.816-9.27,4.908,9,5.725-8.725,6.271,9.815,4.362-7.634,7.361,10.088,3L24.9,136.036,35.531,137.4l-5.453,9H40.711l-4.09,9.815,10.633-1.363L44.8,165.208l10.088-3L53.8,172.842l9.815-4.362.273,10.633,9-5.725,1.908,10.36,8.179-6.816,3.272,10.088,7.089-7.907,4.635,9.542,6-8.725,6,8.725,4.635-9.542,7.089,7.907,3.272-10.088,8.179,6.816,1.909-10.36,9,5.725.273-10.633,9.815,4.362-1.091-10.633,10.088,3-2.454-10.36,10.633,1.363-4.09-9.815H177.3l-5.18-9.27,10.633-1.363-6.543-8.452,10.088-3-7.634-7.361,9.815-4.362ZM89.241,70.329A11.724,11.724,0,1,1,77.518,82.053,11.637,11.637,0,0,1,89.241,70.329Zm-3.817,65.434A4.4,4.4,0,0,1,81.88,137.4a5.26,5.26,0,0,1-2.726-.818,4.079,4.079,0,0,1-.818-6l43.623-58.618a4.281,4.281,0,0,1,6.816,5.18Zm32.717,1.636a11.724,11.724,0,1,1,11.724-11.724A11.637,11.637,0,0,1,118.141,137.4Z" transform="translate(-18.9 -18.8)" fill="#ff4e4e"/>
      </g>
    </g>
  </g>
</svg>
