<svg xmlns="http://www.w3.org/2000/svg" width="15.005" height="15" viewBox="0 0 15.005 15"><defs><style>.a{fill:#ff4e4e;}</style></defs><g transform="translate(0.004 0.004)"><path class="a" d="M14.8,4.335a1.58,1.58,0,0,0-1.436-.914,2.192,2.192,0,0,1-1.485-.45,2.166,2.166,0,0,1-.5-1.473,1.579,1.579,0,0,0-.96-1.406A1.579,1.579,0,0,0,8.765.459,2.24,2.24,0,0,1,7.4,1.2,2.157,2.157,0,0,1,6.006.508,1.583,1.583,0,0,0,4.335.189a1.583,1.583,0,0,0-.917,1.436,2.192,2.192,0,0,1-.45,1.485,2.178,2.178,0,0,1-1.47.5,1.589,1.589,0,0,0-1.406.962A1.579,1.579,0,0,0,.459,6.227,2.241,2.241,0,0,1,1.2,7.595,2.153,2.153,0,0,1,.508,8.984a1.575,1.575,0,0,0-.32,1.673,1.581,1.581,0,0,0,1.436.917,2.192,2.192,0,0,1,1.485.45,2.158,2.158,0,0,1,.5,1.47A1.578,1.578,0,0,0,4.566,14.9a1.578,1.578,0,0,0,1.661-.366A2.2,2.2,0,0,1,7.595,13.8a2.2,2.2,0,0,1,1.392.692,1.521,1.521,0,0,0,2.589-1.119,2.192,2.192,0,0,1,.45-1.485A2.153,2.153,0,0,1,13.5,11.4a1.522,1.522,0,0,0,1.04-2.625A2.217,2.217,0,0,1,13.8,7.4a2.145,2.145,0,0,1,.692-1.389A1.6,1.6,0,0,0,14.8,4.335ZM8.651,10.177a2.919,2.919,0,1,1,1.523-3.834,2.919,2.919,0,0,1-1.523,3.834Z" transform="translate(0 0)"/></g></svg>