<svg xmlns="http://www.w3.org/2000/svg" width="141.458" height="169.855" viewBox="0 0 141.458 169.855">
  <g id="share" transform="translate(0 -0.001)">
    <path id="Path_239" data-name="Path 239" d="M148.747,162.519a28.933,28.933,0,0,0-25.98-45.435l0-.017a43.183,43.183,0,0,1-28.355-7.706C87.22,104.328,79,95.616,79,89.926s8.21-14.4,15.393-19.435a43.223,43.223,0,0,1,28.355-7.708l0-.017A28.928,28.928,0,1,0,97.162,26.211l-.017,0A43.387,43.387,0,0,1,49.5,57.672l0,.015a32.542,32.542,0,1,0,.019,64.473l-.008.008v.013a43.391,43.391,0,0,1,47.645,31.461h.017a28.926,28.926,0,0,0,51.572,8.876Z" transform="translate(-12.523 -4.999)" fill="#ff4e4e"/>
  </g>
</svg>
