<svg xmlns="http://www.w3.org/2000/svg" width="136.771" height="188.06" viewBox="0 0 136.771 188.06">
  <g id="sort-arrows-couple-pointing-up-and-down" transform="translate(-54.818)">
    <g id="Group_292" data-name="Group 292" transform="translate(54.818)">
      <path id="Path_259" data-name="Path 259" d="M63.367,76.933H183.039a8.5,8.5,0,0,0,6.01-14.559L129.213,2.537a8.388,8.388,0,0,0-12.022,0L57.355,62.374a8.548,8.548,0,0,0,6.011,14.559Z" transform="translate(-54.818 0)" fill="#fff"/>
      <path id="Path_260" data-name="Path 260" d="M183.039,237.549H63.367a8.5,8.5,0,0,0-6.011,14.556l59.837,59.835a8.383,8.383,0,0,0,12.021,0l59.837-59.836a8.546,8.546,0,0,0-6.011-14.556Z" transform="translate(-54.818 -126.421)" fill="#fff"/>
    </g>
  </g>
</svg>
