<svg xmlns="http://www.w3.org/2000/svg" width="34.593" height="34.593" viewBox="0 0 34.593 34.593">
  <path id="twitter_1_" data-name="twitter (1)" d="M17.3,0a17.3,17.3,0,1,0,17.3,17.3A17.3,17.3,0,0,0,17.3,0Zm7.9,13.486q.011.255.011.513a11.219,11.219,0,0,1-11.3,11.3h0a11.237,11.237,0,0,1-6.085-1.783,8.075,8.075,0,0,0,.947.055,7.966,7.966,0,0,0,4.931-1.7,3.974,3.974,0,0,1-3.709-2.757,3.957,3.957,0,0,0,1.793-.068A3.971,3.971,0,0,1,8.6,15.15c0-.018,0-.034,0-.051a3.943,3.943,0,0,0,1.8.5,3.973,3.973,0,0,1-1.229-5.3,11.271,11.271,0,0,0,8.183,4.148,3.972,3.972,0,0,1,6.765-3.62,7.963,7.963,0,0,0,2.521-.964,3.985,3.985,0,0,1-1.746,2.2,7.918,7.918,0,0,0,2.28-.625,8.068,8.068,0,0,1-1.98,2.056Zm0,0" fill="#bbb"/>
</svg>
