<svg xmlns="http://www.w3.org/2000/svg" xmlns:xlink="http://www.w3.org/1999/xlink" width="603" height="603" viewBox="0 0 603 603">
  <defs>
    <linearGradient id="linear-gradient" x1="0.432" y1="1.048" x2="0.554" y2="-0.062" gradientUnits="objectBoundingBox">
      <stop offset="0" stop-color="#1c1d4d"/>
      <stop offset="1" stop-color="#4347c8"/>
    </linearGradient>
    <linearGradient id="linear-gradient-2" y1="0.503" x2="1" y2="0.503" gradientUnits="objectBoundingBox">
      <stop offset="0" stop-color="#1c1d4d"/>
      <stop offset="1" stop-color="#4834bb"/>
    </linearGradient>
    <linearGradient id="linear-gradient-3" x1="0.5" y1="1" x2="0.5" gradientUnits="objectBoundingBox">
      <stop offset="0" stop-color="#1c1d4d"/>
      <stop offset="1" stop-color="#353884"/>
    </linearGradient>
    <linearGradient id="linear-gradient-4" y1="0.5" x2="1" y2="0.5" gradientUnits="objectBoundingBox">
      <stop offset="0" stop-color="#7ec4ff"/>
      <stop offset="1" stop-color="#1c1d4d"/>
    </linearGradient>
    <linearGradient id="linear-gradient-5" x1="0.5" y1="1" x2="0.5" gradientUnits="objectBoundingBox">
      <stop offset="0" stop-color="#ff4e4e"/>
      <stop offset="1" stop-color="#ff4e4e"/>
    </linearGradient>
    <linearGradient id="linear-gradient-6" x1="0.131" y1="0.98" x2="0.878" y2="0.01" gradientUnits="objectBoundingBox">
      <stop offset="0" stop-color="#eb1f2a"/>
      <stop offset="1" stop-color="#ff4e4e"/>
    </linearGradient>
  </defs>
  <g id="delivered" transform="translate(-13.502 13.498)">
    <g id="Layer_2" data-name="Layer 2" transform="translate(13.612 -13.389)">
      <g id="illustration" transform="translate(0 0)">
        <circle id="Ellipse_164" data-name="Ellipse 164" cx="301.5" cy="301.5" r="301.5" transform="translate(-0.109 -0.109)" fill="#262863"/>
        <path id="Path_353" data-name="Path 353" d="M100.489,204.379a114.84,114.84,0,0,0-4.477-42.822,57.225,57.225,0,0,0-26.536-32.83A154.169,154.169,0,0,1,51.439,120.1a16.22,16.22,0,0,1-7.851-16.934,95.322,95.322,0,0,0,4.152-9.6c.908-6.034-4.607-11.03-9.992-13.82-7.267-3.828-15.377-6.034-22.254-10.511a32.96,32.96,0,0,1-6.1-51A55.928,55.928,0,0,1,33.921,1.69a49.44,49.44,0,0,1,44.184,9.538,67.541,67.541,0,0,1,22.9,39.9,331.5,331.5,0,0,1,3.049,35.944c3.7,42.3,26.8,53.787,9.473,111.207" transform="matrix(0.719, 0.695, -0.695, 0.719, 464.075, 0.892)" fill="#d9ebff"/>
        <path id="Path_354" data-name="Path 354" d="M160.591,68.822C156.5,45.4,130.486,4.265,105.572.112A55.927,55.927,0,0,0,78.257,5.3c-7.851,2.92-16.674,0-24.525-1.427a58.393,58.393,0,0,0-41.978,9.992A25.369,25.369,0,0,0,.01,29.763,23.033,23.033,0,0,0,11.754,50.525,38.929,38.929,0,0,0,41.534,56.17,145.721,145.721,0,0,0,69.887,43.194c9.408-4.477,21.086-6.942,30.04-1.492,6.488,4.152,10.641,12.2,17.518,16.22s17.064,3.179,24.979,6.488c11.095,4.866,16.285,17.388,20.438,28.807" transform="matrix(0.719, 0.695, -0.695, 0.719, 340.919, 73.477)" fill="#d9ebff"/>
        <path id="Path_355" data-name="Path 355" d="M.409,9.55c9.862,6.034,23.1,2.336,33.219-.908A85.06,85.06,0,0,1,68.405,3,73.056,73.056,0,0,1,99.159,13.313a98.424,98.424,0,0,1,23.033,21.605c.779.973,2.011,0,1.557-1.233a53.981,53.981,0,0,0-20.892-22.125,72.213,72.213,0,0,0-61.248-8.11,196.908,196.908,0,0,1-19.983,6.1A41.524,41.524,0,0,1,.928,8.317.669.669,0,1,0,.409,9.55Z" transform="matrix(0.719, 0.695, -0.695, 0.719, 339.759, 100.907)" fill="#c8e2fc"/>
        <path id="Path_356" data-name="Path 356" d="M.4.843a97.712,97.712,0,0,1,23.227,29c6.488,11.289,12.2,23.163,17.777,34.906a151.367,151.367,0,0,1,13.625,41.07,174.72,174.72,0,0,1,1.946,22.514v21.605a1.073,1.073,0,0,0,2.141,0,141.244,141.244,0,0,0-.973-43.73,150.33,150.33,0,0,0-13.56-42.043A368.449,368.449,0,0,0,24.734,27.185,95.051,95.051,0,0,0,.533,0S-.245,0,.079.584Z" transform="matrix(0.719, 0.695, -0.695, 0.719, 465.487, 61.878)" fill="#c8e2fc"/>
        <path id="Path_357" data-name="Path 357" d="M.245.843c3.179,1.687,6.488,3.309,9.6,4.8s6.488,2.79,9.862,4.412a26.536,26.536,0,0,1,7.4,5.126,41.192,41.192,0,0,1,5.385,7.137c.908,1.3,3.439.519,2.725-1.168A27.25,27.25,0,0,0,22.24,8.175,140.4,140.4,0,0,0,.634,0C.115,0-.274.714.245.973Z" transform="matrix(0.719, 0.695, -0.695, 0.719, 434.588, 120.071)" fill="#c8e2fc"/>
        <path id="Path_358" data-name="Path 358" d="M0,.195C5.9,4.087,12.976,5.32,19.464,8.759a27.186,27.186,0,0,1,8.175,7.2l4.088,5.126a26.343,26.343,0,0,0,4.347,4.931c1.038.714,1.946-.649,1.557-1.557a28.288,28.288,0,0,0-4.282-5.32L29.2,14.079a25.109,25.109,0,0,0-8.3-7.137C14.4,3.763,6.553,3.5.13,0h0Z" transform="matrix(0.719, 0.695, -0.695, 0.719, 447.438, 81.52)" fill="#c8e2fc"/>
        <g id="Group_544" data-name="Group 544" transform="matrix(0.998, -0.07, 0.07, 0.998, 52.986, 30.598)">
          <path id="Path_306" data-name="Path 306" d="M56.458,313.135c7.916-16.091,15.312-34.128,10.641-51.9-3.893-15.182-15.312-26.537-25.953-37.437-9.862-9.8-27.185-23.487-24.59-39.318,1.362-8.435,9.083-13.885,10.705-22.579,5-26.407-17.648-45.417-24.85-68.644-6.034-19.464,0-40.681,9.862-58C18.762,23.116,28.3,6.376,41.989,1.186,59.053-5.3,69.629,16.368,74.43,29.02a148.189,148.189,0,0,1,7.786,39.318c.973,11.808-1.817,28.159,4.347,38.929,4.671,7.916,14.469,11.354,19.854,18.751a30.364,30.364,0,0,1,4.866,16.61,83.308,83.308,0,0,1-5.839,28.872c-7.98,25.433,5.515,49.44,4.866,74.743a117.758,117.758,0,0,1-5,26.731L93.829,315.8" transform="translate(0 0)" fill="#d9ebff"/>
          <path id="Path_309" data-name="Path 309" d="M.461.73C-3.107,44.265,14.8,85.076,27.582,125.756a261.989,261.989,0,0,1,13.3,64.881,220.077,220.077,0,0,1-5.45,63.194,213.59,213.59,0,0,1-10.965,33.544c-4.8,11.744-11.16,22.384-17.064,33.608a1.5,1.5,0,0,0,2.6,1.492,143.2,143.2,0,0,0,15.9-28.613,222.93,222.93,0,0,0,10.77-29.975,219.426,219.426,0,0,0,8.37-62.61,233.573,233.573,0,0,0-9.992-63c-6.488-21.735-14.923-42.757-21.8-64.362A192.891,192.891,0,0,1,1.824.73.746.746,0,0,0,.332.73Z" transform="translate(38.998 30.301)" fill="#c8e2fc"/>
          <path id="Path_314" data-name="Path 314" d="M0,.454A56.9,56.9,0,0,1,15.052,12.327a55.21,55.21,0,0,1,6.034,7.461c1.752,2.66,3.179,5.515,4.931,8.175a1.168,1.168,0,0,0,2.141-.908,27.445,27.445,0,0,0-4.412-9.083,57.1,57.1,0,0,0-6.488-7.786A48.338,48.338,0,0,0,.259,0S-.195.324.26.454Z" transform="translate(47.05 147.169)" fill="#c8e2fc"/>
          <path id="Path_315" data-name="Path 315" d="M.086.973C1.838,2.66,3.979,4.023,5.8,5.71s3.568,3.439,5.255,5.255a70.527,70.527,0,0,1,9.408,13.041,64.428,64.428,0,0,1,6.034,14.079c1.492,4.931,1.687,9.992,2.985,14.923.324,1.427,2.206.973,2.4,0a40.421,40.421,0,0,0-2.6-15.831,72.344,72.344,0,0,0-6.488-14.339,67.41,67.41,0,0,0-9.473-12.392A42.3,42.3,0,0,0,.995,0C.346,0-.368.454.216.973Z" transform="translate(49.494 206.535)" fill="#c8e2fc"/>
          <path id="Path_316" data-name="Path 316" d="M3.909.6A85.514,85.514,0,0,0,.146,20.069a81.164,81.164,0,0,0,0,9.732,25.952,25.952,0,0,0,1.622,9.538,1.168,1.168,0,0,0,2.141-.584,15.182,15.182,0,0,0-.324-4.542c0-1.687-.519-3.439-.649-5.191A83.959,83.959,0,0,1,2.482,20,76.04,76.04,0,0,1,5.077.54c0-.584-.714-.843-.908,0Z" transform="translate(53.392 81.488)" fill="#c8e2fc"/>
          <path id="Path_317" data-name="Path 317" d="M.324.649a35.166,35.166,0,0,1,14.6,12.068c2.011,2.66,3.958,5.385,5.71,8.24l2.725,4.671a13.82,13.82,0,0,0,2.92,4.217c.519.389,1.687,0,1.557-.714A12.068,12.068,0,0,0,25.823,24.2c-.973-1.752-1.946-3.439-2.985-5.126a64.04,64.04,0,0,0-6.488-8.759A30.429,30.429,0,0,0,.324,0a.324.324,0,0,0,0,.649Z" transform="translate(24.212 77.421)" fill="#c8e2fc"/>
          <path id="Path_318" data-name="Path 318" d="M10.494.227A82.267,82.267,0,0,0,1.93,22.936,84.347,84.347,0,0,0,.438,34.355a43.146,43.146,0,0,0,0,12.263.779.779,0,0,0,1.492,0c0-3.7-.324-7.526,0-11.289A77.211,77.211,0,0,1,3.358,22.936,82.27,82.27,0,0,1,11.208.746c0-.584-.584-1.038-.843-.519Z" transform="translate(73.084 129.164)" fill="#c8e2fc"/>
        </g>
        <path id="Path_770" data-name="Path 770" d="M35.9,234.79,97.472,126.57l16.311,33.2L80.94,283.962a302.118,302.118,0,0,1-22.816-22.227C46.863,249.443,35.9,234.79,35.9,234.79Z" transform="translate(23.335 243.739)" fill="#ff4e4e"/>
        <path id="Path_772" data-name="Path 772" d="M81.793,331.7S56.441,178.211,48.59,75.508c0,0,217.091-34.367,333.462-39.178a227.347,227.347,0,0,1,4.891,34.578v2.459l-6.45,3.014,3.754,196.365s-39.654,33.283-67.174,43.513C317.178,316.259,128.691,333.654,81.793,331.7Z" transform="translate(44.194 95.422)" fill="url(#linear-gradient)"/>
        <path id="Path_774" data-name="Path 774" d="M61.15,165.289A311.944,311.944,0,0,1,171.361,137.98c60.961-3.014,125.174,11.87,125.174,11.87S120.763,165.289,61.15,165.289Z" transform="translate(64.838 261.831)" fill="#1c1d4d" opacity="0.54"/>
        <path id="Path_775" data-name="Path 775" d="M145.359,118.158a4.626,4.626,0,0,1-2.829-3.86,6.477,6.477,0,0,1,3.965-5.948h.317C145.306,109.355,141.631,112.712,145.359,118.158Z" transform="translate(198.592 213.793)" fill="#fff" opacity="0.5"/>
        <path id="Path_776" data-name="Path 776" d="M147.929,128.838a16.2,16.2,0,0,1-4.124-.185s-6.635-4.917-2.036-10.416c0,0,.608-.291,1.665-.687a9.2,9.2,0,0,0-.793,6.794,6.318,6.318,0,0,0,5.287,4.494Z" transform="translate(194.674 228.914)" fill="#fff" opacity="0.5"/>
        <path id="Path_777" data-name="Path 777" d="M373.55,202.53c-2.458,21.492-23.6,32.566-23.6,32.566-32.78-45.47-45.923-46.472-45.923-46.472a264.351,264.351,0,0,1-33.1,13.905h0c-31.723,10.918-59.8,14.645-64.794,13.932a170.9,170.9,0,0,1-22.523-6.953h0l-.555-.211a165.571,165.571,0,0,1-38.306-7.164s-10.759-.5-10.759-3.278,13.377-11.235,13.377-11.235-16.787-.819-16.787-1.8,1.137-5.551,12.531-7.931,25.59,0,28.048,0h8.512c5.763,0,13.694-.185,21.334-.952,2.379-.238,4.758-.529,7.005-.872,14.989-2.459,47.082-17.791,47.082-17.791a16.92,16.92,0,0,0-5.049-1.137c-2.3,0-8.592,3.119-17.606,4.573h-.185a43.76,43.76,0,0,1-5.525.582c-12.081.661-24.453-2.934-24.77-7.005s4.388-8.46,5.869-8.962,17.818.767,33.944.661c5.287,0,10.574-.238,15.2-.661a64.264,64.264,0,0,0,9.728-1.692c13.377-3.3,23.528-9.464,35.265-5.9,9.781,2.987,16.417,13.667,19.853,20.779a49.328,49.328,0,0,1,2.643,6.609C324.8,168.322,373.55,202.53,373.55,202.53Z" transform="translate(178.952 261.97)" fill="#fff"/>
        <path id="Path_778" data-name="Path 778" d="M174.649,155.12A188.59,188.59,0,0,1,151.2,158s17.95.449,20.17-.291a6.371,6.371,0,0,0,3.278-2.591Z" transform="translate(212.842 290.664)" fill="#efefef"/>
        <path id="Path_780" data-name="Path 780" d="M235.268,148.641a36.561,36.561,0,0,0-34.9,8.645c-16.6,15.6-15.121,22.074-31.723,31.326,0,0,6.9-1.824,19.774-14.54S207.061,147.663,235.268,148.641Z" transform="translate(241.523 277.818)" fill="#efefef"/>
        <path id="Path_781" data-name="Path 781" d="M143.585,164.86c-.37-1.956,3.49,5.816,17.5-4.811,9.649,1.586,20.012,12.266,24.532,12.769a44.942,44.942,0,0,0,12.953-2.141s-9.861,2.088-12.213,1.348-15.28-12.134-24.691-13.429C145.488,156.348,143.585,164.86,143.585,164.86Z" transform="translate(200.287 295.754)" fill="#efefef"/>
        <path id="Path_782" data-name="Path 782" d="M174.751,174.186l-.555-.211a165.574,165.574,0,0,1-38.306-7.164c1.031-5.631,13.879-7.428,15.491-7.64a34.368,34.368,0,0,0-13.033,5.948,7.931,7.931,0,0,0,6.212,3.648c4.917.793,11.605-5.472,11.605-5.472C157.118,166.043,173.72,173.736,174.751,174.186Z" transform="translate(187.679 297.32)" fill="#efefef"/>
        <path id="Path_783" data-name="Path 783" d="M138.967,158.137a70.451,70.451,0,0,1,16.179-1.507c10.574,0,18.214.714,18.214.714s-21.387-3.886-37.75,0Z" transform="translate(187.219 291.48)" fill="#efefef"/>
        <path id="Path_784" data-name="Path 784" d="M155.87,161.606s6.477-1.692,9.147-2.062a17.946,17.946,0,0,1,4.891,0A136.789,136.789,0,0,1,155.87,161.606Z" transform="translate(220.518 297.66)" fill="#efefef"/>
        <path id="Path_785" data-name="Path 785" d="M160.841,154s2.643,17.5,12,23.792C172.9,177.607,156.823,168.381,160.841,154Z" transform="translate(227.628 288.823)" fill="#efefef"/>
        <path id="Path_786" data-name="Path 786" d="M170.822,162.21a32.884,32.884,0,0,1-10.812,4.1,52.686,52.686,0,0,0,12.821-2.379Z" transform="translate(227.322 302.317)" fill="#efefef"/>
        <path id="Path_791" data-name="Path 791" d="M185.437,145.53l12.346,1.163s-10.574,1.718-24.9,4.521Z" transform="translate(248.475 274.902)" fill="#efefef"/>
        <path id="Path_795" data-name="Path 795" d="M380.6,52.088A405.359,405.359,0,0,1,318,80.216s-212.042,6.4-225.075,3.331-33.6-30.084-33.6-30.084L48.59,51.11,87.054,88.12S316.491,99.8,320.245,98.351,380.677,56.5,380.677,56.5Z" transform="translate(44.194 119.715)" opacity="0.5" fill="url(#linear-gradient-2)"/>
        <path id="Path_796" data-name="Path 796" d="M149,67.3s8.38,18.743,4.018,37.2l1.851,210.694s38.914-19.272,64.5-42.456L215.618,76.364l6.45-3.014a112.748,112.748,0,0,0-5-37.01S179.639,60.767,149,67.3Z" transform="translate(209.226 95.439)" fill="#1c1d4d" opacity="0.22"/>
        <path id="Path_797" data-name="Path 797" d="M48.59,75.508s185.553-6.583,265.389-8.2c0,0,43.619-10.944,68.072-30.983C382.052,36.33,215.347,45.265,48.59,75.508Z" transform="translate(44.194 95.422)" opacity="0.45" fill="url(#linear-gradient-3)"/>
        <path id="Path_798" data-name="Path 798" d="M48.59,75.508s204.8-4.626,265.442-8.2c0,0,40.209-7.931,68.072-30.983,0,0-46.395,18.082-138.841,25.669S48.59,75.508,48.59,75.508Z" transform="translate(44.194 95.422)" opacity="0.2" fill="url(#linear-gradient-4)"/>
        <path id="Path_799" data-name="Path 799" d="M128.831,314.3,121.138,96.069l-6.4.5-4.15-37.618c17-6.926,29.476-10.178,48.88-16.073L99.54,58.874S107.365,286.407,128.831,314.3Z" transform="translate(127.935 106.188)" fill="#262863" opacity="0.54"/>
        <path id="Path_800" data-name="Path 800" d="M130.725,65.366s-1.243,167.5,20.726,255.45l-31.3,2.115S94.508,175.815,87.158,93.335c-.819-9.411-1.428-18-1.718-25.4A799.122,799.122,0,0,1,206.12,41.759l26.647-2.829C228.405,39.75,158.429,52.121,130.725,65.366Z" transform="translate(104.76 99.696)" fill="url(#linear-gradient-5)"/>
        <path id="Path_801" data-name="Path 801" d="M152.005,304.4l-31.855,2.141-1.11-6.477c-5.023-29.291-25.458-150.949-31.882-223.118l-1.718-25.4L130.725,48.9S130.037,216.45,152.005,304.4Z" transform="translate(104.76 116.082)" fill="url(#linear-gradient-6)"/>
        <path id="Path_802" data-name="Path 802" d="M68.158,215.106l63.446-3.6s22.127,3.992,30.613,3.6S187.463,198,187.463,198l-26.885-2.644,39.654-23.528,4.653-18.822-36.4-1.718s15.148-13.879,31.379-27.916l-2.036-9.332L92.452,129.322,66.36,127.709s32.728-8.988,49.62-24.215S130.044,80.31,130.044,80.31L80.4,93.528,52.64,104.261Z" transform="translate(50.851 167.707)" fill="#1c1d4d" opacity="0.57"/>
        <path id="Path_803" data-name="Path 803" d="M377.659,255.988c-52.211-62.336-48.018-55.595-63.377-69.024l-1.692-1.454-.925-.793-.291-.238-.238-.211c-1.9-1.639-2.908-2.459-2.908-2.459s-7.481,8.459-16.1,11.129c-7.614,2.326-63.446,15.544-79.122,18.769-2.036.449-3.41.714-3.86.74-4.1.317-35.133-.872-36.111-1.137s-1.956-2.273-1.85-3.331,6.9-5.472,13.667-6.186,10.574,1.771,17.686.291A21.972,21.972,0,0,0,205,201.4a93.4,93.4,0,0,0,16.655-9.094l-8.407.476c-7.614.423-18.505.978-23.792,1.137-8.671.238-38.015.608-38.993-.978a14.46,14.46,0,0,1-.132-6.477,40.789,40.789,0,0,1-5.869-.846,10.839,10.839,0,0,1-4.759-6.609c0-2.088,3.648-6.741,13.8-11.262a39.151,39.151,0,0,1,4.811-1.718h0a114.121,114.121,0,0,1,18.056-3.542h.185c3.86-.476,6.5-.687,6.5-.687h-2.644c-7.931-.185-29.846-.846-31.855-2.062a5.472,5.472,0,0,1-2.432-5.842c.317-1.824,9.12-7.666,21.677-8.988a174.851,174.851,0,0,1,28.313.238h1.11a149.071,149.071,0,0,0,34.367-4.917,117.191,117.191,0,0,0,20.461-7.772h.264c10.336-5.023,18.135-10.2,18.135-11a25.193,25.193,0,0,0-9.517-10.839h0a22.365,22.365,0,0,0-9.7-3.648c-12.081-1.48-28.366,2.115-38.491-.661a11,11,0,0,1-4.388-2.459,19.351,19.351,0,0,1-3.3-3.939h0c-4.256-6.635-5.552-15.862-4.018-16.892,2.3-1.454,38.491,10.125,52.66,10.574,9.755.344,25.246-1.163,37.169.291h0a27.731,27.731,0,0,1,13.218,4.283c8.459,6.477,20.091,38.306,23.078,46.791.449,1.348.714,2.088.714,2.088,32.687,42.255,45.156,49.725,67.767,65.4C393.952,221.16,386.086,257.113,377.659,255.988Z" transform="translate(193.941 171.951)" fill="#fff"/>
        <path id="Path_810" data-name="Path 810" d="M156.17,114.374h20.964c5.261,0,22.6-2.644,22.6-2.644s-19.192,3.067-22.6,3.569S156.17,114.374,156.17,114.374Z" transform="translate(221.011 219.349)" fill="#efefef"/>
        <path id="Path_811" data-name="Path 811" d="M143.43,125.156a200.407,200.407,0,0,1,29.317-5.076s-19.166,4.2-28.577,5.9Z" transform="translate(200.072 233.072)" fill="#efefef"/>
        <path id="Path_812" data-name="Path 812" d="M188.874,117.81s-11.737,1.956-23.634,4.335c0,0,20.356-2.326,25.088-2.987Z" transform="translate(235.918 229.342)" fill="#efefef"/>
        <path id="Path_813" data-name="Path 813" d="M177.58,125.556l-11.05,6.583s16.152-5.287,23.316-8.618Z" transform="translate(238.039 238.726)" fill="#efefef"/>
        <path id="Path_823" data-name="Path 823" d="M146.889,128.615a8.7,8.7,0,0,1-2.8-.529c-.872-.634-.238-5.737-.238-5.737h2.961c-.4,1.163-1.4,4.256-.4,5.816a5.09,5.09,0,0,0,.476.449Z" transform="translate(200.393 236.803)" fill="#fff" opacity="0.5"/>
        <path id="Path_824" data-name="Path 824" d="M153.8,134.077h-.476a3.516,3.516,0,0,1-1.48-3.939l1.216-.238A6.027,6.027,0,0,0,153.8,134.077Z" transform="translate(213.676 249.212)" fill="#fff" opacity="0.5"/>
        <path id="Path_828" data-name="Path 828" d="M200.435,104.179a25.194,25.194,0,0,0-9.517-10.839c.9.317,13.218,5.049,18.056,11.394,0,0-21.995,8.512-26.674,10.442C192.636,110.153,200.435,104.972,200.435,104.179Z" transform="translate(263.958 189.123)" fill="#efefef" opacity="0.2"/>
        <path id="Path_829" data-name="Path 829" d="M174,109.994l12.4-2.644S182.459,111.95,174,109.994Z" transform="translate(250.316 212.15)" fill="#efefef"/>
        <path id="Path_830" data-name="Path 830" d="M176,115.47l12.372-1.48A10.971,10.971,0,0,1,176,115.47Z" transform="translate(253.603 223.063)" fill="#efefef"/>
        <path id="Path_831" data-name="Path 831" d="M177.57,121.822l12.5-1.322a15.016,15.016,0,0,1-12.5,1.322Z" transform="translate(256.184 233.763)" fill="#efefef"/>
        <path id="Path_832" data-name="Path 832" d="M149.3,123.794s28.6,1.216,48.906-4.494C198.206,119.353,170.211,118.956,149.3,123.794Z" transform="translate(209.72 231.791)" fill="#efefef"/>
        <path id="Path_833" data-name="Path 833" d="M241.862,171.224a11.261,11.261,0,0,1-1,6.582c-1.586,2.088-28.762,7.719-36.429,8.222l-2.644.238h0c-10.574,1-35.609,4.468-35.609,4.468s18.505,8.2,23.264,8.512c0,0,.608-.238,1.824-.608a93.007,93.007,0,0,1,15.518-2.644c11.262-1.137,17.263.74,18.082,1.375s0,5.552-.476,7.032-24.295,8.8-30,9.781h-.4c-6.318.5-28.5-8.512-34.367-8.512s-54.035.952-60.644-.978S84.49,192.426,84.49,192.426a439.856,439.856,0,0,0-34.578,46.5C30.328,268.4,33.489,219.169,31.38,194.2c4.573-4.653,9.12-9.332,13.588-13.932,7.243-7.455,14.3-14.7,20.8-21.466,0,0,3.41-49.646,8.169-55.515l.238-.264a11.261,11.261,0,0,1,3.939-1.93c10.574-3.41,36.27-5.525,46.659-8.83,12.213-3.913,34-16.39,35.213-16.39s5.287,7.111,5,11.87-9.068,18.056-20.329,20.805c-6.424,1.613-14.275.9-20.964.529h-2.908a22.76,22.76,0,0,0-9.068.819c-4.494,1.956-6.292,11.05-6.873,15.439h0c-.211,1.428-.291,2.353-.291,2.353s34.9,1.163,52.872.925a270.479,270.479,0,0,0,28.286-2.168l1.983-.264a7.861,7.861,0,0,0,1.745-.264h.582c.978-.238,13.218-10.257,24.929-11.473s25.7,2.644,25.934,4.706a27.439,27.439,0,0,1-2.934,10.574c-1.216,1.956-30.058,5.287-44.254,10.046q-3.965,1.229-7.931,2.3c-12.5,3.357-25.563,5.5-25.563,5.5s16.813,3.41,29.079,5.129c3.622.476,6.873.846,9.173.925,10.284.317,15.016-.819,26.251-.185s23.607,4.573,24.295,6.53a13.535,13.535,0,0,1-3.04,9.861,6.821,6.821,0,0,1-4.1,1.4Z" transform="translate(15.908 160.41)" fill="#fff"/>
        <path id="Path_839" data-name="Path 839" d="M62.766,115.81s-.185,40.315,6.107,45.285,12.742-4.283,12.742-4.283L44.607,223.15s-8.856-15.848-15.3-31.081A272.9,272.9,0,0,1,18.83,162.217S57.567,120.395,62.766,115.81Z" transform="translate(-4.719 226.054)" fill="#ff4e4e"/>
        <path id="Path_848" data-name="Path 848" d="M86.514,102.92,76.23,103.951s33.177,6.16,48.668,5.023C124.9,108.974,100.577,106.013,86.514,102.92Z" transform="translate(89.623 204.869)" fill="#efefef"/>
        <path id="Path_849" data-name="Path 849" d="M129.646,111.792s-24.321-.582-35.556.449c0,0,32.225,1.586,44.941,1.322v-1.11S130.36,112.109,129.646,111.792Z" transform="translate(118.977 219.181)" fill="#efefef"/>
        <path id="Path_850" data-name="Path 850" d="M76.6,111.37s22.206,1.665,31.221,1.665c0,0-23.951,1.507-27.044.978A5.763,5.763,0,0,1,76.6,111.37Z" transform="translate(90.231 218.757)" fill="#efefef"/>
        <path id="Path_851" data-name="Path 851" d="M87.629,119.32l-8.459,1.613s22.365,6.9,31.723,6.9a156.76,156.76,0,0,1-23.264-8.512Z" transform="translate(94.455 231.823)" fill="#efefef"/>
        <path id="Path_852" data-name="Path 852" d="M66.842,88.38H66.9Z" transform="translate(72.76 180.971)" fill="#fff" opacity="0.2"/>
        <path id="Path_854" data-name="Path 854" d="M84.243,108.959a54.826,54.826,0,0,1-12.293-.529,7.931,7.931,0,0,0,12.293.529Z" transform="translate(82.588 213.925)" fill="#efefef"/>
        <path id="Path_855" data-name="Path 855" d="M85.579,115.739a55.037,55.037,0,0,1-12.319-.529,7.931,7.931,0,0,0,12.319.529Z" transform="translate(84.741 225.068)" fill="#efefef"/>
        <path id="Path_856" data-name="Path 856" d="M74.2,83.845h0c-1.428-.37-2.168-.952-1.851-1.692A7.746,7.746,0,0,1,74.8,79.51h0a4.177,4.177,0,0,1,3.146.4C78.848,80.594,75.967,82.709,74.2,83.845Z" transform="translate(83.118 166.154)" fill="#fff" opacity="0.5"/>
        <path id="Path_857" data-name="Path 857" d="M83.476,85.39a15.865,15.865,0,0,1-1.613,1.19,6.152,6.152,0,0,1,0-1.057,15.412,15.412,0,0,0-2.644-8.75l2.194-.952A12.53,12.53,0,0,1,83.476,85.39Z" transform="translate(94.537 160.327)" fill="#fff" opacity="0.5"/>
        <path id="Path_859" data-name="Path 859" d="M110.68,102.646s-.714.211-1.85.449a23.793,23.793,0,0,0,2.194-10.865h1.983a13.033,13.033,0,0,1-2.326,10.416Z" transform="translate(143.204 187.299)" fill="#fff" opacity="0.5"/>
        <path id="Path_861" data-name="Path 861" d="M112.494,119.153H111.41a14.011,14.011,0,0,0,3.172-11.843h0c.819.185,1.348.476,1.507.872C119.394,116.4,112.494,119.153,112.494,119.153Z" transform="translate(147.444 212.084)" fill="#fff" opacity="0.5"/>
        <path id="Path_863" data-name="Path 863" d="M111.363,118.062a2.4,2.4,0,0,1-.687.317,12.24,12.24,0,0,0-.476-6.16l2.036.344C112.526,114.282,112.659,117.243,111.363,118.062Z" transform="translate(145.455 220.154)" fill="#fff" opacity="0.5"/>
        <path id="Path_865" data-name="Path 865" d="M106.05,128.812a5.838,5.838,0,0,1-.687.37,5.842,5.842,0,0,0-1.983-6.4l.5-.344a13.22,13.22,0,0,1,2.644-.661,7.032,7.032,0,0,1-.476,7.032Z" transform="translate(134.246 235.867)" fill="#fff" opacity="0.5"/>
        <path id="Path_866" data-name="Path 866" d="M35.491,116.46s3.6,35.609,9.623,39.178,11.949-3.7,11.949-3.7l-4.441,5.842s-1.163,5.684-9.781,4.388-7.349-45.708-7.349-45.708Z" transform="translate(22.557 227.123)" fill="#ff4e4e"/>
        <path id="Path_867" data-name="Path 867" d="M32.156,121.72s-3.2,36.693,2.009,47.135,14.989,4.415,14.989,4.415l-5.525,9.993S34.509,182.1,30.6,167.745,32.156,121.72,32.156,121.72Z" transform="translate(12.303 235.768)" fill="#ff4e4e"/>
        <path id="Path_869" data-name="Path 869" d="M82.05,111.71s17,1,31.723.4,31.723,0,31.723,0-34.5,3.014-43.064,3.014a94.939,94.939,0,0,1-20.382-3.41Z" transform="translate(99.189 219.316)" fill="#efefef"/>
      </g>
    </g>
  </g>
</svg>
