<svg xmlns="http://www.w3.org/2000/svg" width="337" height="337" viewBox="0 0 337 337">
  <g id="Group_564" data-name="Group 564" transform="translate(-19 -350.5)">
    <g id="Group_350" data-name="Group 350" transform="translate(-110.5 44.5)">
      <circle id="Ellipse_108" data-name="Ellipse 108" cx="168.5" cy="168.5" r="168.5" transform="translate(129.5 306)" fill="#262863"/>
      <g id="Layer_x0020_1" transform="translate(129.728 329.886)">
        <path id="Path_505" data-name="Path 505" d="M-625.67,2930.369s.739-3.932-7.5-4.439c-69.052-4.26-30.786-114.5-139.742-84.589-30.636,8.41-97.275-35.007-136.5,38.559-5.129,9.62-51.919,32.111-51.919,32.111s-5.925,74.8,55.173,127.112c30.127.309,227.265,0,227.265,0s23.178-21.393,36.484-48.581S-625.67,2930.369-625.67,2930.369Z" transform="translate(961.487 -2770.242)" fill="#333574"/>
        <path id="Path_506" data-name="Path 506" d="M247.777,7415.367a120.976,120.976,0,0,1-17.395-18.035c-7.547-9.977,27.6-15.838,48.5-13.8,30.287,2.949,55.419,21.477,89.893,15.8s56.061,1.557,63.794,7.264,39.737-1.34,42.1,9.119l-226.891-.35Z" transform="translate(-192.58 -7146.068)" fill="#1c1d4d"/>
        <path id="Path_507" data-name="Path 507" d="M1890.476,2271.234s-20.726-1.013-9.731,62.16c0,0,7.4,21.443-1.939,35.264h137.459v-97.423Z" transform="translate(-1799.691 -2226.599)" fill="#afcdfb"/>
        <path id="Path_508" data-name="Path 508" d="M2482.482,6038.389s-9.6-11.205-.591-18.32c0,0,6.581-3.984,11.948-3.66,0,0-7.6,12.75-5.144,14.02s7.449-14.82,7.449-14.82,14.978-1.451,19.8.865c0,0-12.807,10.477-10.109,11.1s16.527-9.66,16.527-9.66,13.942,2.371,13.2,10.877-5.546,11.133-7.658,10.9-14.461-4.939-14.73-3.207,7.165,7.381,12.371,7.646c0,0-9.828,10.84-16.36,7.713s-7.091-8.088-11.163-9.949-7.547-1.855-5.866.043,9.049,3.74,11.38,7.859,4.417,6.9-2.34,5.879-17.745-5.961-18.228-11.625l-.481-5.662Z" transform="translate(-2377.577 -5829.513)" fill="#3566c9"/>
        <path id="Path_509" data-name="Path 509" d="M2427.073,6381.469s-37.864-1.459-46.227,9.371a27.405,27.405,0,0,1-7.541,10.58l-.886,2.418s6.562-6.92,8.909-7.338C2381.329,6396.5,2377.657,6383.088,2427.073,6381.469Z" transform="translate(-2275.941 -6181.961)" fill="#3566c9"/>
        <path id="Path_510" data-name="Path 510" d="M2173.891,6888.525a23.765,23.765,0,0,0-8.691,16.748l1.475.131s2.6-11.1,7.287-15.447-.07-1.434-.07-1.434Z" transform="translate(-2076.526 -6669.066)" fill="#fe6868"/>
        <path id="Path_511" data-name="Path 511" d="M272.975,5247.086s15.275-8.555,8.146-20.166c0,0-5.7-7.128-11.813-8.962,0,0,3.259,17.314,0,17.72s-2.242-19.553-2.242-19.553-16.091-7.738-22.4-7.128c0,0,9.98,16.906,6.72,16.5s-14.461-17.517-14.461-17.517-16.5-3.057-19.147,6.722,1.63,14.663,4.075,15.274,18.128.407,17.721,2.445-11,5.3-16.907,3.464c0,0,6.519,16.091,15.074,15.273s11.2-6.107,16.5-6.515,9.166,1.017,6.519,2.444-11.611.466-15.887,4.1-7.741,5.877.2,7.507,22.2.61,25.053-5.5l2.852-6.11Z" transform="translate(-201.646 -5052.299)" fill="#6d89d0"/>
        <path id="Path_512" data-name="Path 512" d="M439.23,5479.07S482,5492.921,486.893,5508.4a32.489,32.489,0,0,0,4.073,14.867v3.058s-4.48-10.39-6.925-11.814C484.04,5514.512,493.614,5501.068,439.23,5479.07Z" transform="translate(-415.564 -5313.616)" fill="#6d89d0"/>
        <path id="Path_513" data-name="Path 513" d="M1760.606,6604.052s6.6,10.018,2.836,22.211l-1.7-.457s1.648-13.43-1.8-20.184S1760.606,6604.052,1760.606,6604.052Z" transform="translate(-1685.204 -6394.395)" fill="#6d89d0"/>
        <path id="Path_514" data-name="Path 514" d="M2011.7,4612.189s-20.137-11.277-10.74-26.581c0,0,7.518-9.4,15.574-11.816,0,0-4.3,22.824,0,23.36s2.952-25.774,2.952-25.774,21.212-10.205,29.536-9.4c0,0-13.158,22.285-8.861,21.746s19.063-23.088,19.063-23.088,21.749-4.029,25.24,8.86-2.149,19.329-5.371,20.138-23.9.533-23.359,3.22,14.5,6.979,22.285,4.564c0,0-8.59,21.21-19.869,20.135s-14.767-8.054-21.747-8.591-12.083,1.343-8.593,3.224,15.3.615,20.943,5.407,10.2,7.751-.27,9.9-29.265.8-33.024-7.251Z" transform="translate(-1916.072 -4429.203)" fill="#ff4e4e"/>
        <path id="Path_544" data-name="Path 544" d="M581.138,7092.3s-14.313-36.646-24.349-30.811S581.138,7092.3,581.138,7092.3Z" transform="translate(-518.213 -6850.348)" fill="#1c1d4d"/>
        <path id="Path_545" data-name="Path 545" d="M324.5,7546.092s-18.909-16.34-27.545-13.307S324.5,7546.092,324.5,7546.092Z" transform="translate(-268.648 -7304.142)" fill="#1c1d4d"/>
        <path id="Path_515" data-name="Path 515" d="M2275.559,4918.079s-56.385,18.258-62.829,38.662a42.818,42.818,0,0,1-5.371,19.6v4.027s5.908-13.693,9.129-15.573C2216.489,4964.8,2203.869,4947.076,2275.559,4918.079Z" transform="translate(-2117.098 -4773.753)" fill="#fe6868"/>
        <path id="Path_516" data-name="Path 516" d="M2072.828,6400.943s-8.695,13.2-3.739,29.275l2.238-.6s-2.172-17.7,2.379-26.609S2072.828,6400.943,2072.828,6400.943Z" transform="translate(-1982.567 -6198.354)" fill="#fe6868"/>
        <path id="Path_517" data-name="Path 517" d="M1324.115,7159.924a39.446,39.446,0,0,0,39.446-39.445h-78.89A39.445,39.445,0,0,0,1324.115,7159.924Z" transform="translate(-1229.161 -6893.201)" fill="#ff4e4e"/>
        <path id="Path_518" data-name="Path 518" d="M1456.6,7159.623a39.481,39.481,0,0,1-44.345-39.145h9.8A39.451,39.451,0,0,0,1456.6,7159.623Z" transform="translate(-1351.946 -6893.201)" fill="#fe6868"/>
        <path id="Path_519" data-name="Path 519" d="M1350.161,8096.716H1270.18a4.868,4.868,0,0,1,4.866-4.867h70.248a4.868,4.868,0,0,1,4.867,4.867Z" transform="translate(-1215.217 -7827.984)" fill="#ff4e4e"/>
        <path id="Path_520" data-name="Path 520" d="M1250.19,7121.678h81.085v-1.207H1250.19Z" transform="translate(-1195.98 -6893.193)" fill="#ff4e4e"/>
        <path id="Path_521" data-name="Path 521" d="M6063.975,2641.775s-6.91-13.039,3.443-18c0,0,7.295-2.443,12.461-.949,0,0-10.219,10.772-8.1,12.55s10.521-12.825,10.521-12.825,14.932,1.871,19.123,5.189c0,0-14.791,7.413-12.293,8.613s18.242-5.8,18.242-5.8,13.076,5.374,10.484,13.507-7.85,9.642-9.859,8.957-13.029-7.992-13.67-6.365,5.369,8.776,10.391,10.178c0,0-11.967,8.417-17.652,3.931s-5.141-9.446-8.707-12.154-6.955-3.467-5.736-1.247,8.01,5.636,9.381,10.165,2.795,7.7-3.576,5.223-16-9.711-15.229-15.343l.773-5.63Z" transform="translate(-5826.283 -2564.48)" fill="#ff4e4e"/>
        <path id="Path_522" data-name="Path 522" d="M5885.8,3046.5s-36.625-9.733-47.156-1a27.378,27.378,0,0,1-9.682,8.67l-1.4,2.164s7.924-5.31,10.307-5.2c0,0-.643-13.895,47.93-4.626Z" transform="translate(-5600.956 -2968.202)" fill="#ff7575"/>
        <path id="Path_523" data-name="Path 523" d="M5554.065,3355.8a23.777,23.777,0,0,0-12.155,14.434l1.411.454s4.968-10.264,10.5-13.473S5554.065,3355.8,5554.065,3355.8Z" transform="translate(-5326.055 -3269.837)" fill="#3566c9"/>
        <path id="Path_524" data-name="Path 524" d="M4561.435,1139.967s-20.465-10.672-11.526-26.25c0,0,7.234-9.617,15.214-12.272,0,0-3.616,22.94.7,23.349s2.185-25.852,2.185-25.852,20.9-10.83,29.24-10.272c0,0-12.484,22.667-8.21,22s18.371-23.648,18.371-23.648,21.618-4.673,25.491,8.1-1.571,19.387-4.765,20.288-23.874,1.249-23.256,3.916,14.7,6.546,22.409,3.9c0,0-7.958,21.458-19.262,20.72s-15-7.612-21.994-7.941-12.036,1.7-8.491,3.476,15.314.16,21.1,4.783,10.425,7.441.026,9.9-29.231,1.676-33.229-6.264l-4-7.939Z" transform="translate(-4369.242 -1086.189)" fill="#ff4e4e"/>
        <path id="Path_525" data-name="Path 525" d="M4853.082,1438.26s-55.813,19.928-61.646,40.517a42.838,42.838,0,0,1-4.786,19.751l.121,4.026s5.5-13.863,8.659-15.838C4795.43,1486.716,4782.291,1469.379,4853.082,1438.26Z" transform="translate(-4599.24 -1424.999)" fill="#ff7575"/>
        <path id="Path_526" data-name="Path 526" d="M4666.288,2972.443s-8.3,13.458-2.867,29.375l2.222-.665s-2.7-17.633,1.583-26.667-.937-2.043-.937-2.043Z" transform="translate(-4478.88 -2898.915)" fill="#6d89d0"/>
        <path id="Path_527" data-name="Path 527" d="M2452.729,3451.173h143.515V3264.009H2452.729Z" transform="translate(-2353.227 -3181.983)" fill="#9abcef"/>
        <path id="Path_528" data-name="Path 528" d="M2577.3,3451.173h141.1V3264.009H2577.3Z" transform="translate(-2473.105 -3181.983)" fill="#fff"/>
        <path id="Path_529" data-name="Path 529" d="M8227.1,7414.743h-28.439c-1.518-1.291,1.061-4.227,3.752-4.422a16.647,16.647,0,0,1,4.342.514c.387-5.2,2.625-28.561,11.045-27.621,9.471,1.051,0,10.289-2.678,15.756a129.7,129.7,0,0,0-5.029,12.6c.768.166,1.566.33,2.375.479,1.258-3.854,5.932-16.814,11.867-16.059,6.971.881,4.168,6.078-.771,9.164-3.627,2.271-8.078,5.492-10.2,7.051a30.113,30.113,0,0,0,5.559.445C8223.806,7412.536,8226.179,7413.974,8227.1,7414.743Z" transform="translate(-7946.224 -7146.014)" fill="#ff4e4e"/>
        <path id="Path_530" data-name="Path 530" d="M2408.348,2308.629h-141.1c.781-10.669-.4-18.418-2.28-23.99-3.617-10.713-9.854-13.4-9.854-13.4h133.074c11.357,0,20.165,6.841,22.561,15.924.09.341.175.682.243,1.021C2413.268,2298.577,2408.443,2308.439,2408.348,2308.629Z" transform="translate(-2163.049 -2226.606)" fill="#fff"/>
        <path id="Path_531" data-name="Path 531" d="M2660.114,2651.048h-141.1c.781-10.669-.4-18.418-2.28-23.99,14.422,2.64,50.135,8.267,88.364,7.32,24.731-.614,44.272-2.268,57.66-3.775C2665.034,2641,2660.209,2650.858,2660.114,2651.048Z" transform="translate(-2414.816 -2569.023)" fill="#f8fbff"/>
        <path id="Path_532" data-name="Path 532" d="M3387.75,4320.208h-77.5a.061.061,0,0,1-.062-.06v-3.389a.061.061,0,0,1,.062-.062h77.5a.061.061,0,0,1,.063.062v3.389A.061.061,0,0,1,3387.75,4320.208Z" transform="translate(-3178.391 -4195.023)" fill="#d2e4fd"/>
        <path id="Path_533" data-name="Path 533" d="M3358.485,4476.98h-48.244a.061.061,0,0,1-.062-.061v-3.39a.06.06,0,0,1,.062-.061h48.244a.059.059,0,0,1,.061.061v3.39A.06.06,0,0,1,3358.485,4476.98Z" transform="translate(-3178.382 -4345.891)" fill="#d2e4fd"/>
        <path id="Path_534" data-name="Path 534" d="M3065.719,4325.546v-7.169h-.947c-.574,0-.86-.24-.86-.717q0-.519.675-.731a4.953,4.953,0,0,1,1.1-.174c.5-.036.9-.057,1.21-.057s.482.06.561.181a2.155,2.155,0,0,1,.114.909v7.758h.975c.633,0,.946.271.946.817,0,.573-.313.861-.946.861h-3.929a1.081,1.081,0,0,1-.7-.224.755.755,0,0,1-.278-.624q0-.829.96-.829h1.118Z" transform="translate(-2941.127 -4195.023)" fill="#d2e4fd"/>
        <path id="Path_535" data-name="Path 535" d="M3387.75,5301.6h-77.5a.063.063,0,0,1-.062-.062v-3.391a.06.06,0,0,1,.062-.058h77.5a.06.06,0,0,1,.063.058v3.391A.062.062,0,0,1,3387.75,5301.6Z" transform="translate(-3178.391 -5145.262)" fill="#d2e4fd"/>
        <path id="Path_536" data-name="Path 536" d="M3358.485,5458.361h-48.244a.062.062,0,0,1-.062-.06v-3.393a.062.062,0,0,1,.062-.06h48.244a.06.06,0,0,1,.061.06v3.393A.061.061,0,0,1,3358.485,5458.361Z" transform="translate(-3178.382 -5296.118)" fill="#d2e4fd"/>
        <path id="Path_537" data-name="Path 537" d="M3068.125,5306.779c0,.478-.332.716-1,.716h-4.157c-.6,0-.9-.242-.9-.724a.919.919,0,0,1,.239-.533c.237-.268.583-.674,1.04-1.214q1.037-1.31,1.736-2.256c.161-.213.389-.533.683-.966a2.3,2.3,0,0,0,.369-1.088,1.124,1.124,0,0,0-.318-.818,1.086,1.086,0,0,0-.811-.322,1.26,1.26,0,0,0-.838.3,1.456,1.456,0,0,0-.378.76c-.118.481-.2.761-.229.837a.647.647,0,0,1-.621.407.721.721,0,0,1-.6-.279.958.958,0,0,1-.2-.636,3.038,3.038,0,0,1,.14-.9,2.681,2.681,0,0,1,1.076-1.5,3.116,3.116,0,0,1,1.787-.5,2.759,2.759,0,0,1,1.925.7,2.435,2.435,0,0,1,.8,1.878,3.3,3.3,0,0,1-.568,1.752q-.319.5-1.307,1.75c-.338.433-.87,1.062-1.6,1.88h2.736C3067.8,5306.037,3068.125,5306.284,3068.125,5306.779Z" transform="translate(-2939.617 -5145.251)" fill="#d2e4fd"/>
        <path id="Path_538" data-name="Path 538" d="M3387.75,6120.278h-77.5a.06.06,0,0,1-.062-.062v-3.387a.06.06,0,0,1,.062-.061h77.5a.06.06,0,0,1,.063.061v3.387A.06.06,0,0,1,3387.75,6120.278Z" transform="translate(-3178.391 -5936.011)" fill="#d2e4fd"/>
        <path id="Path_539" data-name="Path 539" d="M3358.485,6277.049h-48.244a.061.061,0,0,1-.062-.059V6273.6a.061.061,0,0,1,.062-.059h48.244a.059.059,0,0,1,.061.059v3.393A.059.059,0,0,1,3358.485,6277.049Z" transform="translate(-3178.382 -6086.876)" fill="#d2e4fd"/>
        <path id="Path_540" data-name="Path 540" d="M3064.026,6113.331a2.72,2.72,0,0,1-.943,2.166,3.331,3.331,0,0,1-2.27.777,3.163,3.163,0,0,1-1.812-.508,2.3,2.3,0,0,1-1.192-1.928.819.819,0,0,1,.207-.559.678.678,0,0,1,.531-.232c.225,0,.436.15.635.455a9.113,9.113,0,0,0,.558.828,1.445,1.445,0,0,0,1.1.453,1.383,1.383,0,0,0,1.3-.676,1.807,1.807,0,0,0,.18-.854q0-1.269-1.489-1.412c-.562-.051-.842-.289-.842-.713a.679.679,0,0,1,.487-.66q.914-.337.926-.35a1.251,1.251,0,0,0,.49-1.129,1.017,1.017,0,0,0-.285-.758,1.048,1.048,0,0,0-.76-.275,1.385,1.385,0,0,0-.931.285,1.847,1.847,0,0,0-.477.842.593.593,0,0,1-.6.453.615.615,0,0,1-.509-.271.986.986,0,0,1-.2-.6,1.65,1.65,0,0,1,.222-.8,2.5,2.5,0,0,1,1.114-1.051,3.269,3.269,0,0,1,1.5-.348,2.624,2.624,0,0,1,1.832.666,2.262,2.262,0,0,1,.732,1.756,2.4,2.4,0,0,1-1.088,2.072,2.347,2.347,0,0,1,1.58,2.371Z" transform="translate(-2935.517 -5926.1)" fill="#d2e4fd"/>
        <path id="Path_541" data-name="Path 541" d="M3875.857,3489.869h-49.376a.071.071,0,0,1-.071-.069v-3.938a.073.073,0,0,1,.071-.071h49.376a.074.074,0,0,1,.071.071v3.938A.072.072,0,0,1,3875.857,3489.869Z" transform="translate(-3675.169 -3395.41)" fill="#bbd5fc"/>
        <path id="Path_542" data-name="Path 542" d="M3569.384,3656.79h-74.346a.071.071,0,0,1-.068-.072v-3.937a.07.07,0,0,1,.068-.071h74.346a.071.071,0,0,1,.069.071v3.937A.072.072,0,0,1,3569.384,3656.79Z" transform="translate(-3356.211 -3556.043)" fill="#bbd5fc"/>
        <path id="Path_546" data-name="Path 546" d="M6377.828,7690.642s4.359-15.152,9.469-13.361S6377.828,7690.642,6377.828,7690.642Z" transform="translate(-6130.49 -7428.89)" fill="#1c1d4d"/>
        <path id="Path_547" data-name="Path 547" d="M6483.45,7873.931s11.121-7.3,13.566-5.045S6483.45,7873.931,6483.45,7873.931Z" transform="translate(-6232.132 -7613.002)" fill="#1c1d4d"/>
        <path id="Path_548" data-name="Path 548" d="M3230.293,7098.629h-86.768a1.057,1.057,0,0,1-1.057-1.055h0a1.058,1.058,0,0,1,1.057-1.055h86.768a1.061,1.061,0,0,1,1.059,1.055h0A1.059,1.059,0,0,1,3230.293,7098.629Z" transform="translate(-3016.988 -6870.143)" fill="#d2e4fd"/>
        <path id="Path_553" data-name="Path 553" d="M3230.293,7098.629h-86.768a1.057,1.057,0,0,1-1.057-1.055h0a1.058,1.058,0,0,1,1.057-1.055h86.768a1.061,1.061,0,0,1,1.059,1.055h0A1.059,1.059,0,0,1,3230.293,7098.629Z" transform="translate(-3016.988 -6884.669)" fill="#d2e4fd"/>
        <path id="Path_549" data-name="Path 549" d="M3230.293,7210.85h-86.768a1.059,1.059,0,0,1-1.057-1.057h0a1.058,1.058,0,0,1,1.057-1.055h86.768a1.061,1.061,0,0,1,1.059,1.055h0A1.061,1.061,0,0,1,3230.293,7210.85Z" transform="translate(-3016.988 -6978.136)" fill="#d2e4fd"/>
        <path id="Path_554" data-name="Path 554" d="M3230.293,7210.85h-86.768a1.059,1.059,0,0,1-1.057-1.057h0a1.058,1.058,0,0,1,1.057-1.055h86.768a1.061,1.061,0,0,1,1.059,1.055h0A1.061,1.061,0,0,1,3230.293,7210.85Z" transform="translate(-3016.988 -6992.662)" fill="#d2e4fd"/>
        <path id="Path_550" data-name="Path 550" d="M3230.293,7335.2h-86.768a1.059,1.059,0,0,1-1.057-1.057h0a1.055,1.055,0,0,1,1.057-1.053h86.768a1.058,1.058,0,0,1,1.059,1.053h0A1.061,1.061,0,0,1,3230.293,7335.2Z" transform="translate(-3016.988 -7097.804)" fill="#d2e4fd"/>
        <path id="Path_555" data-name="Path 555" d="M3230.293,7335.2h-86.768a1.059,1.059,0,0,1-1.057-1.057h0a1.055,1.055,0,0,1,1.057-1.053h86.768a1.058,1.058,0,0,1,1.059,1.053h0A1.061,1.061,0,0,1,3230.293,7335.2Z" transform="translate(-3016.988 -7112.33)" fill="#d2e4fd"/>
        <path id="Path_551" data-name="Path 551" d="M3219.851,7459.569h-77.345a.036.036,0,0,1-.037-.037V7457.5a.035.035,0,0,1,.037-.035h77.345a.036.036,0,0,1,.037.035v2.037A.037.037,0,0,1,3219.851,7459.569Z" transform="translate(-3016.988 -7217.49)" fill="#d2e4fd"/>
        <path id="Path_552" data-name="Path 552" d="M-863.518,8222h-228.493s-.008-.006-.008-.01v-.889c0-.012,0-.018.008-.018h228.493c.006,0,.009.006.009.018v.889A.01.01,0,0,1-863.518,8222Z" transform="translate(1146.218 -7952.356)" fill="#1c1d4d"/>
      </g>
      <g id="Rectangle_355" data-name="Rectangle 355" transform="translate(241.824 491.934) rotate(-19)" fill="none" stroke="#ff4e4e" stroke-width="1">
        <rect width="119.112" height="34.862" stroke="none"/>
        <rect x="0.5" y="0.5" width="118.112" height="33.862" fill="none"/>
      </g>
      <text id="REJECTED" transform="translate(258.345 511.004) rotate(-19)" fill="#ff4e4e" font-size="19" font-family="NunitoSans-Bold, Nunito Sans" font-weight="700"><tspan x="0" y="0">REJECTED</tspan></text>
    </g>
  </g>
</svg>
