<svg xmlns="http://www.w3.org/2000/svg" xmlns:xlink="http://www.w3.org/1999/xlink" width="785.768" height="771.114" viewBox="0 0 785.768 771.114">
  <defs>
    <clipPath id="clip-path">
      <path id="Path_359" data-name="Path 359" d="M705.268,487.541a114.465,114.465,0,0,0-32.895-69.651c-25.3-24.171-63.325-37.955-76.709-72.847s-1.465-69.052-2.6-104.144c-1.665-47.943-22.773-88.562-51.14-126.051C478.8,31.412,362.139,1.048,262.257,10.57,198.665,16.63,130.679,42.133,84.533,87.346c-53.27,52.272-41.884,118.727-28.966,184.982,11.32,58.065,7.192,112.8-18.711,166.47C23.539,466.632,5.693,485.943,11.886,518.7c14.183,75.178,80.971,114.531,151.488,126.517,82.1,14.25,171.065-16.647,253.035,9.655,103.345,33.294,220.407,47.81,273.877-69.851a186.445,186.445,0,0,0,14.982-97.485Z" transform="translate(-10.62 -8.887)" fill="none"/>
    </clipPath>
  </defs>
  <g id="Asset_1" data-name="Asset 1" transform="translate(0.015 -0.006)">
    <g id="Layer_2" data-name="Layer 2" transform="translate(-0.015 0.006)">
      <g id="OBJECTS">
        <g id="Layer_5" data-name="Layer 5">
          <g id="Group_339" data-name="Group 339" transform="translate(12.146)">
            <path id="Path_297" data-name="Path 297" d="M202.847,771.055c116.2-4,168.8-119.859,238.385-193.106,38.555-40.685,84.5-75.577,137.438-93.956s117.661-18.312,151.554-70.583c55.734-86.032-28.1-208.088-112.734-237.653-57.266-19.976-108.871-5.061-161.942-42.55-29.032-20.509-53.8-46.612-81.437-68.719C275.628-15.151,92.444-37.791,23.392,94.586c-30.231,57.932-26.968,129.647-1,189.709,10.654,24.638,24.837,47.81,33.294,73.247C97.5,488.321-44.2,647.134,108.358,744.486A164.806,164.806,0,0,0,202.847,771.055Z" transform="translate(-1.809 -0.006)" fill="#f8f8f8"/>
          </g>
          <path id="Path_298" data-name="Path 298" d="M711.327,495.882a117.461,117.461,0,0,0-36.29-69.784c-26.635-23.572-66.588-36.024-81.7-71.049s-4.728-70.717-7.458-106.541c-3.8-49.009-27.235-89.628-57.932-126.517C459.358,39.421,339.166-9.721,237.153,4.462,172.363,13.451,115.1,33.627,69.884,81.7,17.546,137.638,20.675,237.387,36.59,304.574c14.183,58.864,27.368,112.268,3.329,168.2-12.585,29.1-31.5,52.205-26.635,85.965a165.338,165.338,0,0,0,144.962,142.9c84.633,10.92,187.579-28.3,272.612-4.994,107.207,29.3,218.942-1.931,270.681-104.677C716.188,563.6,717.187,529.908,711.327,495.882Z" transform="translate(70.852 11.477)" fill="none" stroke="#d1dced" stroke-linecap="round" stroke-miterlimit="10" stroke-width="0.5" stroke-dasharray="3 2"/>
          <path id="Path_299" data-name="Path 299" d="M705.268,487.541a114.465,114.465,0,0,0-32.895-69.651c-25.3-24.171-63.325-37.955-76.709-72.847s-1.465-69.052-2.6-104.144c-1.665-47.943-22.773-88.562-51.14-126.051C478.8,31.412,362.139,1.048,262.257,10.57,198.665,16.63,130.679,42.133,84.533,87.346c-53.27,52.272-41.884,118.727-28.966,184.982,11.32,58.065,7.192,112.8-18.711,166.47C23.539,466.632,5.693,485.943,11.886,518.7c14.183,75.178,80.971,114.531,151.488,126.517,82.1,14.25,171.065-16.647,253.035,9.655,103.345,33.294,220.407,47.81,273.877-69.851a186.445,186.445,0,0,0,14.982-97.485Z" transform="translate(60.198 50.249)" fill="#262863"/>
          <path id="Path_300" data-name="Path 300" d="M21.78,111.385c3.329,1.931,6.659,3.729,10.055,5.46H604.026A175.8,175.8,0,0,0,616.678,98.4H21.78Z" transform="translate(123.351 556.785)" fill="#d9ebff"/>
          <path id="Path_301" data-name="Path 301" d="M293.34,241.748H70.2a7.325,7.325,0,0,1-7.258-9.655L100.634,80.938a13.318,13.318,0,0,1,12.052-9.589H335.823a7.258,7.258,0,0,1,7.258,9.589L305.193,232.092A13.318,13.318,0,0,1,293.34,241.748Z" transform="translate(354.131 403.649)" fill="#d9ebff"/>
          <path id="Path_302" data-name="Path 302" d="M311.565,112.264H69.784A11.187,11.187,0,0,1,58.53,97.415V95.95H330.543l-.4,1.465a19.976,19.976,0,0,1-18.578,14.849Z" transform="translate(327.782 542.921)" fill="#c4dff7"/>
          <path id="Path_303" data-name="Path 303" d="M288.6,219.2H64.06L100.417,73.17h224.6Z" transform="translate(362.605 414.013)" fill="#c4dff7"/>
          <path id="Path_304" data-name="Path 304" d="M142.807,153.8h-31.1L103.72,88.61H150.8Z" transform="translate(587.033 501.385)" fill="#d9ebff"/>
          <path id="Path_305" data-name="Path 305" d="M149.266,91.232H121.1l-3.662-4.262h-8.323l-1.6,4.262h-2.264L103.72,97.89H150.8Z" transform="translate(587.033 492.105)" fill="#c4dff7"/>
          <path id="Path_307" data-name="Path 307" d="M73.326,353.707c13.85-15.049,35.025-19.976,54.2-27.234s39.553-18.778,44.414-38.621c3.2-13.318-1-26.635,1.265-39.953,7.658-43.815,66.988-49.874,86.964-84.966,18.844-32.961,13.318-115.2-32.229-125.652C204.5,31.953,183.862,54.66,175.206,73.97c-5.127,11.32-7.391,24.1-14.783,34.16A69.185,69.185,0,0,1,127.6,129.7a133.177,133.177,0,0,0-44.88,23.905C66.4,168.792,65.8,186.9,66.135,208.145c0,19.444-10.588,24.7-20.842,39.553a41.285,41.285,0,0,0-3.4,40.286C48.555,302.767,64.67,314.62,63.871,330.6a30.1,30.1,0,0,1-11.786,20.975A93.822,93.822,0,0,1,30.51,363.628" transform="translate(172.752 206.457)" fill="#d9ebff"/>
          <path id="Path_308" data-name="Path 308" d="M145.981,244.034a61.594,61.594,0,0,1-5.66-36.623c1-6.659,2.863-13.85-1.265-18.911a72.522,72.522,0,0,0-7.857-6.659,19.976,19.976,0,0,1-5.127-13.917c0-5.127.732-10.255.6-15.382a12.652,12.652,0,0,0-4.861-10.787c-3.2-1.931-7.325-1.132-10.854-2.264a14.716,14.716,0,0,1-8.79-10.521,83.365,83.365,0,0,1-1.665-14.117C98.77,97.407,88.183,76.831,72.468,68.242a55,55,0,0,0-41.285-5.527,43.548,43.548,0,0,0-29.7,28.3A35.958,35.958,0,0,0,13.4,129.3a57.8,57.8,0,0,0,14.716,7.125,62.524,62.524,0,0,1,14.849,5.593,12.652,12.652,0,0,1,5.86,9.589,40.751,40.751,0,0,1-2.131,9.655A24.5,24.5,0,0,0,58.018,184.7a110.408,110.408,0,0,0,25.1,11.12,16.314,16.314,0,0,1,10.188,7.458,24.238,24.238,0,0,1,1.065,7.924,19.977,19.977,0,0,0,5.26,13.318c4.728,4.661,12.186,5.793,16.78,10.521a25.769,25.769,0,0,1,5.194,9.922,110.67,110.67,0,0,1,4.994,28.7" transform="translate(0.015 344.762)" fill="#d9ebff"/>
          <path id="Path_310" data-name="Path 310" d="M30.863,319.752c34.426-25.3,68.386-55.534,81.437-97.685,7.125-23.039,5.394-48.609,16.314-70.45,10.055-19.976,29.3-33.294,46.079-47.078s36.89-35.358,34.093-59.929a1.4,1.4,0,0,0-2.73,0c-2.73,48.01-56,63.259-78.308,99.549-11.986,19.51-12.119,42.816-16.447,64.657a138.571,138.571,0,0,1-28.367,59.13,345.121,345.121,0,0,1-52.6,50.807.713.713,0,0,0,.866,1.132Z" transform="translate(170.202 246.204)" fill="#c8e2fc"/>
          <path id="Path_311" data-name="Path 311" d="M3.862,67.284a172.33,172.33,0,0,1,96.42,114,178.656,178.656,0,0,1,4.2,22.973c.932,7.724.8,15.515,1.731,23.173,0,1.465,2.53,2.2,2.863.4a114.465,114.465,0,0,0-2.664-41.418,173.861,173.861,0,0,0-13.651-39.553A170.332,170.332,0,0,0,43.082,86.927,167.871,167.871,0,0,0,4.994,65.419c-1.2-.466-2.064,1.532-.866,2.064Z" transform="translate(20.211 369.758)" fill="#c8e2fc"/>
          <path id="Path_312" data-name="Path 312" d="M12,79.1a47.012,47.012,0,0,1,20.376,2.464,49.346,49.346,0,0,1,9.256,4.461,36.412,36.412,0,0,1,4.2,2.93,37.08,37.08,0,0,0,3.929,3.329c1.065.666,2.464-.666,1.731-1.731a25.9,25.9,0,0,0-8.324-6.659,45.744,45.744,0,0,0-9.922-4.461,46.613,46.613,0,0,0-21.375-1.465c-.533,0-.4,1.132,0,1.065Z" transform="translate(65.276 437.648)" fill="#c8e2fc"/>
          <path id="Path_313" data-name="Path 313" d="M8.435,75.667a53.271,53.271,0,0,1,42.949,9.322c.732.6,1.8-.466,1.065-1.065A44.947,44.947,0,0,0,8.235,74.868a.412.412,0,1,0,.2.8Z" transform="translate(44.937 410.384)" fill="#c8e2fc"/>
          <g id="Group_544" data-name="Group 544" transform="translate(81.461 236.128)">
            <path id="Path_306" data-name="Path 306" d="M70.161,356.84c8.124-16.514,15.715-35.025,10.92-53.27-4-15.582-15.715-27.235-26.635-38.421-10.121-10.055-27.9-24.1-25.237-40.352,1.4-8.656,9.322-14.25,10.987-23.173,5.127-27.1-18.112-46.612-25.5-70.45-6.193-19.976,0-41.751,10.121-59.53,6.659-12.452,16.447-29.632,30.5-34.959,17.513-6.659,28.367,15.582,33.294,28.566A152.087,152.087,0,0,1,96.6,105.6c1,12.119-1.864,28.9,4.461,39.953,4.794,8.124,14.849,11.653,20.376,19.244a31.163,31.163,0,0,1,4.994,17.047,85.5,85.5,0,0,1-5.993,29.632c-8.19,26.1,5.66,50.74,4.994,76.709a120.857,120.857,0,0,1-5.127,27.434L108.516,359.57" transform="translate(-12.218 -35.467)" fill="#d9ebff"/>
            <path id="Path_309" data-name="Path 309" d="M18.7,40.887C15.04,85.567,33.418,127.451,46.536,169.2A268.881,268.881,0,0,1,60.187,235.79a225.865,225.865,0,0,1-5.593,64.857A219.207,219.207,0,0,1,43.34,335.073c-4.928,12.052-11.453,22.973-17.513,34.493a1.536,1.536,0,0,0,2.664,1.532A146.964,146.964,0,0,0,44.8,341.732a228.8,228.8,0,0,0,11.054-30.764,225.2,225.2,0,0,0,8.59-64.257,239.718,239.718,0,0,0-10.255-64.657C47.535,159.746,38.879,138.172,31.82,116A197.966,197.966,0,0,1,20.1,40.887a.766.766,0,0,0-1.532,0Z" transform="translate(21.795 -9.039)" fill="#c8e2fc"/>
            <path id="Path_314" data-name="Path 314" d="M19.47,58.616A58.4,58.4,0,0,1,34.918,70.8a56.663,56.663,0,0,1,6.193,7.658c1.8,2.73,3.263,5.66,5.061,8.39a1.2,1.2,0,0,0,2.2-.932,28.167,28.167,0,0,0-4.528-9.322A58.6,58.6,0,0,0,37.182,68.6,49.609,49.609,0,0,0,19.736,58.15s-.466.333,0,.466Z" transform="translate(28.818 92.89)" fill="#c8e2fc"/>
            <path id="Path_315" data-name="Path 315" d="M19.935,68.3c1.8,1.731,4,3.13,5.86,4.861s3.662,3.529,5.394,5.394a72.382,72.382,0,0,1,9.655,13.384,66.123,66.123,0,0,1,6.193,14.45c1.532,5.061,1.731,10.255,3.063,15.315.333,1.465,2.264,1,2.464,0A41.485,41.485,0,0,0,49.9,105.455a74.248,74.248,0,0,0-6.659-14.716,69.185,69.185,0,0,0-9.722-12.718A43.417,43.417,0,0,0,20.868,67.3c-.666,0-1.4.466-.8,1Z" transform="translate(30.949 144.668)" fill="#c8e2fc"/>
            <path id="Path_316" data-name="Path 316" d="M24.459,48.647A87.763,87.763,0,0,0,20.6,68.624a83.3,83.3,0,0,0,0,9.988A26.635,26.635,0,0,0,22.262,88.4a1.2,1.2,0,0,0,2.2-.6,15.582,15.582,0,0,0-.333-4.661c0-1.731-.533-3.529-.666-5.327a86.169,86.169,0,0,1-.466-9.256,78.041,78.041,0,0,1,2.664-19.976c0-.6-.732-.866-.932,0Z" transform="translate(34.349 35.605)" fill="#c8e2fc"/>
            <path id="Path_317" data-name="Path 317" d="M16.283,48.066A36.091,36.091,0,0,1,31.265,60.451c2.064,2.73,4.062,5.527,5.86,8.457l2.8,4.794a14.183,14.183,0,0,0,3,4.328c.533.4,1.731,0,1.6-.733a12.386,12.386,0,0,0-2.064-5.061c-1-1.8-2-3.529-3.063-5.26a65.724,65.724,0,0,0-6.659-8.989A31.23,31.23,0,0,0,16.283,47.4a.333.333,0,0,0,0,.666Z" transform="translate(8.899 32.058)" fill="#c8e2fc"/>
            <path id="Path_318" data-name="Path 318" d="M34.253,55.608a84.432,84.432,0,0,0-8.79,23.306,86.565,86.565,0,0,0-1.532,11.719,44.281,44.281,0,0,0,0,12.585.8.8,0,0,0,1.532,0c0-3.8-.333-7.724,0-11.586a79.241,79.241,0,0,1,1.465-12.718,84.434,84.434,0,0,1,8.057-22.773c0-.6-.6-1.065-.866-.533Z" transform="translate(51.524 77.187)" fill="#c8e2fc"/>
          </g>
          <path id="Path_319" data-name="Path 319" d="M41.78,60.2a63.125,63.125,0,0,1,6.659,19.577A60.328,60.328,0,0,1,49.9,90.231v10.321a.8.8,0,0,0,1.532,0,42.017,42.017,0,0,0,0-21.108,60.8,60.8,0,0,0-8.39-19.976.4.4,0,0,0-.666.333Z" transform="translate(236.527 335.89)" fill="#c8e2fc"/>
          <path id="Path_320" data-name="Path 320" d="M96.533,59.941A97.953,97.953,0,0,0,65.9,73.725,70.651,70.651,0,0,0,43,97.763c-.666,1.332,1.065,2.93,2.2,1.665,3.529-4,6.659-8.257,10.454-12.119A113.2,113.2,0,0,1,68.033,76.455a91.76,91.76,0,0,1,29.1-14.716.932.932,0,0,0-.466-1.8Z" transform="translate(242.569 339.079)" fill="#c8e2fc"/>
          <path id="Path_321" data-name="Path 321" d="M115.956,73.284A103.277,103.277,0,0,0,73.073,86.6,165.6,165.6,0,0,0,53.63,98.588a62.794,62.794,0,0,0-16.913,14.649,1.332,1.332,0,0,0,1.864,1.8,49.012,49.012,0,0,0,7.524-6.659c2.93-2.53,5.993-4.994,9.056-7.325A131.385,131.385,0,0,1,74.139,89.465a156.478,156.478,0,0,1,20.775-8.523c6.992-2.331,14.25-3.929,21.308-6.193.932,0,.8-1.864,0-1.8Z" transform="translate(206.832 412.767)" fill="#c8e2fc"/>
          <path id="Path_322" data-name="Path 322" d="M131.407,52.953a154.484,154.484,0,0,0-46.612,3c-12.718,2.8-28.1,7.924-36.956,18.045A1.065,1.065,0,0,0,49.1,75.659C54.9,72.53,60.224,69,66.151,65.938a108.2,108.2,0,0,1,19.976-7.058,284.126,284.126,0,0,1,45.08-5.194c.466,0,.466-.666,0-.732Z" transform="translate(269.289 296.26)" fill="#c8e2fc"/>
          <path id="Path_323" data-name="Path 323" d="M58.406,51.569a78.84,78.84,0,0,1-4.794,19.976c-1.132,3.2-2.331,6.659-3.6,9.522a48.147,48.147,0,0,0-3.729,9.589.866.866,0,1,0,1.6.666A41.017,41.017,0,0,0,52.213,81.8a103.68,103.68,0,0,0,3.6-9.922A84.9,84.9,0,0,0,59.338,51.5a.466.466,0,0,0-.932,0Z" transform="translate(261.652 288.854)" fill="#c8e2fc"/>
          <path id="Path_324" data-name="Path 324" d="M10.076,66.423a38.288,38.288,0,0,0,0,12.918A51.742,51.742,0,0,0,11.674,86c.4,1.065.732,2.131,1.2,3.2s.6,1.731,1.6,2.064a.932.932,0,0,0,1-.4c.466-1.065,0-1.731-.4-2.73s-.732-1.8-1.065-2.73a48.876,48.876,0,0,1-1.332-6.193,61.525,61.525,0,0,1-1.2-12.585.669.669,0,0,0-1.332,0Z" transform="translate(54.017 373.549)" fill="#c8e2fc"/>
          <path id="Path_325" data-name="Path 325" d="M17.891,74.456a52.87,52.87,0,0,0-1.265,14.117,30.9,30.9,0,0,0,2.8,13.651.666.666,0,0,0,1.2-.333c0-4.528-1.265-9.056-1.6-13.318a104.609,104.609,0,0,1,0-13.717.534.534,0,0,0-1.065,0Z" transform="translate(93.879 420.718)" fill="#c8e2fc"/>
          <path id="Path_326" data-name="Path 326" d="M13.5,68.614a52.737,52.737,0,0,0,0,19.976,40.62,40.62,0,0,0,3.4,9.522,18.312,18.312,0,0,0,5.926,7.99,1,1,0,0,0,1.4-1.065,48.944,48.944,0,0,0-4.528-7.857,50.208,50.208,0,0,1-3.729-8.989A43.682,43.682,0,0,1,13.7,78.6a45.014,45.014,0,0,1,.4-9.922c0-.6-.8-.866-.866,0Z" transform="translate(71.101 385.475)" fill="#c8e2fc"/>
          <path id="Path_327" data-name="Path 327" d="M191.039,155.436h-114L95.551,81.39H209.484Z" transform="translate(436.056 460.529)" fill="#d9ebff" opacity="0.45"/>
          <path id="Path_328" data-name="Path 328" d="M184.637,89.818,186.5,82.36H81.758l-1.8,7.458Z" transform="translate(452.58 466.018)" fill="#d9ebff" opacity="0.45"/>
          <path id="Path_329" data-name="Path 329" d="M139.828,87.989l.932-3.729H88.422l-.932,3.729Z" transform="translate(495.191 476.769)" fill="#d9ebff" opacity="0.45"/>
          <path id="Path_330" data-name="Path 330" d="M139.568,88.992l.932-3.662H88.162l-.932,3.662Z" transform="translate(493.72 482.824)" fill="#d9ebff" opacity="0.45"/>
          <path id="Path_331" data-name="Path 331" d="M139.318,90.119l.932-3.729h-52.4l-.866,3.729Z" transform="translate(492.305 488.823)" fill="#d9ebff" opacity="0.45"/>
          <path id="Path_332" data-name="Path 332" d="M139.058,91.122l.932-3.662H87.652l-.932,3.662Z" transform="translate(490.834 494.877)" fill="#d9ebff" opacity="0.45"/>
          <path id="Path_333" data-name="Path 333" d="M138.865,92.249l.866-3.729H87.392l-.932,3.729Z" transform="translate(489.362 500.876)" fill="#d9ebff" opacity="0.45"/>
          <path id="Path_334" data-name="Path 334" d="M138.548,93.252l.932-3.662H87.142l-.932,3.662Z" transform="translate(487.948 506.931)" fill="#d9ebff" opacity="0.45"/>
          <path id="Path_335" data-name="Path 335" d="M138.288,94.379l.932-3.729H86.882l-.932,3.729Z" transform="translate(486.476 512.929)" fill="#d9ebff" opacity="0.45"/>
          <path id="Path_336" data-name="Path 336" d="M184.639,151.013h-114L89.152,76.9H203.084Z" transform="translate(399.84 435.12)" fill="#d9ebff"/>
          <path id="Path_337" data-name="Path 337" d="M178.236,85.338,180.1,77.88H75.424L73.56,85.338Z" transform="translate(416.364 440.666)" fill="#d9ebff" opacity="0.45"/>
          <path id="Path_338" data-name="Path 338" d="M133.428,83.442l.932-3.662H82.022l-.932,3.662Z" transform="translate(458.975 451.418)" fill="#d9ebff" opacity="0.45"/>
          <path id="Path_339" data-name="Path 339" d="M133.168,84.569l.932-3.729H81.762l-.932,3.729Z" transform="translate(457.503 457.416)" fill="#d9ebff" opacity="0.45"/>
          <path id="Path_340" data-name="Path 340" d="M132.918,85.572l.932-3.662H81.512l-.932,3.662Z" transform="translate(456.089 463.471)" fill="#d9ebff" opacity="0.45"/>
          <path id="Path_341" data-name="Path 341" d="M132.658,86.7l.932-3.729H81.252L80.32,86.7Z" transform="translate(454.617 469.469)" fill="#d9ebff" opacity="0.45"/>
          <path id="Path_342" data-name="Path 342" d="M132.408,87.7l.932-3.662h-52.4L80.07,87.7Z" transform="translate(453.203 475.524)" fill="#d9ebff" opacity="0.45"/>
          <path id="Path_343" data-name="Path 343" d="M132.148,88.829l.932-3.729H80.742l-.932,3.729Z" transform="translate(451.731 481.523)" fill="#d9ebff" opacity="0.45"/>
          <path id="Path_344" data-name="Path 344" d="M131.955,89.832l.866-3.662H80.482l-.932,3.662Z" transform="translate(450.26 487.578)" fill="#d9ebff" opacity="0.45"/>
          <path id="Path_345" data-name="Path 345" d="M99.337,109.421c7.857-3.13,13.85-9.788,21.641-13.318a38.555,38.555,0,0,1,27.834-.333,97.75,97.75,0,0,1,24.771,13.917,12.653,12.653,0,0,1,4.528,4.661,4.461,4.461,0,0,1-1.465,5.793,13.917,13.917,0,0,1-4.461.533c-5.993.666-8.124,8.457-13.318,11.653a19.31,19.31,0,0,1-11.187,1.864,354.64,354.64,0,0,1-50.407-3.862,22.708,22.708,0,0,1-9.322-3.063" transform="translate(497.794 528.118)" fill="#fff"/>
          <path id="Path_346" data-name="Path 346" d="M50.694,58.841S47.365,92.735,45.5,93.8a72.78,72.78,0,0,1-10.92,2.464s27.035,21.175,42.35,19.244a372.147,372.147,0,0,0,46.612-11.986S112.288,97.2,110.224,96.33s-6.259-39.22-6.259-39.22" transform="translate(195.783 323.133)" fill="#fff"/>
          <path id="Path_347" data-name="Path 347" d="M37.684,118.817C38.15,141.79,51,156.972,67.116,157.771s43.282-1.864,47.81-25.9c6.659-34.493,2.93-71.849-16.647-83.968C81.166,37.313,35.886,27.391,37.684,118.817Z" transform="translate(213.055 233.326)" fill="#fff"/>
          <path id="Path_348" data-name="Path 348" d="M159.374,37.247a2.331,2.331,0,0,0-3.862.8,18.179,18.179,0,0,1-6.659,9.722c1.665-3,3.2-8.656-.4-9.589s-6.659,4.128-11.054,4.2a253.038,253.038,0,0,1-37.556-3.529C69.68,31.321,37.784,54.96,30.859,87.788a76.576,76.576,0,0,0,7.924,52.471c5.46,9.655,13.318,18.378,14.982,29.7a15.848,15.848,0,0,0,2.331,8.39,9.123,9.123,0,0,0,5.061,2.464,139.833,139.833,0,0,0,49.808,3,13.318,13.318,0,0,0,8.124-3,17.047,17.047,0,0,0,3.862-11.453c.8-11.054,5.327-13.318,2.53-24.038-12.052,0-17.779-19.976-16.514-28.167s11.387-13.318,16.381-7.125c3.4,4.128,3.463,11.32,7.791,14.117A16.114,16.114,0,0,0,136.2,108.7a39.952,39.952,0,0,1-1.731-16.514c2.863-12.052,17.579-12.852,25.9-20.842A25.57,25.57,0,0,0,159.374,37.247Z" transform="translate(165.744 206.689)" fill="#202254"/>
          <path id="Path_349" data-name="Path 349" d="M475.271,281.47c-7.791,4.395-59-24.837-124.653-36.956-17.446-32.362-59.929-150.09-73.913-158.147C254.8,73.582,194.2,65.192,161.775,62.728c-28.167-2.131-107.54,3.8-122.056,18.179-24.3,24.1-2.4,116.329,1.8,170.133-5.26,30.5-16.647,32.895-19.976,63.658a236.922,236.922,0,0,0,79.906,28.433c57.665,9.988,118.727-2.264,178.323-1.332-7.857-29.365-8.79-69.984-12.385-103.078,16.98,36.823,51.073,66.055,61.927,66.055,20.443,0,146.161,12.519,148.092,6.126S486.258,286.131,475.271,281.47Z" transform="translate(121.993 352.54)" fill="#ff4e4e"/>
          <path id="Path_350" data-name="Path 350" d="M225.781,151.9C192.154,99.826,127.9,55.811,66.968,90.77,35.205,108.948,20.356,145.7,14.43,182.395c28.766,39.287,76.976,61.794,127.117,70.517,41.618,7.191,84.966,2.8,128.315,0A384.545,384.545,0,0,0,225.781,151.9Z" transform="translate(81.758 442.759)" fill="#1c1d4d"/>
          <path id="Path_351" data-name="Path 351" d="M84.5,75.9a47.672,47.672,0,0,0,8.723-4.661,34.562,34.562,0,0,0,6.659-6.659,30.361,30.361,0,0,1,5.993-6.659,21.507,21.507,0,0,1,4.328-2.064,9.63,9.63,0,0,0,2.464-.8,9.788,9.788,0,0,0,2.064-1,.932.932,0,0,0-.466-1.731,13.317,13.317,0,0,0-4.794.932,16.18,16.18,0,0,0-4.262,2.2,28.166,28.166,0,0,0-6.059,6.193,49.676,49.676,0,0,1-5.993,6.659A83.288,83.288,0,0,1,84.43,74.97v.4Z" transform="translate(477.875 296.084)" fill="#c8e2fc"/>
          <path id="Path_352" data-name="Path 352" d="M87,52.027a234.352,234.352,0,0,1,25.57,1.665,58,58,0,0,1,10.787,1.864,15.515,15.515,0,0,1,8.257,5.593c.8.932,2.131,0,1.665-1.265-2.93-6.126-11.72-7.192-17.579-7.924a125.389,125.389,0,0,0-28.7,0h0Z" transform="translate(492.418 289.329)" fill="#c8e2fc"/>
          <g id="Group_340" data-name="Group 340" transform="translate(70.818 59.136)" clip-path="url(#clip-path)">
            <path id="Path_353" data-name="Path 353" d="M187.2,237.385a117.86,117.86,0,0,0-4.595-43.948,58.73,58.73,0,0,0-27.234-33.694,158.221,158.221,0,0,1-18.511-8.856,16.647,16.647,0,0,1-8.057-17.379,97.826,97.826,0,0,0,4.262-9.855c.932-6.193-4.728-11.32-10.255-14.183-7.458-3.929-15.781-6.193-22.84-10.787a33.827,33.827,0,0,1-6.259-52.338,57.4,57.4,0,0,1,25.17-16.98,50.74,50.74,0,0,1,45.347,9.788A69.318,69.318,0,0,1,187.737,80.1a340.211,340.211,0,0,1,3.13,36.89c3.8,43.415,27.5,55.2,9.722,114.132" transform="translate(405.031 97.172)" fill="#d9ebff"/>
            <path id="Path_354" data-name="Path 354" d="M243,119.495c-4.2-24.038-30.9-66.255-56.467-70.517A57.4,57.4,0,0,0,158.5,54.305c-8.057,3-17.113,0-25.17-1.465A59.929,59.929,0,0,0,90.251,63.095,26.036,26.036,0,0,0,78.2,79.409a23.639,23.639,0,0,0,12.052,21.308,39.953,39.953,0,0,0,30.564,5.793,149.554,149.554,0,0,0,29.1-13.318c9.655-4.595,21.641-7.125,30.83-1.532,6.659,4.262,10.921,12.519,17.979,16.647s17.513,3.263,25.636,6.659c11.387,4.994,16.714,17.846,20.975,29.565" transform="translate(371.738 217.326)" fill="#d9ebff"/>
            <path id="Path_355" data-name="Path 355" d="M81.417,61.829c10.121,6.193,23.705,2.4,34.093-.932A87.3,87.3,0,0,1,151.2,55.1a74.978,74.978,0,0,1,31.563,10.588A101.014,101.014,0,0,1,206.4,87.865c.8,1,2.064,0,1.6-1.265A55.4,55.4,0,0,0,186.56,63.893,74.113,74.113,0,0,0,123.7,55.57a202.086,202.086,0,0,1-20.509,6.259A42.616,42.616,0,0,1,81.95,60.564a.686.686,0,1,0-.533,1.265Z" transform="translate(387.63 235.239)" fill="#c8e2fc"/>
            <path id="Path_356" data-name="Path 356" d="M91.172,35.106A100.282,100.282,0,0,1,115.01,64.87c6.659,11.586,12.519,23.772,18.245,35.824a155.35,155.35,0,0,1,13.983,42.15,179.319,179.319,0,0,1,2,23.106v22.174a1.1,1.1,0,0,0,2.2,0,144.96,144.96,0,0,0-1-44.88A154.284,154.284,0,0,0,136.518,100.1,378.147,378.147,0,0,0,116.142,62.14a97.552,97.552,0,0,0-24.837-27.9s-.8,0-.466.6Z" transform="translate(442.865 134.579)" fill="#c8e2fc"/>
            <path id="Path_357" data-name="Path 357" d="M93.814,44.866c3.263,1.731,6.659,3.4,9.855,4.928s6.659,2.863,10.121,4.528a27.235,27.235,0,0,1,7.591,5.261,42.276,42.276,0,0,1,5.527,7.325c.932,1.332,3.529.533,2.8-1.2A27.967,27.967,0,0,0,116.387,52.39,144.093,144.093,0,0,0,94.213,44c-.533,0-.932.732-.4,1Z" transform="translate(458.735 189.809)" fill="#c8e2fc"/>
            <path id="Path_358" data-name="Path 358" d="M90.86,38.55c6.059,4,13.318,5.26,19.976,8.79a27.9,27.9,0,0,1,8.39,7.391l4.2,5.26a27.034,27.034,0,0,0,4.461,5.061c1.065.733,2-.666,1.6-1.6a29.031,29.031,0,0,0-4.395-5.46L120.825,52.8a25.77,25.77,0,0,0-8.523-7.325c-6.659-3.263-14.716-3.529-21.308-7.125h0Z" transform="translate(443.444 157.837)" fill="#c8e2fc"/>
          </g>
          <circle id="Ellipse_158" data-name="Ellipse 158" cx="9.589" cy="9.589" r="9.589" transform="translate(209.188 171.755)" fill="none" stroke="#1654d3" stroke-linecap="round" stroke-linejoin="round" stroke-width="0.5"/>
          <circle id="Ellipse_159" data-name="Ellipse 159" cx="9.589" cy="9.589" r="9.589" transform="translate(704.67 516.415)" fill="none" stroke="#1654d3" stroke-linecap="round" stroke-linejoin="round" stroke-width="0.5"/>
          <line id="Line_8" data-name="Line 8" y2="18.645" transform="translate(548.588 303.067)" fill="none" stroke="#1654d3" stroke-linecap="round" stroke-linejoin="round" stroke-width="0.5"/>
          <line id="Line_9" data-name="Line 9" x1="18.645" transform="translate(539.266 312.389)" fill="none" stroke="#1654d3" stroke-linecap="round" stroke-linejoin="round" stroke-width="0.5"/>
          <line id="Line_10" data-name="Line 10" y2="18.645" transform="translate(157.449 406.811)" fill="none" stroke="#1654d3" stroke-linecap="round" stroke-linejoin="round" stroke-width="0.5"/>
          <line id="Line_11" data-name="Line 11" x1="18.645" transform="translate(148.127 416.134)" fill="none" stroke="#1654d3" stroke-linecap="round" stroke-linejoin="round" stroke-width="0.5"/>
        </g>
      </g>
    </g>
  </g>
</svg>
