<svg xmlns="http://www.w3.org/2000/svg" width="495" height="495" viewBox="0 0 495 495">
  <g id="nofilter" transform="translate(-198 -297.5)">
    <circle id="Ellipse_119" data-name="Ellipse 119" cx="247.5" cy="247.5" r="247.5" transform="translate(198 297.5)" fill="#fbfbfb"/>
    <g id="surface1" transform="translate(331.8 430.642)">
      <path id="Path_905" data-name="Path 905" d="M238.564,0H0V39.761H238.564ZM19.88,24.85ZM39.761,24.85ZM59.641,24.85ZM79.521,24.85ZM99.4,24.85ZM119.282,24.85ZM139.163,24.85ZM159.043,24.85ZM178.923,24.85ZM198.8,24.85ZM218.684,24.85Zm0,0" fill="#262863"/>
      <path id="Path_906" data-name="Path 906" d="M238.564,64H0L99.4,213.1h39.761Zm0,0" transform="translate(0 -24.239)" fill="#373a9a"/>
      <path id="Path_907" data-name="Path 907" d="M160,304v99.4l28.08-28.08a44.606,44.606,0,0,1,11.68-49.951V304Zm0,0" transform="translate(-60.598 -115.136)" fill="#373a9a"/>
      <path id="Path_908" data-name="Path 908" d="M200,364.8a44.152,44.152,0,0,0,3.23,16.65A44.6,44.6,0,1,0,200,364.8Zm23.642-21.089L244.731,364.8,265.82,343.71,244.731,364.8l21.089,21.089L244.731,364.8l-21.089,21.089L244.731,364.8Zm0,0" transform="translate(-75.748 -121.264)" fill="#ff4e4e"/>
      <path id="Path_909" data-name="Path 909" d="M188.97,35.88A4.97,4.97,0,0,1,184,30.91V20.97a4.97,4.97,0,1,1,9.94,0v9.94A4.97,4.97,0,0,1,188.97,35.88Zm0,0" transform="translate(-69.688 -6.06)" fill="#2f327e"/>
      <path id="Path_910" data-name="Path 910" d="M220.97,35.88A4.97,4.97,0,0,1,216,30.91V20.97a4.97,4.97,0,0,1,9.94,0v9.94A4.97,4.97,0,0,1,220.97,35.88Zm0,0" transform="translate(-81.808 -6.06)" fill="#2f327e"/>
      <path id="Path_911" data-name="Path 911" d="M252.97,35.88A4.97,4.97,0,0,1,248,30.91V20.97a4.97,4.97,0,1,1,9.94,0v9.94A4.97,4.97,0,0,1,252.97,35.88Zm0,0" transform="translate(-93.927 -6.06)" fill="#2f327e"/>
      <path id="Path_912" data-name="Path 912" d="M284.97,35.88A4.97,4.97,0,0,1,280,30.91V20.97a4.97,4.97,0,1,1,9.94,0v9.94A4.97,4.97,0,0,1,284.97,35.88Zm0,0" transform="translate(-106.047 -6.06)" fill="#2f327e"/>
      <path id="Path_913" data-name="Path 913" d="M316.97,35.88A4.97,4.97,0,0,1,312,30.91V20.97a4.97,4.97,0,0,1,9.94,0v9.94A4.97,4.97,0,0,1,316.97,35.88Zm0,0" transform="translate(-118.166 -6.06)" fill="#2f327e"/>
      <path id="Path_914" data-name="Path 914" d="M348.97,35.88A4.97,4.97,0,0,1,344,30.91V20.97a4.97,4.97,0,0,1,9.94,0v9.94A4.97,4.97,0,0,1,348.97,35.88Zm0,0" transform="translate(-130.286 -6.06)" fill="#2f327e"/>
      <path id="Path_915" data-name="Path 915" d="M156.97,35.88A4.97,4.97,0,0,1,152,30.91V20.97a4.97,4.97,0,0,1,9.94,0v9.94A4.97,4.97,0,0,1,156.97,35.88Zm0,0" transform="translate(-57.568 -6.06)" fill="#2f327e"/>
      <path id="Path_916" data-name="Path 916" d="M124.97,35.88A4.97,4.97,0,0,1,120,30.91V20.97a4.97,4.97,0,0,1,9.94,0v9.94A4.97,4.97,0,0,1,124.97,35.88Zm0,0" transform="translate(-45.449 -6.06)" fill="#2f327e"/>
      <path id="Path_917" data-name="Path 917" d="M92.97,35.88A4.97,4.97,0,0,1,88,30.91V20.97a4.97,4.97,0,0,1,9.94,0v9.94A4.97,4.97,0,0,1,92.97,35.88Zm0,0" transform="translate(-33.329 -6.06)" fill="#2f327e"/>
      <path id="Path_918" data-name="Path 918" d="M60.97,35.88A4.97,4.97,0,0,1,56,30.91V20.97a4.97,4.97,0,1,1,9.94,0v9.94A4.97,4.97,0,0,1,60.97,35.88Zm0,0" transform="translate(-21.209 -6.06)" fill="#2f327e"/>
      <path id="Path_919" data-name="Path 919" d="M28.97,35.88A4.97,4.97,0,0,1,24,30.91V20.97a4.97,4.97,0,0,1,9.94,0v9.94A4.97,4.97,0,0,1,28.97,35.88Zm0,0" transform="translate(-9.09 -6.06)" fill="#2f327e"/>
      <path id="Path_920" data-name="Path 920" d="M235.026,402.21a4.972,4.972,0,0,1-3.514-8.484l42.178-42.178a4.971,4.971,0,0,1,7.028,7.028L238.54,400.754A4.97,4.97,0,0,1,235.026,402.21Zm0,0" transform="translate(-87.132 -132.616)" fill="#f1f2f2"/>
      <path id="Path_921" data-name="Path 921" d="M277.24,402.21a4.97,4.97,0,0,1-3.514-1.456l-42.178-42.178a4.971,4.971,0,0,1,7.028-7.028l42.178,42.178a4.972,4.972,0,0,1-3.514,8.484Zm0,0" transform="translate(-87.168 -132.616)" fill="#f1f2f2"/>
    </g>
  </g>
</svg>
