<svg xmlns="http://www.w3.org/2000/svg" width="24.822" height="19.731" viewBox="0 0 24.822 19.731"><defs><style>.a{fill:#ff4e4e;}</style></defs><g transform="translate(-0.63 -3)"><path class="a" d="M20.934,9.413a4.715,4.715,0,0,1,2.309.612l2.21-2.753A20.512,20.512,0,0,0,13.041,3,20.6,20.6,0,0,0,.63,7.262l12.4,15.45.01.02.01-.01,4.153-5.17A4.844,4.844,0,0,1,16,14.346a4.935,4.935,0,0,1,4.933-4.933Z"/><path class="a" d="M29.7,15a3.457,3.457,0,0,0-3.453,3.453h1.727a1.727,1.727,0,0,1,3.453,0,1.765,1.765,0,0,1-.5,1.223l-1.075,1.085A3.446,3.446,0,0,0,28.845,23.2v.434h1.727A2.893,2.893,0,0,1,31.587,21.2l.77-.789a2.752,2.752,0,0,0,.809-1.944A3.474,3.474,0,0,0,29.7,15Zm-.937,11.79H30.64V24.915H28.766V26.79Z" transform="translate(-8.769 -4.107)"/></g></svg>