<svg xmlns="http://www.w3.org/2000/svg" xmlns:xlink="http://www.w3.org/1999/xlink" width="889.644" height="886.799" viewBox="0 0 889.644 886.799">
  <defs>
    <clipPath id="clip-path">
      <path id="Path_359" data-name="Path 359" d="M809.481,559.35a131.637,131.637,0,0,0-37.829-80.1c-29.1-27.8-72.826-43.649-88.218-83.776s-1.685-79.411-2.987-119.768c-1.914-55.136-26.19-101.849-58.812-144.962C549.04,34.792,414.875-.128,300.008,10.823c-73.132,6.969-151.318,36.3-204.386,88.294C34.36,159.231,47.455,235.655,62.311,311.85c13.018,66.776,8.27,129.723-21.518,191.445C25.477,535.3,4.954,557.512,12.076,595.188c16.311,86.456,93.119,131.714,174.215,145.5,94.421,16.388,196.729-19.144,291,11.1,118.849,38.289,253.473,54.983,314.965-80.33a214.416,214.416,0,0,0,17.23-112.11Z" transform="translate(-10.62 -8.887)" fill="none"/>
    </clipPath>
  </defs>
  <g id="Group_341" data-name="Group 341" transform="translate(-80.315 -93.836)">
    <g id="Group_339" data-name="Group 339" transform="translate(80.315 93.836)">
      <path id="Path_297" data-name="Path 297" d="M233.007,886.73c133.628-4.595,194.125-137.84,274.149-222.076,44.339-46.789,97.177-86.916,158.057-108.051S800.526,535.544,839.5,475.43c64.1-98.939-32.316-239.306-129.646-273.306C644,179.15,584.653,196.3,523.62,153.19c-33.388-23.586-61.875-53.6-93.655-79.028C316.707-17.425,106.041-43.462,26.63,108.775c-34.766,66.623-31.014,149.1-1.149,218.17,12.252,28.334,28.564,54.983,38.289,84.236C111.861,561.58-51.1,744.218,124.343,856.175A189.531,189.531,0,0,0,233.007,886.73Z" transform="translate(-1.809 -0.006)" fill="#f8f8f8"/>
    </g>
    <path id="Path_298" data-name="Path 298" d="M816.167,569.97a135.083,135.083,0,0,0-41.735-80.254c-30.631-27.109-76.578-41.429-93.961-81.709s-5.437-81.326-8.577-122.525c-4.365-56.361-31.32-103.074-66.623-145.5C526.4,45.029,388.173-11.485,270.856,4.826c-74.51,10.338-140.367,33.541-192.364,88.83C18.3,157.982,21.9,272.7,40.2,349.962c16.311,67.695,31.474,129.11,3.829,193.436C29.559,576.863,7.811,603.435,13.4,642.26A190.143,190.143,0,0,0,180.111,806.6c97.33,12.559,215.72-32.546,313.51-5.743,123.29,33.694,251.788-2.221,311.289-120.38C821.757,647.85,822.906,609.1,816.167,569.97Z" transform="translate(149.705 107.34)" fill="none" stroke="#d1dced" stroke-linecap="round" stroke-miterlimit="10" stroke-width="0.5" stroke-dasharray="3 2"/>
    <path id="Path_299" data-name="Path 299" d="M809.481,559.35a131.637,131.637,0,0,0-37.829-80.1c-29.1-27.8-72.826-43.649-88.218-83.776s-1.685-79.411-2.987-119.768c-1.914-55.136-26.19-101.849-58.812-144.962C549.04,34.792,414.875-.128,300.008,10.823c-73.132,6.969-151.318,36.3-204.386,88.294C34.36,159.231,47.455,235.655,62.311,311.85c13.018,66.776,8.27,129.723-21.518,191.445C25.477,535.3,4.954,557.512,12.076,595.188c16.311,86.456,93.119,131.714,174.215,145.5,94.421,16.388,196.729-19.144,291,11.1,118.849,38.289,253.473,54.983,314.965-80.33a214.416,214.416,0,0,0,17.23-112.11Z" transform="translate(137.169 152.957)" fill="#262863"/>
    <g id="Group_342" data-name="Group 342" transform="translate(201.402 447.984) rotate(-3)">
      <path id="Path_306" data-name="Path 306" d="M66.636,369.586c9.342-18.991,18.072-40.28,12.559-61.262C74.6,290.4,61.122,277,48.563,264.138c-11.64-11.563-32.086-27.721-29.023-46.406,1.608-9.955,10.721-16.388,12.635-26.649,5.9-31.167-20.829-53.6-29.329-81.019-7.122-22.973,0-48.014,11.64-68.461C22.144,27.283,33.4,7.526,49.559,1.4,69.7-6.258,82.181,19.319,87.848,34.251a174.9,174.9,0,0,1,9.189,46.406c1.149,13.937-2.144,33.235,5.131,45.947,5.514,9.342,17.077,13.4,23.433,22.131a35.838,35.838,0,0,1,5.743,19.6,98.326,98.326,0,0,1-6.892,34.077c-9.419,30.018,6.509,58.352,5.743,88.218a138.987,138.987,0,0,1-5.9,31.55l-13.554,50.541" transform="translate(0 0)" fill="#d9ebff"/>
      <path id="Path_309" data-name="Path 309" d="M.544.861c-4.212,51.384,16.924,99.551,32.01,147.566A309.22,309.22,0,0,1,48.253,225a259.751,259.751,0,0,1-6.433,74.587,252.1,252.1,0,0,1-12.942,39.591C23.211,353.043,15.707,365.6,8.738,378.85a1.767,1.767,0,1,0,3.063,1.761A169.011,169.011,0,0,0,30.563,346.84a263.123,263.123,0,0,0,12.712-35.379,258.984,258.984,0,0,0,9.879-73.9A275.681,275.681,0,0,0,41.36,163.207C33.7,137.553,23.748,112.742,15.63,87.241A227.665,227.665,0,0,1,2.153.862a.881.881,0,0,0-1.761,0Z" transform="translate(46.027 35.764)" fill="#c8e2fc"/>
      <path id="Path_314" data-name="Path 314" d="M0,.536A67.158,67.158,0,0,1,17.766,14.55a65.163,65.163,0,0,1,7.122,8.806c2.068,3.14,3.752,6.509,5.82,9.649a1.378,1.378,0,0,0,2.527-1.072,32.393,32.393,0,0,0-5.207-10.721,67.39,67.39,0,0,0-7.658-9.189A57.052,57.052,0,0,0,.306,0S-.23.383.306.536Z" transform="translate(55.531 173.7)" fill="#c8e2fc"/>
      <path id="Path_315" data-name="Path 315" d="M.1,1.149C2.17,3.14,4.7,4.748,6.841,6.739s4.212,4.059,6.2,6.2a83.24,83.24,0,0,1,11.1,15.392,76.042,76.042,0,0,1,7.122,16.617c1.761,5.82,1.991,11.793,3.523,17.613.383,1.685,2.6,1.149,2.833,0a47.708,47.708,0,0,0-3.063-18.685A85.386,85.386,0,0,0,26.9,26.955a79.563,79.563,0,0,0-11.18-14.626A49.93,49.93,0,0,0,1.174,0C.408,0-.434.536.255,1.149Z" transform="translate(58.416 243.768)" fill="#c8e2fc"/>
      <path id="Path_316" data-name="Path 316" d="M4.614.713A100.93,100.93,0,0,0,.172,23.687a95.8,95.8,0,0,0,0,11.487A30.631,30.631,0,0,0,2.087,46.43a1.378,1.378,0,0,0,2.527-.689,17.919,17.919,0,0,0-.383-5.36c0-1.991-.613-4.059-.766-6.126A99.1,99.1,0,0,1,2.929,23.61,89.749,89.749,0,0,1,5.992.637c0-.689-.842-1-1.072,0Z" transform="translate(63.017 96.179)" fill="#c8e2fc"/>
      <path id="Path_317" data-name="Path 317" d="M.383.766a41.506,41.506,0,0,1,17.23,14.243c2.374,3.14,4.671,6.356,6.739,9.725l3.216,5.514a16.311,16.311,0,0,0,3.446,4.978c.613.459,1.991,0,1.838-.842a14.244,14.244,0,0,0-2.374-5.82c-1.149-2.068-2.3-4.059-3.523-6.05A75.584,75.584,0,0,0,19.3,12.176,35.915,35.915,0,0,0,.383,0a.383.383,0,0,0,0,.766Z" transform="translate(28.576 91.378)" fill="#c8e2fc"/>
      <path id="Path_318" data-name="Path 318" d="M12.386.268A97.1,97.1,0,0,0,2.278,27.07,99.551,99.551,0,0,0,.517,40.548a50.924,50.924,0,0,0,0,14.473.919.919,0,0,0,1.761,0c0-4.365-.383-8.883,0-13.325A91.129,91.129,0,0,1,3.963,27.07,97.1,97.1,0,0,1,13.229.881c0-.689-.689-1.225-1-.613Z" transform="translate(86.258 152.449)" fill="#c8e2fc"/>
    </g>
    <path id="Path_319" data-name="Path 319" d="M41.78,60.326a72.6,72.6,0,0,1,7.658,22.514,69.38,69.38,0,0,1,1.685,12.023v11.87a.919.919,0,0,0,1.761,0,48.321,48.321,0,0,0,0-24.275,69.916,69.916,0,0,0-9.649-22.973.46.46,0,0,0-.766.383Z" transform="translate(344.626 489.024)" fill="#c8e2fc"/>
    <path id="Path_320" data-name="Path 320" d="M104.587,59.943A112.649,112.649,0,0,0,69.361,75.795a81.25,81.25,0,0,0-26.343,27.645c-.766,1.532,1.225,3.369,2.527,1.914,4.059-4.595,7.658-9.5,12.023-13.937A130.177,130.177,0,0,1,71.811,78.934a105.526,105.526,0,0,1,33.465-16.924,1.072,1.072,0,0,0-.536-2.068Z" transform="translate(351.736 492.776)" fill="#c8e2fc"/>
    <path id="Path_321" data-name="Path 321" d="M127.871,73.335A118.772,118.772,0,0,0,78.555,88.65a190.443,190.443,0,0,0-22.361,13.784,72.214,72.214,0,0,0-19.451,16.847,1.532,1.532,0,0,0,2.144,2.067,56.365,56.365,0,0,0,8.653-7.658c3.369-2.91,6.892-5.743,10.415-8.423A151.1,151.1,0,0,1,79.781,91.943a179.956,179.956,0,0,1,23.892-9.8c8.041-2.68,16.388-4.518,24.5-7.122,1.072,0,.919-2.144,0-2.068Z" transform="translate(309.689 579.471)" fill="#c8e2fc"/>
    <path id="Path_322" data-name="Path 322" d="M143.985,53.042a177.659,177.659,0,0,0-53.6,3.446C75.754,59.7,58.064,65.6,47.879,77.24a1.225,1.225,0,0,0,1.455,1.914c6.662-3.6,12.788-7.658,19.6-11.18a124.439,124.439,0,0,1,22.973-8.117,326.753,326.753,0,0,1,51.843-5.973c.536,0,.536-.766,0-.842Z" transform="translate(383.172 442.397)" fill="#c8e2fc"/>
    <path id="Path_323" data-name="Path 323" d="M60.234,51.646A90.669,90.669,0,0,1,54.72,74.619c-1.3,3.676-2.68,7.658-4.135,10.951A55.37,55.37,0,0,0,46.3,96.6a1,1,0,1,0,1.838.766,47.172,47.172,0,0,0,4.978-10.951A119.244,119.244,0,0,0,57.247,75a97.638,97.638,0,0,0,4.059-23.433.536.536,0,0,0-1.072,0Z" transform="translate(374.187 433.684)" fill="#c8e2fc"/>
    <g id="Group_343" data-name="Group 343" transform="translate(118.054 647.625) rotate(-3)">
      <path id="Path_308" data-name="Path 308" d="M167.9,210.571a70.834,70.834,0,0,1-6.509-42.118c1.149-7.658,3.293-15.928-1.455-21.748a83.4,83.4,0,0,0-9.036-7.658,22.973,22.973,0,0,1-5.9-16c0-5.9.842-11.793.689-17.689a14.55,14.55,0,0,0-5.59-12.406c-3.676-2.221-8.424-1.3-12.482-2.6a16.923,16.923,0,0,1-10.108-12.1A95.873,95.873,0,0,1,115.6,62.01c-1.991-20.063-14.167-43.726-32.239-53.6A63.253,63.253,0,0,0,35.879,2.05,50.082,50.082,0,0,0,1.725,34.6,41.352,41.352,0,0,0,15.433,78.628a66.475,66.475,0,0,0,16.924,8.194,71.9,71.9,0,0,1,17.077,6.432,14.55,14.55,0,0,1,6.739,11.027,46.865,46.865,0,0,1-2.45,11.1A28.181,28.181,0,0,0,66.74,142.34a126.973,126.973,0,0,0,28.87,12.788,18.761,18.761,0,0,1,11.716,8.577,27.874,27.874,0,0,1,1.225,9.113,22.973,22.973,0,0,0,6.05,15.316c5.437,5.36,14.014,6.662,19.3,12.1a29.635,29.635,0,0,1,5.973,11.41,127.274,127.274,0,0,1,5.743,33.005" transform="translate(0 0)" fill="#d9ebff"/>
      <path id="Path_311" data-name="Path 311" d="M.355,2.225a198.183,198.183,0,0,1,110.885,131.1,205.458,205.458,0,0,1,4.824,26.419c1.072,8.883.919,17.843,1.991,26.649,0,1.685,2.91,2.527,3.293.459a131.638,131.638,0,0,0-3.063-47.631,199.944,199.944,0,0,0-15.7-45.487,195.886,195.886,0,0,0-57.127-68.92A193.055,193.055,0,0,0,1.656.08C.278-.456-.717,1.842.661,2.454Z" transform="translate(27.33 33.826)" fill="#c8e2fc"/>
      <path id="Path_312" data-name="Path 312" d="M.557,2.016A54.065,54.065,0,0,1,23.99,4.85,56.748,56.748,0,0,1,34.634,9.981a41.878,41.878,0,0,1,4.824,3.369,42.648,42.648,0,0,0,4.518,3.829c1.225.766,2.833-.766,1.991-1.991A29.788,29.788,0,0,0,36.4,7.53,52.608,52.608,0,0,0,24.986,2.4,53.605,53.605,0,0,0,.4.715c-.613,0-.459,1.3,0,1.225Z" transform="translate(88.313 125.698)" fill="#c8e2fc"/>
      <path id="Path_313" data-name="Path 313" d="M.589,3.609A61.262,61.262,0,0,1,49.981,14.33c.842.689,2.068-.536,1.225-1.225A51.69,51.69,0,0,0,.359,2.69a.474.474,0,1,0,.23.919Z" transform="translate(60.791 88.803)" fill="#c8e2fc"/>
      <path id="Path_324" data-name="Path 324" d="M.631.464a44.032,44.032,0,0,0,0,14.856,59.5,59.5,0,0,0,1.838,7.658c.459,1.225.842,2.451,1.378,3.676s.689,1.991,1.838,2.374a1.072,1.072,0,0,0,1.149-.459c.536-1.225,0-1.991-.459-3.14s-.842-2.068-1.225-3.14a56.209,56.209,0,0,1-1.532-7.122A70.755,70.755,0,0,1,2.239.694a.77.77,0,0,0-1.532,0Z" transform="translate(73.077 38.956)" fill="#c8e2fc"/>
      <path id="Path_325" data-name="Path 325" d="M1.517.116A60.8,60.8,0,0,0,.062,16.351a35.532,35.532,0,0,0,3.216,15.7.766.766,0,0,0,1.378-.383c0-5.207-1.455-10.415-1.838-15.316a120.3,120.3,0,0,1,0-15.775.614.614,0,0,0-1.225,0Z" transform="translate(127.021 102.786)" fill="#c8e2fc"/>
      <path id="Path_326" data-name="Path 326" d="M1.1.56a60.649,60.649,0,0,0,0,22.973A46.714,46.714,0,0,0,5,34.484a21.059,21.059,0,0,0,6.815,9.189,1.149,1.149,0,0,0,1.608-1.225,56.286,56.286,0,0,0-5.207-9.036A57.739,57.739,0,0,1,3.931,23.074a50.236,50.236,0,0,1-2.6-11.027A51.767,51.767,0,0,1,1.787.637c0-.689-.919-1-1,0Z" transform="translate(96.196 55.094)" fill="#c8e2fc"/>
    </g>
    <path id="Path_351" data-name="Path 351" d="M84.507,79.439a54.825,54.825,0,0,0,10.032-5.36A39.747,39.747,0,0,0,102.2,66.42a34.917,34.917,0,0,1,6.892-7.658,24.733,24.733,0,0,1,4.978-2.374,11.074,11.074,0,0,0,2.833-.919,11.256,11.256,0,0,0,2.374-1.149,1.072,1.072,0,0,0-.536-1.991,15.315,15.315,0,0,0-5.514,1.072,18.608,18.608,0,0,0-4.9,2.527,32.392,32.392,0,0,0-6.968,7.122,57.126,57.126,0,0,1-6.892,7.658A95.789,95.789,0,0,1,84.43,78.366v.46Z" transform="translate(628.582 442.19)" fill="#c8e2fc"/>
    <path id="Path_352" data-name="Path 352" d="M87,52.16a269.511,269.511,0,0,1,29.406,1.914,66.7,66.7,0,0,1,12.406,2.144,17.842,17.842,0,0,1,9.5,6.433c.919,1.072,2.45,0,1.914-1.455-3.369-7.045-13.478-8.27-20.217-9.113a144.2,144.2,0,0,0-33,0h0Z" transform="translate(645.692 434.242)" fill="#c8e2fc"/>
    <g id="Group_340" data-name="Group 340" transform="translate(147.789 161.844)" clip-path="url(#clip-path)">
      <path id="Path_353" data-name="Path 353" d="M202.677,268.853a135.543,135.543,0,0,0-5.284-50.541,67.541,67.541,0,0,0-31.32-38.748,181.96,181.96,0,0,1-21.289-10.185,19.145,19.145,0,0,1-9.266-19.987,112.5,112.5,0,0,0,4.9-11.334c1.072-7.122-5.437-13.018-11.793-16.311-8.577-4.518-18.149-7.122-26.266-12.406a38.9,38.9,0,0,1-7.2-60.19,66.01,66.01,0,0,1,28.946-19.527,58.352,58.352,0,0,1,52.15,11.257,79.718,79.718,0,0,1,27.032,47.1,391.256,391.256,0,0,1,3.6,42.424c4.365,49.929,31.627,63.483,11.18,131.254" transform="translate(478.408 115.895)" fill="#d9ebff"/>
      <path id="Path_354" data-name="Path 354" d="M267.73,130.091C262.906,102.447,232.2,53.9,202.793,49a66.01,66.01,0,0,0-32.239,6.126c-9.266,3.446-19.681,0-28.946-1.685A68.92,68.92,0,0,0,92.061,65.23,29.942,29.942,0,0,0,78.2,83.992a27.185,27.185,0,0,0,13.861,24.5,45.946,45.946,0,0,0,35.149,6.662,171.99,171.99,0,0,0,33.465-15.316c11.1-5.284,24.888-8.194,35.455-1.761,7.658,4.9,12.559,14.4,20.676,19.144s20.14,3.752,29.483,7.658c13.095,5.743,19.221,20.523,24.122,34" transform="translate(439.237 257.261)" fill="#d9ebff"/>
      <path id="Path_355" data-name="Path 355" d="M81.48,63.3c11.64,7.122,27.262,2.757,39.208-1.072a100.394,100.394,0,0,1,41.046-6.662,86.226,86.226,0,0,1,36.3,12.176,116.167,116.167,0,0,1,27.185,25.5c.919,1.149,2.374,0,1.838-1.455A63.713,63.713,0,0,0,202.4,65.673,85.231,85.231,0,0,0,130.107,56.1a232.408,232.408,0,0,1-23.586,7.2,49.01,49.01,0,0,1-24.428-1.455A.789.789,0,1,0,81.48,63.3Z" transform="translate(457.935 278.336)" fill="#c8e2fc"/>
      <path id="Path_356" data-name="Path 356" d="M91.234,35.235a115.327,115.327,0,0,1,27.415,34.23c7.658,13.325,14.4,27.338,20.982,41.2a178.654,178.654,0,0,1,16.081,48.474,206.222,206.222,0,0,1,2.3,26.573v25.5a1.266,1.266,0,0,0,2.527,0,166.708,166.708,0,0,0-1.149-51.613,177.431,177.431,0,0,0-16-49.622,434.883,434.883,0,0,0-23.433-43.649A112.187,112.187,0,0,0,91.387,34.24s-.919,0-.536.689Z" transform="translate(522.921 159.906)" fill="#c8e2fc"/>
      <path id="Path_357" data-name="Path 357" d="M93.851,45c3.752,1.991,7.658,3.905,11.334,5.667s7.658,3.293,11.64,5.207a31.32,31.32,0,0,1,8.73,6.05,48.62,48.62,0,0,1,6.356,8.424c1.072,1.532,4.059.613,3.216-1.378a32.163,32.163,0,0,0-15.316-15.316A165.711,165.711,0,0,0,94.311,44c-.613,0-1.072.842-.459,1.149Z" transform="translate(541.592 224.886)" fill="#c8e2fc"/>
      <path id="Path_358" data-name="Path 358" d="M90.86,38.58c6.969,4.595,15.316,6.05,22.973,10.108a32.086,32.086,0,0,1,9.649,8.5l4.824,6.05a31.091,31.091,0,0,0,5.131,5.82c1.225.842,2.3-.766,1.838-1.838a33.387,33.387,0,0,0-5.054-6.279l-4.9-5.973a29.635,29.635,0,0,0-9.8-8.424c-7.658-3.752-16.924-4.059-24.5-8.194h0Z" transform="translate(523.602 187.27)" fill="#c8e2fc"/>
    </g>
    <circle id="Ellipse_158" data-name="Ellipse 158" cx="11.027" cy="11.027" r="11.027" transform="translate(306.919 291.359)" fill="none" stroke="#1654d3" stroke-linecap="round" stroke-linejoin="round" stroke-width="0.5"/>
    <circle id="Ellipse_159" data-name="Ellipse 159" cx="11.027" cy="11.027" r="11.027" transform="translate(876.735 687.726)" fill="none" stroke="#1654d3" stroke-linecap="round" stroke-linejoin="round" stroke-width="0.5"/>
    <line id="Line_8" data-name="Line 8" y2="21.442" transform="translate(697.237 442.37)" fill="none" stroke="#1654d3" stroke-linecap="round" stroke-linejoin="round" stroke-width="0.5"/>
    <line id="Line_9" data-name="Line 9" x1="21.442" transform="translate(686.516 453.091)" fill="none" stroke="#1654d3" stroke-linecap="round" stroke-linejoin="round" stroke-width="0.5"/>
    <line id="Line_10" data-name="Line 10" y2="21.442" transform="translate(247.418 561.678)" fill="none" stroke="#1654d3" stroke-linecap="round" stroke-linejoin="round" stroke-width="0.5"/>
    <line id="Line_11" data-name="Line 11" x1="21.442" transform="translate(236.697 572.399)" fill="none" stroke="#1654d3" stroke-linecap="round" stroke-linejoin="round" stroke-width="0.5"/>
    <g id="Layer_x0020_1" transform="translate(256.754 367.739)">
      <path id="Path_360" data-name="Path 360" d="M8883.238,5521.6s-30.879,61.783-62.254,104.426c-12.48,16.975-25.039,30.914-35.762,36.73-10.488,5.689-19.371,14.527-26.723,24.322-19.039,25.361-27.82,57.113-27.82,57.113l-80.219-121.357s2.738-118.629,12.371-138.473c14.035-28.916,20.82-87.346,26.211-98.977,4-8.631,15.426-53.2,16.52-56.479.477-1.41,4.277-3.576,9.215-3.57,3.961,0,10.691,3.828,12.387,11.7,8.574,39.773-1.75,66.008-1.637,67.174,3.031,30.566-6.066,53.256.309,59.266.238.223.68.117,1.3-.281,11.059-7.1,79.7-107.164,88.152-109.324C8824.219,5351.593,8883.238,5521.6,8883.238,5521.6Z" transform="translate(-8555.556 -5281.237)" fill="#fff"/>
      <path id="Path_361" data-name="Path 361" d="M4450.424,20049.508s-2.27,15.883-5.4,88.508c0,0-52.572,8.3-98.213,4.766s-95.646-26.281-95.646-26.281c46.252-98.633,83.529-173.789,83.529-173.789S4445.535,19997.953,4450.424,20049.508Z" transform="translate(-4251.166 -19610.566)" fill="#ff4e4e"/>
      <path id="Path_362" data-name="Path 362" d="M18332.082,3545.521l-24.844,36.416-24.383,35.738a5.548,5.548,0,0,1-5.055,2.237c-5.859-.556-13.086-8.992-18.734-13.663l-.57-.47a17.609,17.609,0,0,1-2.344-24.705l37.266-45.036v0l11.047-13.356a17.6,17.6,0,0,1,24.711-2.337l.57.471A17.612,17.612,0,0,1,18332.082,3545.521Z" transform="translate(-17934.262 -3514.243)" fill="#fff"/>
      <path id="Path_363" data-name="Path 363" d="M19385.773,4410.749l-24.383,35.74a5.581,5.581,0,0,1-5.07,2.234l15.625-83.873C19371.977,4365.321,19374.641,4402.954,19385.773,4410.749Z" transform="translate(-19012.783 -4343.054)" fill="#e8e8e8"/>
      <path id="Path_364" data-name="Path 364" d="M11836.5,17959.078c-12.484,16.977-25.043,30.922-35.762,36.734-10.492,5.688-28.957,29.492-36.3,39.289a115.764,115.764,0,0,0-20.238-26.68c-12.266-9.8-9.609-23.3,1.625-29.328a2.58,2.58,0,0,0,.32-.18c10.531-6.016,21.316-27.3,21.316-27.3Z" transform="translate(-11571.067 -17614.287)" fill="#e8e8e8"/>
      <path id="Path_366" data-name="Path 366" d="M12117.887,3783.5h-139.758a25.069,25.069,0,0,1-25-24.992V3451.3a25.069,25.069,0,0,1,25-24.992h139.758a25.067,25.067,0,0,1,25,24.992v307.206A25.066,25.066,0,0,1,12117.887,3783.5Z" transform="translate(-11781.526 -3426.311)" fill="#1c1d4d"/>
      <path id="Path_367" data-name="Path 367" d="M12529.105,3825.91V4126a18.5,18.5,0,0,1-18.371,18.507h-134.2a18.491,18.491,0,0,1-18.367-18.507V3825.91a18.493,18.493,0,0,1,18.367-18.509h134.2A18.5,18.5,0,0,1,12529.105,3825.91Z" transform="translate(-12177.152 -3798.551)" fill="#c4dff7"/>
      <path id="Path_369" data-name="Path 369" d="M14537.8,3534.388h-56.09a8.327,8.327,0,0,1-8.3-8.31v-1.3a8.324,8.324,0,0,1,8.3-8.3h56.09a8.331,8.331,0,0,1,8.3,8.3v1.3A8.333,8.333,0,0,1,14537.8,3534.388Z" transform="translate(-14243.268 -3514.376)" fill="#1c1d4d"/>
      <path id="Path_370" data-name="Path 370" d="M18975.684,9274.084l-3.7,1.41-24.906,9.465a15.674,15.674,0,0,1-1.766.563,17.015,17.015,0,0,1-20.117-10.391l-.367-.961a17.018,17.018,0,0,1,9.836-21.883l23.219-8.828,1.688-.641,3.711-1.41a17,17,0,0,1,21.875,9.832l.367.957A17,17,0,0,1,18975.684,9274.084Z" transform="translate(-18590.24 -9105.286)" fill="#fff"/>
      <path id="Path_373" data-name="Path 373" d="M19257.672,11202.387l-19.211,5.234a11.03,11.03,0,0,1-13.5-7.727l-.6-2.176a11.041,11.041,0,0,1,7.727-13.5l19.211-5.227a11.037,11.037,0,0,1,13.508,7.723l.586,2.172A11.027,11.027,0,0,1,19257.672,11202.387Z" transform="translate(-18883.52 -10998.568)" fill="#fff"/>
      <path id="Path_378" data-name="Path 378" d="M18896.25,7327.4c-.133.049-.281.1-.414.141l-25.18,6.465c-11.078,2.846-22.531-3.145-25.453-13.312l-1.492-5.211c-2.812-9.762,3.219-19.971,13.508-23.279l8.32-2.139,16.867-4.326c11.07-2.85,22.531,3.145,25.453,13.311l1.5,5.211C18912.125,7313.887,18906.289,7323.945,18896.25,7327.4Z" transform="translate(-18511.408 -7195.412)" fill="#fff"/>
      <path id="Path_381" data-name="Path 381" d="M11263.266,8861.49s-5.5-47.961-10.566-57.312-9.355-28.082-1.559-42,10.5-40.7,10.5-40.7c3.027,30.57-6.07,53.262.3,59.27.242.219.68.117,1.309-.281Z" transform="translate(-11091.66 -8598.507)" fill="#e8e8e8"/>
      <path id="Path_382" data-name="Path 382" d="M8506.371,7083.756h127.277a2.55,2.55,0,0,0,2.633-2.461v-15.684a2.549,2.549,0,0,0-2.633-2.461H8506.371a2.552,2.552,0,0,0-2.633,2.461v15.684A2.553,2.553,0,0,0,8506.371,7083.756Z" transform="translate(-8304.014 -6816.826)" fill="#7ec4ff"/>
      <path id="Path_384" data-name="Path 384" d="M12976.91,15524.477h-42.059a5.871,5.871,0,0,1-5.871-5.867v-8.895a5.871,5.871,0,0,1,5.871-5.867h42.059a5.87,5.87,0,0,1,5.867,5.867v8.895A5.87,5.87,0,0,1,12976.91,15524.477Z" transform="translate(-12686.217 -15227.429)" fill="#262863"/>
      <path id="Path_385" data-name="Path 385" d="M18250.242,12968.906l-136.117-2.148c-15.773-5.582-60.594-19.3-75.891-38.094-3.227-3.977-15.086-38.3-24.187-66.164-5.687-17.406-10.312-32.3-11.086-35.719a42.946,42.946,0,0,1-.562-6.742v-.031c-.383-11.395.141-33.367.68-50.824v-.078l.016-.23c.023-.773.047-1.527.078-2.273v-.254c.094-3.027.2-5.887.289-8.488.234-6.5.43-11.383.508-13.3l.031-.891h0c.234-.133,7.375-3.941,16.922,2.934,2.3,1.66,4.43,5.672,6.375,10.906,1.234,3.344,2.4,7.18,3.492,11.227,4.164,15.555,7.148,34.156,8.742,39.133,2.578,8.047,32.922,43.438,34.82,45.637a1.336,1.336,0,0,0,.086.109v-55.887l-22.906-61.281-9.406-25.16-4.719-12.648a227.6,227.6,0,0,1-13.328-26.211,124.743,124.743,0,0,1-6.609-19.383c-.367-1.52-.672-3.027-.906-4.5v0c-.906-5.4-.953-10.414.273-14.5,2.219-7.266,7.211-8.633,11.047-8.484.4.008.789.043,1.148.086a8.441,8.441,0,0,1,1.109.215,7.722,7.722,0,0,1,1.906.8c.016,0,.016,0,.016,0a7.949,7.949,0,0,1,2.492,2.328s3.227,4.23,7.57,9.914c2.859,3.742,6.2,8.113,9.406,12.324,5.719,7.508,11.008,14.508,12.469,16.559,7.883,11.094,29.1,47.242,29.1,47.242l24.844,1.039a16.471,16.471,0,0,1,10.539,4.422c8.836,8.246,27.883,26.094,30.211,28.75,0,.867,14.8,7.984,26.234,14.32,8.172,3.453,23.7,15.7,23.7,15.7,3.219,2.844,5.672,5.672,6.914,8.375,5.32,11.59,19.766,112.387,26.68,162.211C18244.438,12965.859,18250.125,12968.074,18250.242,12968.906Z" transform="translate(-17690.178 -12411.908)" fill="#fff"/>
      <path id="Path_386" data-name="Path 386" d="M21913.7,16478.406s23.008,37.563,26.055,39.242c3.047,1.7,14.891,4.07,16.242,0C21957.344,16513.594,21913.7,16478.406,21913.7,16478.406Z" transform="translate(-21510.771 -16175.292)" fill="#e8e8e8"/>
      <path id="Path_387" data-name="Path 387" d="M24800.57,17995.766c-.031-.039-.078-.07-.109-.109,0,0-15.531-12.242-23.711-15.7-10.5-5.82-23.82-12.289-25.953-13.992,2.445,2.789,19.586,22.188,26.172,23.633C24782.75,17990.883,24795.914,17994.477,24800.57,17995.766Z" transform="translate(-24281.986 -17628.307)" fill="#e8e8e8"/>
      <path id="Path_388" data-name="Path 388" d="M21110.1,20095.527v-55.891s13.273,22.2,14.289,34.383C21125.418,20086.2,21118.871,20105.926,21110.1,20095.527Z" transform="translate(-20725.834 -19653.816)" fill="#e8e8e8"/>
      <path id="Path_391" data-name="Path 391" d="M2445.667,13657.4H2564.1a5.358,5.358,0,0,1,5.382,5.3v16.039a4.921,4.921,0,0,1-4.942,4.867h-.954l1.789,7.438-11.23-7.437h-108.8a5.353,5.353,0,0,1-5.376-5.3v-15.3A5.67,5.67,0,0,1,2445.667,13657.4Z" transform="translate(-2310.338 -13444.926)" fill="#e9f5ff"/>
      <path id="Path_397" data-name="Path 397" d="M13309.156,4573.915l-.883.635-.891-.629a1.087,1.087,0,0,1,1.773-.006Z" transform="translate(-12974.426 -4556.1)" fill="#fff"/>
      <path id="Path_398" data-name="Path 398" d="M13191.98,4429.519a2.634,2.634,0,0,0-2.152,1.119l.563.4a1.942,1.942,0,0,1,3.172-.014l.555-.4A2.625,2.625,0,0,0,13191.98,4429.519Z" transform="translate(-12858.134 -4413.704)" fill="#fff"/>
      <path id="Path_399" data-name="Path 399" d="M12970.773,4155.811a5.561,5.561,0,0,0-4.555,2.363l.563.395a4.88,4.88,0,0,1,7.961-.031l.559-.4A5.561,5.561,0,0,0,12970.773,4155.811Z" transform="translate(-12636.922 -4142.935)" fill="#fff"/>
      <path id="Path_400" data-name="Path 400" d="M13091.125,4305.61a3.981,3.981,0,0,0-3.242,1.674l.559.395a3.3,3.3,0,0,1,5.355-.023l.559-.4A3.984,3.984,0,0,0,13091.125,4305.61Z" transform="translate(-12757.284 -4291.125)" fill="#fff"/>
      <path id="Path_401" data-name="Path 401" d="M18666.871,22920.047l-18.242,18.82-24.68-3.273-19-3.281c-12.164-6.094-46.07-3.8-71.266-38.094-3.25-3.977-15.1-38.3-24.211-66.172h0c1.211,3.7,26.633,57.836,33.867,63.984s52.945,37.891,63.438,37.523c10.164-.344,56.594-8.711,59.953-9.477A.908.908,0,0,0,18666.871,22920.047Z" transform="translate(-18185.607 -22377.465)" fill="#e8e8e8"/>
      <path id="Path_402" data-name="Path 402" d="M22393.4,26471.523s-6.937,4.063-47.93,7.578-96.984-9.344-96.984-9.344a618.4,618.4,0,0,0,62.2-12.094.474.474,0,0,0,.141-.039c27.313-6.906,55.406-11.086,70.688-4.812l.094.172Z" transform="translate(-21829.563 -25915.049)" fill="#ff4e4e"/>
      <path id="Path_403" data-name="Path 403" d="M18009.051,18654.008l.016-.016c3.844-1.4,9.242-2.336,11.852,2.063,4.094,6.828-11.094,67.016-12.984,74.578Z" transform="translate(-17695.717 -18322.498)" fill="#e8e8e8"/>
      <g id="checklist" transform="translate(219.035 62.538)">
        <circle id="Ellipse_162" data-name="Ellipse 162" cx="49.942" cy="49.942" r="49.942" transform="translate(0 0)" fill="#cee8ff"/>
        <circle id="Ellipse_160" data-name="Ellipse 160" cx="41.811" cy="41.811" r="41.811" transform="translate(8.131 8.131)" fill="#bce0ff"/>
        <circle id="Ellipse_161" data-name="Ellipse 161" cx="34.444" cy="34.444" r="34.444" transform="translate(15.497 15.497)" fill="#84c5ff"/>
        <path id="Path_408" data-name="Path 408" d="M57.838,78.354a4.077,4.077,0,0,1-2.928-1.239L41.652,63.456a4.079,4.079,0,1,1,5.855-5.682L57.735,68.312,76.236,47.9a4.08,4.08,0,1,1,6.048,5.478L60.866,77.018a4.084,4.084,0,0,1-2.959,1.337Z" transform="translate(-11.976 -12.512)" fill="#fff"/>
      </g>
    </g>
    <text id="_" data-name="*******" transform="translate(447.315 605.334)" fill="#97cefe" font-size="23" font-family="NunitoSans-Regular, Nunito Sans" letter-spacing="0.1em"><tspan x="-43.125" y="0">*******</tspan></text>
    <text id="Verified_" data-name="Verified!!!" transform="translate(520.315 552.334)" fill="#ff4e4e" font-size="15" font-family="NunitoSans-Bold, Nunito Sans" font-weight="700" letter-spacing="0.1em"><tspan x="-39.09" y="0">Verified!!!</tspan></text>
  </g>
</svg>
