<svg xmlns="http://www.w3.org/2000/svg" width="394" height="394" viewBox="0 0 394 394">
  <g id="payment_successful" data-name="payment successful" transform="translate(-99 -110)">
    <g id="Group_543" data-name="Group 543" transform="translate(99 110)">
      <circle id="Ellipse_163" data-name="Ellipse 163" cx="197" cy="197" r="197" fill="#262863"/>
      <g id="purchase" transform="translate(16.486 1.951)">
        <g id="Background_x0020_Complete" transform="translate(53.757)">
          <g id="_2554850006096" transform="translate(0.465 204.068)">
            <g id="Group_352" data-name="Group 352">
              <g id="Group_351" data-name="Group 351">
                <path id="Path_556" data-name="Path 556" d="M1408.958,3815.538s-7.688,2.034-1.223,18.628,11.259,24.968,11.259,24.968,1.06,3.808-2.082,4.066-9.824-1.507-11.578,2.13c-1.819,3.771.653,7.749,6.092,11.568s17.049,12.624,18.1,13.424c1.028.786,1.955,2.6-.157,3.12s-17.548.578-17.083,7.9,17.367,15.474,19.2,16.4,2.205,1.779,1.945,2.81-5.451.56-9.84.756-9.446,1.193-8.823,5.4,10.148,13.859,35.133,18.87l11.729,1.563,7.4-9.3c14.632-20.862,14.867-34.424,12.419-37.9s-6.8-.706-10.11,2.18-6.748,6.807-7.646,6.24-1.217-1.441-.531-3.375,7.3-19.492,2.586-25.114-15.93,4.982-17.818,6.063-2.468-.873-2.266-2.151c.206-1.3,2.537-15.685,3.841-22.2s.348-11.1-3.57-12.577c-3.778-1.423-7.4,4.466-9.851,6.445s-4.312-1.509-4.312-1.509-2.308-9.37-9.073-25.843-13.891-12.511-13.891-12.511Z" transform="translate(-1404.742 -3815.171)" fill="#4b4da1"/>
              </g>
            </g>
            <g id="Group_355" data-name="Group 355" transform="translate(9.98 15.237)">
              <g id="Group_354" data-name="Group 354">
                <g id="Group_353" data-name="Group 353">
                  <path id="Path_557" data-name="Path 557" d="M1615.722,4184.738c-4.921-12.117-13.306-33.8-20.6-52.381s-13.912-35.382-18.771-47.522c-2.431-6.059-4.4-10.965-5.77-14.373-.676-1.686-1.2-3-1.566-3.909q-.257-.656-.4-1.021c-.088-.23-.125-.352-.125-.352s.06.112.159.338l.432,1.006c.378.9.927,2.208,1.63,3.884,1.412,3.374,3.42,8.271,5.879,14.33,4.921,12.117,11.579,28.914,18.872,47.486s15.642,40.277,20.5,52.418l-.241.1Z" transform="translate(-1568.49 -4065.18)" fill="#dfdfdf"/>
                </g>
              </g>
            </g>
            <g id="Group_358" data-name="Group 358" transform="translate(9.841 53.002)">
              <g id="Group_357" data-name="Group 357">
                <g id="Group_356" data-name="Group 356">
                  <path id="Path_558" data-name="Path 558" d="M1566.215,4684.825a4,4,0,0,1,.8.312c.5.22,1.224.56,2.11.987,1.769.858,4.181,2.105,6.819,3.531l6.74,3.674,2.048,1.1a4.025,4.025,0,0,1,.738.433,3.766,3.766,0,0,1-.8-.3c-.5-.221-1.225-.56-2.105-1-1.761-.875-4.156-2.154-6.794-3.58l-6.762-3.623-2.055-1.09a3.851,3.851,0,0,1-.735-.439Z" transform="translate(-1566.214 -4684.823)" fill="#dfdfdf"/>
                </g>
              </g>
            </g>
            <g id="Group_361" data-name="Group 361" transform="translate(29.97 39.802)">
              <g id="Group_360" data-name="Group 360">
                <g id="Group_359" data-name="Group 359">
                  <path id="Path_559" data-name="Path 559" d="M1896.49,4490.812c-.091-.044,2.262-5.132,5.257-11.363s5.5-11.248,5.589-11.2-2.262,5.132-5.257,11.364S1896.582,4490.856,1896.49,4490.812Z" transform="translate(-1896.488 -4468.244)" fill="#dfdfdf"/>
                </g>
              </g>
            </g>
            <g id="Group_364" data-name="Group 364" transform="translate(39.886 74.326)">
              <g id="Group_363" data-name="Group 363">
                <g id="Group_362" data-name="Group 362">
                  <path id="Path_560" data-name="Path 560" d="M2059.192,5051.774a4.121,4.121,0,0,1,.551-.679l1.585-1.766c1.336-1.5,3.174-3.564,5.117-5.925s3.639-4.548,4.85-6.145c.57-.751,1.05-1.385,1.436-1.891a4.027,4.027,0,0,1,.562-.67,3.981,3.981,0,0,1-.445.752c-.307.471-.762,1.144-1.343,1.963-1.16,1.639-2.821,3.863-4.776,6.226s-3.822,4.415-5.209,5.865c-.7.724-1.268,1.3-1.673,1.689a3.758,3.758,0,0,1-.654.579Z" transform="translate(-2059.191 -5034.7)" fill="#dfdfdf"/>
                </g>
              </g>
            </g>
            <g id="Group_367" data-name="Group 367" transform="translate(19.815 86.931)">
              <g id="Group_366" data-name="Group 366">
                <g id="Group_365" data-name="Group 365">
                  <path id="Path_561" data-name="Path 561" d="M1729.859,5241.528a3.519,3.519,0,0,1,.8.094l2.161.394c1.821.346,4.331.849,7.1,1.427s5.271,1.123,7.078,1.535c.842.2,1.556.367,2.136.506a3.374,3.374,0,0,1,.774.234,3.446,3.446,0,0,1-.8-.094q-.882-.163-2.16-.393c-1.821-.347-4.332-.851-7.1-1.429s-5.269-1.122-7.077-1.534l-2.137-.507a3.368,3.368,0,0,1-.774-.234Z" transform="translate(-1729.859 -5241.52)" fill="#dfdfdf"/>
                </g>
              </g>
            </g>
            <g id="Group_370" data-name="Group 370" transform="translate(25.312 113.674)">
              <g id="Group_369" data-name="Group 369">
                <g id="Group_368" data-name="Group 368">
                  <path id="Path_562" data-name="Path 562" d="M1820.059,5680.329a5.877,5.877,0,0,1,1.026.132l2.771.492c2.336.431,5.558,1.052,9.113,1.759s6.77,1.368,9.094,1.863c1.108.246,2.031.449,2.747.607a5.539,5.539,0,0,1,1,.271,5.638,5.638,0,0,1-1.026-.132l-2.77-.49c-2.336-.432-5.559-1.053-9.115-1.76s-6.769-1.368-9.093-1.865c-1.109-.243-2.031-.447-2.747-.605A5.33,5.33,0,0,1,1820.059,5680.329Z" transform="translate(-1820.059 -5680.323)" fill="#dfdfdf"/>
                </g>
              </g>
            </g>
            <g id="Group_373" data-name="Group 373" transform="translate(50.478 96.359)">
              <g id="Group_372" data-name="Group 372">
                <g id="Group_371" data-name="Group 371">
                  <path id="Path_563" data-name="Path 563" d="M2232.974,5418.372a6.229,6.229,0,0,1,.676-.878l1.93-2.313c1.627-1.956,3.865-4.664,6.25-7.723s4.48-5.88,5.98-7.936c.721-.985,1.319-1.8,1.777-2.432a6.555,6.555,0,0,1,.687-.869,6.355,6.355,0,0,1-.568.951c-.386.6-.958,1.455-1.684,2.5-1.446,2.095-3.507,4.948-5.9,8.011s-4.662,5.752-6.341,7.665c-.843.955-1.532,1.72-2.02,2.238A6.521,6.521,0,0,1,2232.974,5418.372Z" transform="translate(-2232.973 -5396.221)" fill="#dfdfdf"/>
                </g>
              </g>
            </g>
          </g>
          <g id="_2554866819904" transform="translate(176.432 219.484)">
            <g id="Group_386" data-name="Group 386">
              <g id="Group_385" data-name="Group 385">
                <g id="Group_384" data-name="Group 384">
                  <g id="Group_374" data-name="Group 374">
                    <path id="Path_564" data-name="Path 564" d="M4351.682,4211l-58.771-97.274a6.382,6.382,0,0,1,2.162-8.765l59.434-35.909a6.386,6.386,0,0,1,8.767,2.163l58.77,97.275a6.382,6.382,0,0,1-2.162,8.764l-59.433,35.909a6.384,6.384,0,0,1-8.766-2.162Z" transform="translate(-4291.989 -4068.129)" fill="#ebebeb"/>
                  </g>
                  <g id="Group_375" data-name="Group 375" transform="translate(94.117 83.577)">
                    <path id="Path_565" data-name="Path 565" d="M5849.489,5455.642a8.724,8.724,0,1,1,2.957-11.979,8.724,8.724,0,0,1-2.957,11.979Z" transform="translate(-5836.251 -5439.449)" fill="#fff"/>
                  </g>
                  <g id="Group_376" data-name="Group 376" transform="translate(99.135 92.156)">
                    <path id="Path_566" data-name="Path 566" d="M5927.746,5598.518a9.256,9.256,0,0,1-2.208-.27,9.082,9.082,0,1,1,2.207.271Zm-.031-17.457h0a8.322,8.322,0,1,0,2,.244,8.254,8.254,0,0,0-2-.244Z" transform="translate(-5918.583 -5580.22)" fill="#fff"/>
                  </g>
                  <g id="Group_377" data-name="Group 377" transform="translate(22.415 32.429)">
                    <path id="Path_567" data-name="Path 567" d="M4666.148,4602.254l-6,3.627-.373-.616,5.456-3.295-.856-1.417.549-.333Z" transform="translate(-4659.77 -4600.22)" fill="#fff"/>
                    <path id="Path_568" data-name="Path 568" d="M4688.463,4678.059l-.549.333-2.545-4.212.439-.265,3.951,1.021a2.34,2.34,0,0,0,1.973-.091c.693-.421.827-1.169.273-2.088a2.385,2.385,0,0,0-1.659-1.233l.113-.665a3.152,3.152,0,0,1,2.144,1.608c.735,1.219.584,2.363-.42,2.97a2.877,2.877,0,0,1-2.474.149l-3.24-.829,2,3.3Z" transform="translate(-4683.809 -4666.554)" fill="#fff"/>
                    <path id="Path_569" data-name="Path 569" d="M4767.216,4798.176l-.726-1.2-1.578.955-.374-.618,1.58-.953-2.05-3.389.447-.27,5.9.776.415.687-5.734-.728,1.576,2.606,1.391-.838.362.6-1.39.839.726,1.2Z" transform="translate(-4757.711 -4780.969)" fill="#fff"/>
                    <path id="Path_570" data-name="Path 570" d="M4858.465,4949.217l-.724-1.2-1.578.954-.374-.618,1.578-.953-2.048-3.389.447-.269,5.9.775.415.688-5.732-.729,1.576,2.608,1.39-.838.363.6-1.39.839.725,1.2Z" transform="translate(-4843.401 -4922.804)" fill="#fff"/>
                    <path id="Path_571" data-name="Path 571" d="M4904.54,5022.913c-1.021.615-2.248.388-3.136-1.081a3.628,3.628,0,0,1-.528-2.619l.67,0a3.032,3.032,0,0,0,.42,2.265c.617,1.021,1.44,1.261,2.17.819.771-.466.962-1.236.04-2.762l-.773-1.28,3.2-1.511,1.986,3.285-.549.333-1.659-2.745-2.037.95.468.772c1.093,1.81.8,2.926-.268,3.569Z" transform="translate(-4886.114 -4991.363)" fill="#fff"/>
                    <path id="Path_572" data-name="Path 572" d="M4966.826,5123.964a2.186,2.186,0,0,1-3.082-.937c-.963-1.595-.382-3.131,1.515-4.277,2.041-1.232,3.779-.759,4.765.871a3.231,3.231,0,0,1,.535,1.621l-.648.052a2.457,2.457,0,0,0-.422-1.336c-.782-1.3-2.117-1.625-3.747-.642-.136.084-.3.2-.474.321a2.238,2.238,0,0,1,2.138,1.215A2.121,2.121,0,0,1,4966.826,5123.964Zm-.385-.6h0a1.543,1.543,0,0,0,.383-2.294,1.544,1.544,0,1,0-2.572,1.612A1.536,1.536,0,0,0,4966.441,5123.368Z" transform="translate(-4944.788 -5086.494)" fill="#fff"/>
                    <path id="Path_573" data-name="Path 573" d="M5044.753,5247.658c-1,.607-2.216.344-3.093-1.105a3.648,3.648,0,0,1-.534-2.629l.672,0a3.068,3.068,0,0,0,.428,2.282c.6.994,1.4,1.265,2.143.813.722-.436.888-1.226.214-2.34l-.26-.432.454-.273,3.091.405-1.856-3.071.55-.332,2.334,3.859-.439.266-3.162-.408c.709,1.329.42,2.382-.542,2.962Z" transform="translate(-5017.817 -5201.928)" fill="#fff"/>
                    <path id="Path_574" data-name="Path 574" d="M5107.992,5357.634a2.187,2.187,0,0,1-3.084-.936c-.964-1.6-.38-3.131,1.516-4.277,2.042-1.232,3.778-.759,4.764.871a3.212,3.212,0,0,1,.535,1.621l-.648.052a2.462,2.462,0,0,0-.421-1.338c-.783-1.295-2.118-1.624-3.748-.641-.137.084-.3.2-.473.32a2.244,2.244,0,0,1,2.139,1.215,2.124,2.124,0,0,1-.578,3.112Zm-.386-.6h0a1.541,1.541,0,0,0,.385-2.292,1.546,1.546,0,1,0-2.575,1.613,1.536,1.536,0,0,0,2.191.679Z" transform="translate(-5077.35 -5305.923)" fill="#fff"/>
                    <path id="Path_575" data-name="Path 575" d="M5164.278,5429.649l-.439.264-7.086.852-.4-.67,6.949-.825-1.866-3.089-1.123.679-.369-.608,1.672-1.011Z" transform="translate(-5126.085 -5374.958)" fill="#fff"/>
                    <path id="Path_576" data-name="Path 576" d="M5249.417,5570.54l-.437.265-7.086.851-.4-.67,6.948-.826-1.866-3.089-1.124.681-.368-.609,1.674-1.012Z" transform="translate(-5206.037 -5507.26)" fill="#fff"/>
                    <path id="Path_577" data-name="Path 577" d="M5301.956,5680.146c-1.066.643-2.271.142-3.135-1.291s-.74-2.716.324-3.358a1.751,1.751,0,0,1,2.176.268,1.581,1.581,0,0,1,.75-1.742c.979-.592,2.09-.127,2.857,1.143s.672,2.486-.306,3.078a1.592,1.592,0,0,1-1.9-.162,1.769,1.769,0,0,1-.765,2.067Zm-.377-.641h0c.738-.445.817-1.359.176-2.423s-1.485-1.412-2.223-.966-.832,1.358-.187,2.42S5300.834,5679.957,5301.579,5679.5Zm.664-2.719h0c.564.935,1.322,1.238,1.974.845.679-.411.732-1.249.188-2.15s-1.308-1.235-1.977-.831S5301.679,5675.851,5302.243,5676.786Z" transform="translate(-5259.334 -5608.338)" fill="#fff"/>
                    <path id="Path_578" data-name="Path 578" d="M5357.938,5775.217c-2.043,1.234-3.78.76-4.764-.869a3.184,3.184,0,0,1-.535-1.621l.647-.052a2.478,2.478,0,0,0,.421,1.339c.783,1.294,2.119,1.624,3.748.638.137-.082.3-.194.474-.319a2.243,2.243,0,0,1-2.139-1.215,2.124,2.124,0,0,1,.578-3.113,2.184,2.184,0,0,1,3.083.938c.964,1.594.38,3.129-1.515,4.274Zm.679-1.57h0a1.632,1.632,0,0,0,.329-2.365,1.534,1.534,0,1,0-2.575,1.615A1.625,1.625,0,0,0,5358.617,5773.646Z" transform="translate(-5310.411 -5698.41)" fill="#fff"/>
                    <path id="Path_579" data-name="Path 579" d="M5450.108,5899.813l-6,3.629-.373-.62,5.456-3.295-.856-1.415.55-.332Z" transform="translate(-5395.951 -5818.698)" fill="#fff"/>
                    <path id="Path_580" data-name="Path 580" d="M5472.415,5975.592l-.551.331-2.544-4.211.438-.264,3.952,1.019a2.334,2.334,0,0,0,1.972-.091c.7-.42.828-1.17.273-2.086a2.379,2.379,0,0,0-1.66-1.234l.114-.666a3.147,3.147,0,0,1,2.143,1.609c.735,1.218.585,2.363-.419,2.971a2.9,2.9,0,0,1-2.476.148l-3.24-.829,2,3.3Z" transform="translate(-5419.981 -5885.005)" fill="#fff"/>
                    <path id="Path_581" data-name="Path 581" d="M5535.805,6060.417c-1,.606-2.217.344-3.091-1.105a3.648,3.648,0,0,1-.536-2.628l.671,0a3.077,3.077,0,0,0,.429,2.281c.6,1,1.4,1.264,2.144.814.721-.437.888-1.226.213-2.344l-.26-.43.455-.273,3.091.405-1.855-3.069.549-.333,2.331,3.86-.437.264-3.163-.408C5537.055,6058.784,5536.765,6059.837,5535.805,6060.417Z" transform="translate(-5478.942 -5965.152)" fill="#fff"/>
                  </g>
                  <g id="Group_378" data-name="Group 378" transform="translate(42.592 85.235)">
                    <path id="Path_582" data-name="Path 582" d="M4993.439,5466.649l-2.609,1.576,29.068,48.111,2.607-1.576Z" transform="translate(-4990.83 -5466.649)" fill="#fff"/>
                  </g>
                  <g id="Group_379" data-name="Group 379" transform="translate(51.543 111.817)">
                    <path id="Path_583" data-name="Path 583" d="M5140.316,5902.82l-2.606,1.576,14.906,24.676,2.611-1.576Z" transform="translate(-5137.71 -5902.82)" fill="#fff"/>
                  </g>
                  <g id="Group_380" data-name="Group 380" transform="translate(33.286 20.066)">
                    <path id="Path_584" data-name="Path 584" d="M4846.594,4421.512l-7.851-13a4.2,4.2,0,0,1,1.423-5.767l7.89-4.767a4.2,4.2,0,0,1,5.768,1.424l7.852,13a4.2,4.2,0,0,1-1.424,5.769l-7.887,4.766a4.2,4.2,0,0,1-5.771-1.422Z" transform="translate(-4838.136 -4397.376)" fill="#dfdfdf"/>
                  </g>
                  <g id="Group_381" data-name="Group 381" transform="translate(35.894 21.29)">
                    <path id="Path_585" data-name="Path 585" d="M4880.929,4421.248l.968-.583,6.278,10.393a2.542,2.542,0,0,0,4.351-2.629l-6.279-10.395.968-.584,6.279,10.395a3.672,3.672,0,1,1-6.285,3.8l-6.279-10.4Z" transform="translate(-4880.929 -4417.45)" fill="#ebebeb"/>
                  </g>
                  <g id="Group_382" data-name="Group 382" transform="translate(46.439 35.95)">
                    <path id="Path_586" data-name="Path 586" d="M5053.959,4658.584l.969-.584,4.31,7.133-.968.584Z" transform="translate(-5053.959 -4658)" fill="#ebebeb"/>
                  </g>
                  <g id="Group_383" data-name="Group 383" transform="translate(56.194 13.386)">
                    <path id="Path_587" data-name="Path 587" d="M5245.375,4342.37l-31.365-51.919,4.455-2.691,31.365,51.919Z" transform="translate(-5214.009 -4287.76)" fill="#fff"/>
                  </g>
                </g>
              </g>
            </g>
          </g>
          <g id="_2554866798688" transform="translate(0 0)">
            <g id="Group_388" data-name="Group 388">
              <g id="Group_387" data-name="Group 387">
                <path id="Path_588" data-name="Path 588" d="M1489.127,466.85c-.64,9.143.005,26.167-3.327,34.705s-7.77,17.334-16.1,21.153c-10.259,4.7-22.316,2.71-33.26,5.465-17.154,4.317-29.556,20.054-34.851,36.932s-4.708,34.961-4.07,52.638l87.549,12.148s.46-35.575,8.1-45.283,43.907-18.448,55.888-45.039c10.782-23.928,14.034-61.878,14.034-61.878l-73.957-10.842Z" transform="translate(-1397.111 -466.85)" fill="#57598a"/>
              </g>
            </g>
            <g id="Group_389" data-name="Group 389" transform="translate(109.317 17.557)">
              <path id="Path_589" data-name="Path 589" d="M3194.85,761.4l-1.128-2.09a4.019,4.019,0,0,1-.48-.034l-1.606-.2-.235,1.9-.631-.078.739-5.976,2.238.277c1.519.188,2.346,1.07,2.188,2.35a1.867,1.867,0,0,1-1.6,1.71l1.205,2.229-.691-.085Zm.452-3.932h0c.119-.956-.445-1.58-1.641-1.728l-1.589-.2-.37,3,1.589.2c1.2.148,1.895-.328,2.011-1.267Z" transform="translate(-3190.77 -754.92)" fill="#dfdfdf"/>
              <path id="Path_590" data-name="Path 590" d="M3296.334,773.4l-.067.547-4.227-.522.738-5.976,4.1.507-.067.546-3.467-.428-.262,2.125,3.089.382-.066.538-3.09-.382-.274,2.22Z" transform="translate(-3285.868 -766.686)" fill="#dfdfdf"/>
              <path id="Path_591" data-name="Path 591" d="M3382.166,785.621a3.024,3.024,0,0,1,3.509-2.652,2.915,2.915,0,0,1,2.078,1.141l-.451.351a2.382,2.382,0,0,0-1.679-.927,2.5,2.5,0,1,0-.613,4.952,2.364,2.364,0,0,0,1.856-.5l.351.451a2.93,2.93,0,0,1-2.3.608A3.021,3.021,0,0,1,3382.166,785.621Z" transform="translate(-3370.476 -781.233)" fill="#dfdfdf"/>
              <path id="Path_592" data-name="Path 592" d="M3490.2,797.352l-.067.547-4.226-.522.738-5.976,4.1.506-.068.547-3.465-.428-.263,2.125,3.09.382-.066.538-3.09-.382-.275,2.22Z" transform="translate(-3467.921 -789.177)" fill="#dfdfdf"/>
              <path id="Path_593" data-name="Path 593" d="M3580.358,802.98l.632.079-.74,5.976-.631-.078Z" transform="translate(-3555.921 -800.051)" fill="#dfdfdf"/>
              <path id="Path_594" data-name="Path 594" d="M3627.083,810.818c-.158,1.272-1.174,1.927-2.693,1.738l-1.605-.2-.233,1.887-.632-.078.738-5.976,2.239.277c1.52.188,2.345,1.07,2.188,2.35Zm-.632-.078h0c.118-.956-.446-1.58-1.642-1.729l-1.588-.2-.369,2.988,1.586.2c1.2.148,1.9-.32,2.012-1.26Z" transform="translate(-3595.642 -804.943)" fill="#dfdfdf"/>
              <path id="Path_595" data-name="Path 595" d="M3715.561,818.966l-2.1-.26.068-.547,4.832.6-.067.547-2.1-.26-.671,5.43-.631-.078Z" transform="translate(-3681.603 -814.306)" fill="#dfdfdf"/>
            </g>
            <g id="Group_391" data-name="Group 391" transform="translate(98.248 33.776)">
              <g id="Group_390" data-name="Group 390">
                <path id="Path_596" data-name="Path 596" d="M3044.715,1025.9c-.017.121-7.992-.867-17.812-2.2s-17.771-2.521-17.754-2.642,7.991.867,17.813,2.206,17.769,2.521,17.752,2.642Z" transform="translate(-3009.149 -1021.046)" fill="#dfdfdf"/>
              </g>
            </g>
            <g id="Group_393" data-name="Group 393" transform="translate(97.29 40.904)">
              <g id="Group_392" data-name="Group 392">
                <path id="Path_597" data-name="Path 597" d="M3029.005,1142.853c-.016.121-7.992-.866-17.812-2.205s-17.771-2.521-17.754-2.642,7.991.867,17.813,2.206,17.769,2.521,17.752,2.642Z" transform="translate(-2993.44 -1137.996)" fill="#dfdfdf"/>
              </g>
            </g>
            <g id="Group_395" data-name="Group 395" transform="translate(94.029 48.172)">
              <g id="Group_394" data-name="Group 394">
                <path id="Path_598" data-name="Path 598" d="M2975.495,1262.113c-.016.121-7.991-.866-17.812-2.2s-17.771-2.521-17.754-2.642,7.991.867,17.814,2.206,17.769,2.521,17.752,2.642Z" transform="translate(-2939.929 -1257.256)" fill="#dfdfdf"/>
              </g>
            </g>
            <g id="Group_397" data-name="Group 397" transform="translate(88.091 55.505)">
              <g id="Group_396" data-name="Group 396">
                <path id="Path_599" data-name="Path 599" d="M2878.065,1382.423c-.016.121-7.992-.867-17.812-2.205s-17.77-2.521-17.754-2.642,7.99.866,17.813,2.206,17.769,2.521,17.753,2.642Z" transform="translate(-2842.5 -1377.566)" fill="#dfdfdf"/>
              </g>
            </g>
            <g id="Group_399" data-name="Group 399" transform="translate(78.641 62.822)">
              <g id="Group_398" data-name="Group 398">
                <path id="Path_600" data-name="Path 600" d="M2723.006,1502.483c-.017.121-7.993-.866-17.813-2.2s-17.77-2.521-17.754-2.642,7.991.867,17.814,2.205,17.769,2.521,17.752,2.642Z" transform="translate(-2687.439 -1497.626)" fill="#dfdfdf"/>
              </g>
            </g>
            <g id="Group_401" data-name="Group 401" transform="translate(141.073 39.563)">
              <g id="Group_400" data-name="Group 400">
                <path id="Path_601" data-name="Path 601" d="M3720.514,1117.448a44.064,44.064,0,0,1-8.687-1.414,44.1,44.1,0,0,1,8.686,1.415Z" transform="translate(-3711.827 -1116.001)" fill="#dfdfdf"/>
              </g>
            </g>
            <g id="Group_403" data-name="Group 403" transform="translate(140.764 45.917)">
              <g id="Group_402" data-name="Group 402">
                <path id="Path_602" data-name="Path 602" d="M3715.434,1221.7a44.033,44.033,0,0,1-8.687-1.414,44.105,44.105,0,0,1,8.687,1.414Z" transform="translate(-3706.747 -1220.251)" fill="#dfdfdf"/>
              </g>
            </g>
            <g id="Group_405" data-name="Group 405" transform="translate(138.607 54.697)">
              <g id="Group_404" data-name="Group 404">
                <path id="Path_603" data-name="Path 603" d="M3680.052,1365.767a22.451,22.451,0,0,1-4.384-.508,26.024,26.024,0,0,1-4.3-.906,18.723,18.723,0,0,1,4.374.471,22.082,22.082,0,0,1,4.313.943Z" transform="translate(-3671.365 -1364.306)" fill="#dfdfdf"/>
              </g>
            </g>
            <g id="Group_407" data-name="Group 407" transform="translate(135.493 62.138)">
              <g id="Group_406" data-name="Group 406">
                <path id="Path_604" data-name="Path 604" d="M3628.954,1487.867a22.49,22.49,0,0,1-4.385-.508,26.147,26.147,0,0,1-4.3-.906,18.7,18.7,0,0,1,4.374.471,21.945,21.945,0,0,1,4.313.944Z" transform="translate(-3620.266 -1486.406)" fill="#dfdfdf"/>
              </g>
            </g>
            <g id="Group_409" data-name="Group 409" transform="translate(128.796 69.21)">
              <g id="Group_408" data-name="Group 408">
                <path id="Path_605" data-name="Path 605" d="M3519.062,1603.9a22.513,22.513,0,0,1-4.384-.508,25.994,25.994,0,0,1-4.3-.906,18.778,18.778,0,0,1,4.374.471,21.943,21.943,0,0,1,4.313.944Z" transform="translate(-3510.376 -1602.44)" fill="#dfdfdf"/>
              </g>
            </g>
            <g id="Group_411" data-name="Group 411" transform="translate(52.71 69.057)">
              <g id="Group_410" data-name="Group 410">
                <path id="Path_606" data-name="Path 606" d="M2315.393,1607.489c-.017.121-11.988-1.474-26.736-3.561s-26.695-3.877-26.677-4,11.986,1.473,26.738,3.561,26.692,3.877,26.675,4Z" transform="translate(-2261.98 -1599.925)" fill="#dfdfdf"/>
              </g>
            </g>
            <g id="Group_413" data-name="Group 413" transform="translate(42.381 74.969)">
              <g id="Group_412" data-name="Group 412">
                <path id="Path_607" data-name="Path 607" d="M2150.051,1706.069a3.038,3.038,0,0,1-.592-.048l-1.684-.223-6.181-.9-20.363-3.138c-7.95-1.254-15.142-2.417-20.344-3.288l-6.155-1.062c-.726-.134-1.287-.237-1.669-.32a2.924,2.924,0,0,1-.574-.149,3.092,3.092,0,0,1,.591.062l1.68.238,6.177.923,20.362,3.16,20.343,3.266,6.159,1.038,1.671.3a3.027,3.027,0,0,1,.578.136Z" transform="translate(-2092.489 -1696.937)" fill="#dfdfdf"/>
              </g>
            </g>
            <g id="Group_415" data-name="Group 415" transform="translate(32.298 82.212)">
              <g id="Group_414" data-name="Group 414" transform="translate(0 0)">
                <path id="Path_608" data-name="Path 608" d="M1983.521,1824.506a10.01,10.01,0,0,1-2.2-.195c-1.436-.183-3.51-.47-6.071-.841-5.121-.743-12.188-1.816-19.988-3.036s-14.86-2.357-19.965-3.2l-6.042-1.024-1.638-.3a2.871,2.871,0,0,1-.567-.134,2.838,2.838,0,0,1,.581.047l1.652.219,6.064.885,19.984,3.073,19.967,3.163,8.224,1.344Z" transform="translate(-1927.049 -1815.769)" fill="#dfdfdf"/>
              </g>
            </g>
            <g id="Group_417" data-name="Group 417" transform="translate(117.608 79.271)">
              <g id="Group_416" data-name="Group 416" transform="translate(0 0)">
                <path id="Path_609" data-name="Path 609" d="M3335.5,1768.978a22.525,22.525,0,0,1-4.384-.509,26.071,26.071,0,0,1-4.3-.906,18.722,18.722,0,0,1,4.374.471,22.028,22.028,0,0,1,4.313.944Z" transform="translate(-3326.817 -1767.516)" fill="#dfdfdf"/>
              </g>
            </g>
            <g id="Group_419" data-name="Group 419" transform="translate(108.981 84.069)">
              <g id="Group_418" data-name="Group 418">
                <path id="Path_610" data-name="Path 610" d="M3193.953,1847.707a22.464,22.464,0,0,1-4.385-.508,26.1,26.1,0,0,1-4.3-.906,18.655,18.655,0,0,1,4.374.471A22.061,22.061,0,0,1,3193.953,1847.707Z" transform="translate(-3185.266 -1846.246)" fill="#dfdfdf"/>
              </g>
            </g>
            <g id="Group_421" data-name="Group 421" transform="translate(97.37 92.158)">
              <g id="Group_420" data-name="Group 420">
                <path id="Path_611" data-name="Path 611" d="M3003.433,1980.427a22.51,22.51,0,0,1-4.385-.508,26.19,26.19,0,0,1-4.3-.906,18.682,18.682,0,0,1,4.374.471A22.018,22.018,0,0,1,3003.433,1980.427Z" transform="translate(-2994.746 -1978.966)" fill="#dfdfdf"/>
              </g>
            </g>
            <g id="Group_423" data-name="Group 423" transform="translate(17.828 96.222)">
              <g id="Group_422" data-name="Group 422">
                <path id="Path_612" data-name="Path 612" d="M1755.657,2055.815c-.018.121-14.815-2.057-33.045-4.862s-33-5.177-32.982-5.3,14.812,2.056,33.049,4.862S1755.676,2055.695,1755.657,2055.815Z" transform="translate(-1689.63 -2045.651)" fill="#dfdfdf"/>
              </g>
            </g>
            <g id="Group_425" data-name="Group 425" transform="translate(53.397 118.895)">
              <g id="Group_424" data-name="Group 424">
                <path id="Path_613" data-name="Path 613" d="M2294.844,2421.183c-.019.12-4.87-.564-10.832-1.529s-10.782-1.844-10.763-1.964,4.869.564,10.833,1.529S2294.863,2421.063,2294.844,2421.183Z" transform="translate(-2273.249 -2417.676)" fill="#dfdfdf"/>
              </g>
            </g>
          </g>
        </g>
        <g id="Character" transform="translate(0 61.577)">
          <path id="Path_616" data-name="Path 616" d="M1782.018,1729.471l.065,3.393s1.377,26.251,1.293,30.181-13.246,26.453-13.246,26.453l8.038,13.171,19.3-34.715-4.625-37.236-.113-.92-10.716-.329Z" transform="translate(-1693.639 -1714.095)" fill="#ffbd9c"/>
          <path id="Path_617" data-name="Path 617" d="M1928.116,1515.621c-.071-.276-2.637-9.561-2.637-9.561l-10.2,5.881c-.017.854,3.042,7.735,3.042,7.735l1.761,1.824s8.822-.932,9.014-1.021a40.078,40.078,0,0,0-.979-4.857Z" transform="translate(-1829.942 -1504.301)" fill="#ffbd9c"/>
          <path id="Path_618" data-name="Path 618" d="M2047.417,1497.61c.021.006.057.077.1.2.387,1.035,1.516,5.7,1,6.041-.578.386-2.258.432-2.525-.151s-1.243-5.907-1.243-5.907-.1-.851,1.232-1.408C2046.809,1496.044,2047.417,1497.61,2047.417,1497.61Z" transform="translate(-1951.524 -1495.172)" fill="#ffbd9c"/>
          <path id="Path_619" data-name="Path 619" d="M1994.657,1482c.021,0,.057.077.1.2.387,1.035,1.516,5.7,1,6.041-.578.386-2.258.433-2.525-.151s-1.244-5.906-1.244-5.906-.1-.851,1.233-1.408c.823-.344,1.432,1.223,1.432,1.223Z" transform="translate(-1901.978 -1480.514)" fill="#ffbd9c"/>
          <path id="Path_620" data-name="Path 620" d="M1946.407,1479.852c.021,0,.057.077.1.2.387,1.035,1.516,5.7,1,6.041-.578.386-2.259.433-2.526-.151s-1.243-5.906-1.243-5.906-.1-.852,1.231-1.409C1945.8,1478.284,1946.407,1479.852,1946.407,1479.852Z" transform="translate(-1856.67 -1478.495)" fill="#ffbd9c"/>
          <path id="Path_621" data-name="Path 621" d="M1898.627,1478.47c.021,0,.056.077.1.2.387,1.035,1.516,5.7,1,6.041-.578.386-2.258.433-2.525-.151s-1.244-5.906-1.244-5.906-.1-.852,1.231-1.409C1898.018,1476.9,1898.627,1478.47,1898.627,1478.47Z" transform="translate(-1811.801 -1477.198)" fill="#ffbd9c"/>
          <path id="Path_622" data-name="Path 622" d="M1916.024,1559.266l-3.085-2.492a6.717,6.717,0,0,1-2.442-4.378l-.167-1.314,9.264-1.872s.044,3.458-2.623,3.5l3.28,1.661-4.227,4.894Z" transform="translate(-1825.295 -1544.821)" fill="#ffbd9c"/>
          <path id="Path_623" data-name="Path 623" d="M1419.5,2078.475c2.255-.132,4.343,1.235,5.9,2.875s2.756,3.592,4.368,5.173c1.2,1.181,2.66,2.191,3.388,3.711,1.159,2.417.188,5.543,1.649,7.792.823,1.267,2.281,2.006,3.13,3.255,1.063,1.563.984,3.617.744,5.493a6.392,6.392,0,0,1-1.325,3.638,6.286,6.286,0,0,1-2.665,1.477,38.11,38.11,0,0,1-22.873.489l7.685-33.9Z" transform="translate(-1357.157 -2041.821)" fill="#263138"/>
          <path id="Path_624" data-name="Path 624" d="M1281.872,2124.675a11.636,11.636,0,0,1,10.458-13.031,11.867,11.867,0,0,1,12.645,10.189,121.214,121.214,0,0,1,1.49,12.833c-.076,5.972-3.57,8.3-4.986,8.994a7.751,7.751,0,0,1-1.571.391.039.039,0,0,0-.033.046l1.326,6.854c.6,4.491-1.906,8.5-6.39,9.149s-8.015-2.794-8.7-7.288Z" transform="translate(-1235.053 -2072.929)" fill="#ffbd9c"/>
          <path id="Path_625" data-name="Path 625" d="M1588.109,2325.389c-.1.139-.887-.284-1.9-.134s-1.677.764-1.8.656c-.062-.047.024-.285.313-.567a2.611,2.611,0,0,1,1.424-.677,2.5,2.5,0,0,1,1.532.26c.346.193.483.4.434.462Z" transform="translate(-1519.218 -2272.992)" fill="#263138"/>
          <path id="Path_626" data-name="Path 626" d="M1440.553,2357.362c-.1.14-.888-.283-1.9-.133s-1.677.763-1.8.656c-.062-.047.023-.286.314-.568a2.6,2.6,0,0,1,1.423-.676,2.508,2.508,0,0,1,1.532.259C1440.464,2357.093,1440.6,2357.3,1440.553,2357.362Z" transform="translate(-1380.654 -2303.019)" fill="#263138"/>
          <path id="Path_627" data-name="Path 627" d="M1529.13,2318.525a6.741,6.741,0,0,1,1.6-.536c.254-.064.491-.151.509-.333a1.327,1.327,0,0,0-.284-.74l-1.05-1.854a34.192,34.192,0,0,1-2.464-4.891,34.17,34.17,0,0,1,2.852,4.681c.355.653.7,1.275,1.019,1.871a1.5,1.5,0,0,1,.281.993.654.654,0,0,1-.369.439,1.827,1.827,0,0,1-.429.125,6.727,6.727,0,0,1-1.664.245Z" transform="translate(-1465.734 -2259.404)" fill="#263138"/>
          <path id="Path_628" data-name="Path 628" d="M1437.315,2623.712a16.272,16.272,0,0,1-9.165-1.333s2.292,4.934,9.522,3.18Z" transform="translate(-1372.502 -2552.585)" fill="#eb996e"/>
          <path id="Path_629" data-name="Path 629" d="M1508.874,2480.584a1.84,1.84,0,0,0-1.731-.438,1.681,1.681,0,0,0-1.059.783,1.064,1.064,0,0,0,.1,1.216,1.236,1.236,0,0,0,1.374.143,3.871,3.871,0,0,0,1.179-.96,1.128,1.128,0,0,0,.245-.34.342.342,0,0,0-.057-.376l-.048-.027Z" transform="translate(-1445.55 -2418.964)" fill="#eb996e"/>
          <path id="Path_630" data-name="Path 630" d="M1506.561,2465.838c.163-.033.325,1.063,1.377,1.705s2.2.352,2.234.5c.025.066-.229.251-.721.336a2.76,2.76,0,0,1-1.856-.358,2.4,2.4,0,0,1-1.085-1.439c-.109-.453-.026-.743.05-.748Z" transform="translate(-1446.037 -2405.584)" fill="#263138"/>
          <path id="Path_631" data-name="Path 631" d="M1416.376,2306.923c-.06.29-1.088.306-2.253.622-1.171.293-2.077.779-2.27.556-.087-.108.042-.391.39-.713a4.064,4.064,0,0,1,3.445-.9c.461.111.712.295.688.432Z" transform="translate(-1357.174 -2255.868)" fill="#263138"/>
          <path id="Path_632" data-name="Path 632" d="M1575.223,2273.185c-.145.255-.875.119-1.714.23-.843.081-1.524.379-1.722.164-.088-.106-.01-.353.268-.615a2.5,2.5,0,0,1,2.769-.316C1575.153,2272.839,1575.285,2273.062,1575.223,2273.185Z" transform="translate(-1507.352 -2223.905)" fill="#263138"/>
          <path id="Path_633" data-name="Path 633" d="M1360.531,2066.277c-1.236,1.886-5.158.721-7.526-.574a5.633,5.633,0,0,1-7.689-1.592c-1.355,1.726-4.107,1.156-5.111-.79a6.142,6.142,0,0,1,.94-6.323,8.83,8.83,0,0,1,5.386-2.928,12.487,12.487,0,0,1,12.688,5.228,8.359,8.359,0,0,1,1.313,6.98Z" transform="translate(-1289.437 -2018.712)" fill="#263138"/>
          <path id="Path_634" data-name="Path 634" d="M1141.724,2101.567c-4.44-.849-8.728,3.578-9.172,6.747-.771,5.5-.028,6.186-1.033,8.823-.653,1.712-2.912,3.468-3.8,5.234a10.724,10.724,0,0,0-.289,7.128c.562,1.705,2.854,6.461,2.854,6.461a63.5,63.5,0,0,0,9.986-1.081,5.6,5.6,0,0,0,2.386-1.116c.639-.58-.684-2.6-.563-3.454.346-2.437,2.172-3.847,1.65-6.253-.694-3.195-3.207-3.358-3.151-6.626.029-1.736,2.615-4.225,2.852-5.944s1.235-7.706-1.716-9.92Z" transform="translate(-1089.664 -2063.414)" fill="#263138"/>
          <path id="Path_635" data-name="Path 635" d="M1049.806,2463.933s2.927,6.675,2.759,9.833-3.188,13.413-3.188,13.413l35.794,3.348.166-8.279-1.077-34.054,19.958-30.363-15.1-8.752-14.68,19.9-3.717-1.44-16.057,2.036v2.837l-.46.056a32.8,32.8,0,0,0-10.006,3.92,16.746,16.746,0,0,0-7.666,16.986c.653,4.06,1.919,8.994,4.357,11.846C1045.548,2470.674,1049.806,2463.933,1049.806,2463.933Z" transform="translate(-1004.542 -2352.285)" fill="#ff4e4e"/>
          <path id="Path_636" data-name="Path 636" d="M640.2,5987.7l-3.837,17.343-6.99,12.845a1.819,1.819,0,0,0,2.5,2.447c3.252-1.879,15.181-8.851,15.391-10.137.243-1.487,5.262-18.025,5.262-18.025L640.2,5987.7Z" transform="translate(-622.2 -5712.801)" fill="#ff4e4e"/>
          <path id="Path_637" data-name="Path 637" d="M646.56,6349.174,663.9,6337.8l-.179.731a2.735,2.735,0,0,1-1.054,1.571c-1.412,1.018-5.37,3.745-14.391,9.012a1.82,1.82,0,0,1-1.717.062Z" transform="translate(-638.547 -6041.563)" fill="#fff"/>
          <path id="Path_645" data-name="Path 645" d="M795.146,5989.591l-.516,2.472,12.245,3.589,1.047-3.469-12.329-4.474Z" transform="translate(-777.592 -5712.81)" opacity="0.28"/>
          <path id="Path_646" data-name="Path 646" d="M1512.654,6084.418l-1.037,13.858s13.739,5.709,13.8,8.289l-26.945-1.045.729-21.662,13.455.56Z" transform="translate(-1438.536 -5803.1)" fill="#ff4e4e"/>
          <path id="Path_648" data-name="Path 648" d="M1498.47,6405.671l.159-2.181,25.775,1.817s1.179.568,1.011,1.407l-26.945-1.045Z" transform="translate(-1438.536 -6103.252)" fill="#fff"/>
          <path id="Path_653" data-name="Path 653" d="M1521.019,6122.34l-.181,2.47-13.238-.633.089-2.858Z" transform="translate(-1447.11 -5838.277)" fill="rgba(0,0,0,0.3)"/>
          <path id="Path_656" data-name="Path 656" d="M1059.868,2590.874l6.972.386a35.052,35.052,0,0,0,1.971,5.716,115.811,115.811,0,0,0,11.043-28.038c-.157-.523-.344-1.1-.576-1.752a7.428,7.428,0,0,1,.088-2.95c.188-1.167.515-2.739.613-3.466.3-2.216.656-2.565,1.429-2.314,1.052.341-.431,6.225.431,6.353.463.069,1.03-1.947,1.194-3.6s.912-6.742,1.459-7.082c.8-.5,1.5.29,1.3,1.937-.2,1.667-.463,6.638.411,6.705s1.584-8.369,1.584-8.369-.136-1.835.876-1.791c1.825.079.4,8.972.242,9.813-.109.586.839.694.922.057.086-.654.527-8.436,2.385-8.373,1.427.049-1.1,7.329-.3,9.016s1.357-5.731,2.719-5.63c.507.039.882.139-.05,4.336a94.6,94.6,0,0,1-3.257,9.84c-2.158,11.642-11.63,48.883-26.481,42.065-8.31-3.815-12.187-22.7-12.187-22.7l7.217-.159Z" transform="translate(-1019.887 -2487.066)" fill="#ffbd9c"/>
          <path id="Path_657" data-name="Path 657" d="M1051.361,3095.821c1.349,4.759,3.983,12.111,6.816,19.863a1.345,1.345,0,0,0,2.478.115l6.945-14.683s-1.673-12.062-1.531-11.637-14.329,1.561-14.329,1.561l-.38,4.78Z" transform="translate(-1018.676 -2991.208)" fill="#ff4e4e"/>
          <path id="Path_658" data-name="Path 658" d="M589.732,3739.5a4.976,4.976,0,0,0,4.818-4.666c1.451-23.429,7.969-130.008,6.66-133.354-1.472-3.761-5.335-16.824-5.335-16.824l-34.562-1.622s-8.606,13.594-9.844,18.8c-1.109,4.664-32.423,103.322-36.317,124.3a4.288,4.288,0,0,0,2.986,4.89l71.593,8.475Z" transform="translate(-515.079 -3454.687)" fill="#1c1d4d"/>
        </g>
        <g id="Icons" transform="translate(235.539 60.637)">
          <g id="_2554866768928" transform="translate(0 0)">
            <g id="Group_427" data-name="Group 427">
              <path id="Path_659" data-name="Path 659" d="M4482.278,1552.943l-84.686,11.958a5.748,5.748,0,0,1-6.5-4.887l-11.259-79.732a5.748,5.748,0,0,1,4.889-6.495l84.687-11.958a5.747,5.747,0,0,1,6.493,4.887l11.258,79.732A5.746,5.746,0,0,1,4482.278,1552.943Z" transform="translate(-4379.781 -1461.772)" fill="#ff4e4e"/>
            </g>
            <g id="Group_440" data-name="Group 440" transform="translate(21.948 23.694)">
              <g id="Group_437" data-name="Group 437">
                <g id="Group_429" data-name="Group 429" transform="translate(0 12.914)">
                  <g id="Group_428" data-name="Group 428">
                    <path id="Path_660" data-name="Path 660" d="M4789.7,2088.862a3.7,3.7,0,0,1-.64.135l-1.854.306-6.875,1.056-23.1,3.391-.189.028-.052-.184c-.347-1.2-.715-2.467-1.087-3.751-3.144-10.99-5.95-20.8-7.783-27.207l.153.1-6.164.821-1.643.2a.287.287,0,1,1-.011-.077l1.632-.271,6.146-.949.119-.018.034.119c1.872,6.4,4.734,16.19,7.941,27.162.37,1.286.737,2.554,1.082,3.752l-.24-.156,23.118-3.25,6.894-.923,1.865-.229a3.843,3.843,0,0,1,.652-.052Z" transform="translate(-4739.899 -2062.439)" fill="#ebebeb"/>
                  </g>
                </g>
                <g id="Group_431" data-name="Group 431" transform="translate(9.812 12.148)">
                  <g id="Group_430" data-name="Group 430">
                    <path id="Path_661" data-name="Path 661" d="M4906.473,2075.142a.556.556,0,0,1,.16-.042l.476-.087q.678-.111,1.855-.3l6.947-1.06,23.971-3.523-.182.2c.131-4.139.271-8.615.419-13.247.077-2.382.153-4.724.226-6.955l.25.222-28.278,3.99-8.379,1.137-2.261.287-.586.063a.731.731,0,0,1-.2.009.856.856,0,0,1,.2-.049l.582-.1,2.25-.361,8.359-1.269,28.256-4.135.258-.038-.009.261c-.071,2.231-.146,4.574-.223,6.956-.151,4.632-.3,9.107-.435,13.247l-.007.178-.175.025-23.994,3.368-6.963.939-1.864.233-.482.051a.538.538,0,0,1-.165,0Z" transform="translate(-4900.889 -2049.88)" fill="#ebebeb"/>
                  </g>
                </g>
                <g id="Group_433" data-name="Group 433" transform="translate(19.938 48.663)">
                  <g id="Group_432" data-name="Group 432">
                    <path id="Path_662" data-name="Path 662" d="M5073.8,2652c-.041.007-.082-.284-.295-.747a3.272,3.272,0,0,0-1.437-1.517,3.095,3.095,0,1,0,.707,4.921,3.282,3.282,0,0,0,.951-1.859c.073-.5.032-.794.073-.8a1.685,1.685,0,0,1,.1.816,3.27,3.27,0,0,1-.9,2.06,3.426,3.426,0,0,1-3.159,1,3.473,3.473,0,0,1-.932-6.482,3.426,3.426,0,0,1,3.313.07,3.266,3.266,0,0,1,1.442,1.724,1.667,1.667,0,0,1,.137.811Z" transform="translate(-5067.041 -2649)" fill="#ebebeb"/>
                  </g>
                </g>
                <g id="Group_435" data-name="Group 435" transform="translate(40.854 45.658)">
                  <g id="Group_434" data-name="Group 434">
                    <path id="Path_663" data-name="Path 663" d="M5416.987,2602.7c-.041.007-.084-.284-.3-.747a3.279,3.279,0,0,0-1.436-1.516,3.11,3.11,0,0,0-4.552,3.165,3.111,3.111,0,0,0,5.259,1.756,3.3,3.3,0,0,0,.951-1.859c.073-.5.032-.794.073-.8a1.672,1.672,0,0,1,.1.816,3.27,3.27,0,0,1-.9,2.06,3.424,3.424,0,0,1-3.159,1,3.473,3.473,0,0,1-.932-6.483,3.427,3.427,0,0,1,3.313.07,3.266,3.266,0,0,1,1.441,1.724,1.677,1.677,0,0,1,.138.811Z" transform="translate(-5410.23 -2599.7)" fill="#ebebeb"/>
                  </g>
                </g>
                <g id="Group_436" data-name="Group 436" transform="translate(37.865)">
                  <path id="Path_664" data-name="Path 664" d="M5379.822,1858.586a9.369,9.369,0,1,1-10.607-7.941A9.37,9.37,0,0,1,5379.822,1858.586Z" transform="translate(-5361.178 -1850.549)" fill="#f9f9f9"/>
                </g>
              </g>
              <g id="Group_439" data-name="Group 439" transform="translate(42.933 5.182)">
                <g id="Group_438" data-name="Group 438">
                  <path id="Path_665" data-name="Path 665" d="M5453.187,1935.578a8.43,8.43,0,0,1-.988,1.668c-.654,1-1.586,2.36-2.637,3.849l-1.128,1.582-.119.166-.168-.11a30.378,30.378,0,0,1-3.8-2.7,30.442,30.442,0,0,1,4.026,2.344l-.285.055,1.113-1.593c1.05-1.488,2.021-2.821,2.742-3.774a8.481,8.481,0,0,1,1.241-1.489Z" transform="translate(-5444.348 -1935.575)" fill="#e8505b"/>
                </g>
              </g>
            </g>
          </g>
          <path id="Path_666" data-name="Path 666" d="M4606.955,3306.545l-65.073-16.4a5.749,5.749,0,0,1-4.169-6.979l15.414-61.142a5.748,5.748,0,0,1,6.979-4.169l65.073,16.4a5.749,5.749,0,0,1,4.168,6.979l-15.413,61.143A5.748,5.748,0,0,1,4606.955,3306.545Z" transform="translate(-4527.923 -3110.661)" fill="#353680"/>
        </g>
        <g id="Device" transform="translate(110.442 51.315)">
          <g id="_2554873042576" transform="translate(0 0)">
            <g id="Group_448" data-name="Group 448">
              <g id="Group_447" data-name="Group 447">
                <g id="Group_446" data-name="Group 446">
                  <g id="Group_445" data-name="Group 445">
                    <g id="Group_442" data-name="Group 442">
                      <g id="Group_441" data-name="Group 441">
                        <path id="Path_667" data-name="Path 667" d="M2456.8,1622.751l-106.513-.492a23.2,23.2,0,0,1-23.094-23.3l1.129-267.03a23.2,23.2,0,0,1,23.309-23.1l106.513.492a23.2,23.2,0,0,1,23.094,23.3l-1.129,267.03A23.2,23.2,0,0,1,2456.8,1622.751Z" transform="translate(-2327.196 -1308.826)" fill="#1c1d4d"/>
                      </g>
                    </g>
                    <g id="Group_444" data-name="Group 444" transform="translate(6.191 7.499)">
                      <g id="Group_443" data-name="Group 443">
                        <path id="Path_668" data-name="Path 668" d="M2552.5,1432.368l-20.651-.1a5.129,5.129,0,0,0-5.036,5.219l-.017,3.746a5.129,5.129,0,0,1-5.036,5.219l-40.253-.186a5.135,5.135,0,0,1-4.992-5.265l.015-3.746a5.134,5.134,0,0,0-4.992-5.265l-7.263-.034-18.075-.083a16.248,16.248,0,0,0-16.323,16.18l-1.1,260.64a16.251,16.251,0,0,0,16.175,16.319l106.3.491a16.249,16.249,0,0,0,16.324-16.18l1.1-260.641a16.249,16.249,0,0,0-16.174-16.318Z" transform="translate(-2428.777 -1431.877)" fill="#c4dff7"/>
                      </g>
                    </g>
                  </g>
                </g>
              </g>
            </g>
            <g id="Group_449" data-name="Group 449" transform="translate(19.02 31.611)">
              <path id="Path_669" data-name="Path 669" d="M2641.321,1831.574a.423.423,0,0,1-.306-.13l-1.619-1.691a.422.422,0,0,1,.013-.6l1.619-1.549a.423.423,0,1,1,.585.612l-1.313,1.256,1.327,1.385a.423.423,0,0,1-.014.6.419.419,0,0,1-.292.118Z" transform="translate(-2639.278 -1827.489)" fill="#1c1d4d"/>
            </g>
            <g id="Group_452" data-name="Group 452" transform="translate(19.915 255.96)">
              <g id="Group_450" data-name="Group 450">
                <path id="Path_670" data-name="Path 670" d="M2755.483,5538.337h-87.876a13.648,13.648,0,0,1-13.647-13.648v-2.44a13.648,13.648,0,0,1,13.647-13.648h87.876a13.648,13.648,0,0,1,13.649,13.648v2.44A13.649,13.649,0,0,1,2755.483,5538.337Z" transform="translate(-2653.96 -5508.6)" fill="#ff4e4e"/>
              </g>
              <g id="Group_451" data-name="Group 451" transform="translate(43.888 11.365)">
                <path id="Path_671" data-name="Path 671" d="M3374.07,5695.99h2.676a3.294,3.294,0,1,1,0,6.573h-2.676Zm2.639,5.972h0a2.692,2.692,0,1,0,0-5.371h-1.943v5.371Z" transform="translate(-3374.07 -5695.934)" fill="#f9f9f9"/>
                <path id="Path_672" data-name="Path 672" d="M3491.72,5698.413a3.453,3.453,0,1,1,3.456,3.343A3.308,3.308,0,0,1,3491.72,5698.413Zm6.206,0h0a2.761,2.761,0,1,0-2.751,2.724A2.664,2.664,0,0,0,3497.926,5698.413Z" transform="translate(-3484.55 -5695.069)" fill="#f9f9f9"/>
                <path id="Path_673" data-name="Path 673" d="M3635.963,5695.99v6.573h-.573l-4.225-5.333v5.333h-.7v-6.573h.573l4.235,5.334v-5.334Z" transform="translate(-3614.843 -5695.934)" fill="#f9f9f9"/>
                <path id="Path_674" data-name="Path 674" d="M3760.338,5701.962v.6h-4.648v-6.573h4.507v.6h-3.812v2.339h3.4v.591h-3.4v2.441Z" transform="translate(-3732.432 -5695.934)" fill="#f9f9f9"/>
              </g>
            </g>
            <g id="Group_453" data-name="Group 453" transform="translate(29.327 164.235)">
              <path id="Path_675" data-name="Path 675" d="M2812.8,4011.73c0,1.2-.869,1.924-2.3,1.924h-1.513v1.778h-.6V4009.8h2.108c1.432,0,2.3.725,2.3,1.931Zm-.6,0h0c0-.9-.6-1.416-1.722-1.416h-1.5v2.816h1.5C2811.61,4013.131,2812.2,4012.616,2812.2,4011.73Z" transform="translate(-2808.39 -4009.42)" fill="#263138"/>
              <path id="Path_676" data-name="Path 676" d="M2904.424,4032.76v4.232h-.547v-.772a1.686,1.686,0,0,1-1.521.813,1.639,1.639,0,0,1-1.786-1.818v-2.454h.571v2.4a1.184,1.184,0,0,0,1.271,1.359,1.376,1.376,0,0,0,1.44-1.537v-2.221Z" transform="translate(-2894.952 -4030.981)" fill="#263138"/>
              <path id="Path_677" data-name="Path 677" d="M2992.243,4032.24v.555c-.048,0-.1-.007-.137-.007a1.369,1.369,0,0,0-1.424,1.561v2.156h-.571v-4.231h.547v.828a1.6,1.6,0,0,1,1.585-.86Z" transform="translate(-2979.034 -4030.493)" fill="#263138"/>
              <path id="Path_678" data-name="Path 678" d="M3034.36,4034.388a2.084,2.084,0,0,1,2.181-2.148,1.844,1.844,0,0,1,1.657.837l-.426.29a1.44,1.44,0,0,0-1.231-.629,1.651,1.651,0,0,0,0,3.3,1.432,1.432,0,0,0,1.231-.619l.426.289a1.865,1.865,0,0,1-1.657.837,2.09,2.09,0,0,1-2.181-2.157Z" transform="translate(-3020.588 -4030.493)" fill="#263138"/>
              <path id="Path_679" data-name="Path 679" d="M3118.544,4007.756v2.454h-.571v-2.4a1.181,1.181,0,0,0-1.271-1.351,1.387,1.387,0,0,0-1.48,1.528v2.221h-.572v-5.971h.572v2.478a1.788,1.788,0,0,1,1.585-.771,1.62,1.62,0,0,1,1.738,1.81Z" transform="translate(-3095.984 -4004.199)" fill="#263138"/>
              <path id="Path_680" data-name="Path 680" d="M3201.788,4033.881v2.622h-.547v-.659a1.591,1.591,0,0,1-1.457.7c-.958,0-1.544-.5-1.544-1.232,0-.651.418-1.2,1.633-1.2h1.343v-.258c0-.724-.411-1.118-1.2-1.118a2.154,2.154,0,0,0-1.409.5l-.257-.427a2.687,2.687,0,0,1,1.722-.57A1.5,1.5,0,0,1,3201.788,4033.881Zm-.572,1.352h0v-.692h-1.327c-.821,0-1.086.321-1.086.757,0,.491.395.8,1.07.8a1.356,1.356,0,0,0,1.344-.86Z" transform="translate(-3174.48 -4030.493)" fill="#263138"/>
              <path id="Path_681" data-name="Path 681" d="M3272.33,4036.031l.257-.45a2.561,2.561,0,0,0,1.505.475c.8,0,1.135-.273,1.135-.692,0-1.1-2.744-.233-2.744-1.906,0-.691.6-1.207,1.673-1.207a2.867,2.867,0,0,1,1.5.395l-.249.459a2.169,2.169,0,0,0-1.248-.362c-.765,0-1.1.3-1.1.7,0,1.143,2.744.282,2.744,1.908,0,.731-.644,1.207-1.746,1.207a2.832,2.832,0,0,1-1.723-.523Z" transform="translate(-3244.054 -4030.503)" fill="#263138"/>
              <path id="Path_682" data-name="Path 682" d="M3343.652,4034.565h-3.54a1.566,1.566,0,0,0,1.665,1.473,1.665,1.665,0,0,0,1.295-.555l.322.37a2.237,2.237,0,0,1-3.854-1.465,2.038,2.038,0,0,1,2.067-2.148,2.017,2.017,0,0,1,2.052,2.148c0,.048-.008.112-.008.177Zm-3.54-.427h3a1.5,1.5,0,0,0-3,0Z" transform="translate(-3307.168 -4030.493)" fill="#263138"/>
              <path id="Path_683" data-name="Path 683" d="M3455.833,4032.771l-1.6,4.232h-.54l-1.335-3.47-1.336,3.47h-.539l-1.593-4.232h.547l1.328,3.6,1.36-3.6h.491l1.351,3.6,1.344-3.6Z" transform="translate(-3409.854 -4030.991)" fill="#263138"/>
              <path id="Path_684" data-name="Path 684" d="M3572.6,4033.881v2.622h-.547v-.659a1.59,1.59,0,0,1-1.457.7c-.957,0-1.545-.5-1.545-1.232,0-.651.419-1.2,1.634-1.2h1.345v-.258c0-.724-.411-1.118-1.2-1.118a2.152,2.152,0,0,0-1.408.5l-.257-.427a2.686,2.686,0,0,1,1.722-.57A1.5,1.5,0,0,1,3572.6,4033.881Zm-.57,1.352h0v-.692H3570.7c-.821,0-1.085.321-1.085.757,0,.491.394.8,1.069.8A1.355,1.355,0,0,0,3572.028,4035.233Z" transform="translate(-3522.69 -4030.493)" fill="#263138"/>
              <path id="Path_685" data-name="Path 685" d="M3643.139,4036.031l.258-.45a2.554,2.554,0,0,0,1.5.475c.8,0,1.135-.273,1.135-.692,0-1.1-2.744-.233-2.744-1.906,0-.691.594-1.207,1.673-1.207a2.862,2.862,0,0,1,1.5.395l-.249.459a2.17,2.17,0,0,0-1.248-.362c-.764,0-1.1.3-1.1.7,0,1.143,2.745.282,2.745,1.908,0,.731-.645,1.207-1.747,1.207a2.829,2.829,0,0,1-1.723-.523Z" transform="translate(-3592.264 -4030.503)" fill="#263138"/>
              <path id="Path_686" data-name="Path 686" d="M3742.32,4036.031l.258-.45a2.558,2.558,0,0,0,1.5.475c.8,0,1.134-.273,1.134-.692,0-1.1-2.743-.233-2.743-1.906,0-.691.595-1.207,1.674-1.207a2.854,2.854,0,0,1,1.5.395l-.248.459a2.173,2.173,0,0,0-1.247-.362c-.766,0-1.1.3-1.1.7,0,1.143,2.744.282,2.744,1.908,0,.731-.645,1.207-1.747,1.207a2.83,2.83,0,0,1-1.723-.523Z" transform="translate(-3685.4 -4030.503)" fill="#263138"/>
              <path id="Path_687" data-name="Path 687" d="M3819.734,4032.76v4.232h-.548v-.772a1.682,1.682,0,0,1-1.521.813,1.639,1.639,0,0,1-1.786-1.818v-2.454h.571v2.4a1.184,1.184,0,0,0,1.271,1.359,1.377,1.377,0,0,0,1.44-1.537v-2.221Z" transform="translate(-3754.477 -4030.981)" fill="#263138"/>
              <path id="Path_688" data-name="Path 688" d="M3898.42,4034.388a2.084,2.084,0,0,1,2.181-2.148,1.845,1.845,0,0,1,1.657.837l-.427.29a1.437,1.437,0,0,0-1.23-.629,1.651,1.651,0,0,0,0,3.3,1.428,1.428,0,0,0,1.23-.619l.427.289a1.867,1.867,0,0,1-1.657.837,2.091,2.091,0,0,1-2.181-2.157Z" transform="translate(-3831.987 -4030.493)" fill="#263138"/>
              <path id="Path_689" data-name="Path 689" d="M3971.58,4034.388a2.084,2.084,0,0,1,2.181-2.148,1.845,1.845,0,0,1,1.657.837l-.427.29a1.437,1.437,0,0,0-1.23-.629,1.651,1.651,0,0,0,0,3.3,1.428,1.428,0,0,0,1.23-.619l.427.289a1.866,1.866,0,0,1-1.657.837,2.091,2.091,0,0,1-2.181-2.157Z" transform="translate(-3900.688 -4030.493)" fill="#263138"/>
              <path id="Path_690" data-name="Path 690" d="M4048.851,4034.565h-3.54a1.567,1.567,0,0,0,1.666,1.473,1.666,1.666,0,0,0,1.295-.555l.322.37a2.238,2.238,0,0,1-3.854-1.465,2.038,2.038,0,0,1,2.069-2.148,2.018,2.018,0,0,1,2.052,2.148c0,.048-.009.112-.009.177Zm-3.54-.427h3a1.5,1.5,0,0,0-3,0Z" transform="translate(-3969.389 -4030.493)" fill="#263138"/>
              <path id="Path_691" data-name="Path 691" d="M4121.859,4036.031l.259-.45a2.55,2.55,0,0,0,1.5.475c.8,0,1.134-.273,1.134-.692,0-1.1-2.743-.233-2.743-1.906,0-.691.6-1.207,1.675-1.207a2.854,2.854,0,0,1,1.5.395l-.248.459a2.167,2.167,0,0,0-1.247-.362c-.766,0-1.1.3-1.1.7,0,1.143,2.745.282,2.745,1.908,0,.731-.645,1.207-1.748,1.207a2.831,2.831,0,0,1-1.722-.523Z" transform="translate(-4041.808 -4030.503)" fill="#263138"/>
              <path id="Path_692" data-name="Path 692" d="M4186.43,4036.031l.257-.45a2.559,2.559,0,0,0,1.506.475c.8,0,1.134-.273,1.134-.692,0-1.1-2.744-.233-2.744-1.906,0-.691.6-1.207,1.675-1.207a2.861,2.861,0,0,1,1.5.395l-.25.459a2.164,2.164,0,0,0-1.246-.362c-.765,0-1.1.3-1.1.7,0,1.143,2.743.282,2.743,1.908,0,.731-.644,1.207-1.745,1.207a2.828,2.828,0,0,1-1.723-.523Z" transform="translate(-4102.444 -4030.503)" fill="#263138"/>
              <path id="Path_693" data-name="Path 693" d="M4251.121,4004.859v.5h1.3v.482h-1.287v3.749h-.571v-3.749h-.757v-.482h.757v-.524a1.166,1.166,0,0,1,1.279-1.256,1.333,1.333,0,0,1,.844.268l-.192.426a.968.968,0,0,0-.628-.209C4251.379,4004.063,4251.121,4004.337,4251.121,4004.859Z" transform="translate(-4161.961 -4003.579)" fill="#263138"/>
              <path id="Path_694" data-name="Path 694" d="M4308.614,4032.76v4.232h-.547v-.772a1.682,1.682,0,0,1-1.521.813,1.639,1.639,0,0,1-1.786-1.818v-2.454h.571v2.4a1.184,1.184,0,0,0,1.271,1.359,1.377,1.377,0,0,0,1.442-1.537v-2.221Z" transform="translate(-4213.561 -4030.981)" fill="#263138"/>
              <path id="Path_695" data-name="Path 695" d="M4394.31,4004.25h.571v5.97h-.571Z" transform="translate(-4297.654 -4004.209)" fill="#263138"/>
            </g>
            <g id="Group_454" data-name="Group 454" transform="translate(33.61 141.202)">
              <path id="Path_696" data-name="Path 696" d="M2882.234,3637.984h-3.575v-1.694h9.153v1.694h-3.575v9.091h-2Z" transform="translate(-2878.66 -3635.642)" fill="#ff4e4e"/>
              <path id="Path_697" data-name="Path 697" d="M3058.664,3632.378v4.715h-1.926v-4.468c0-1.464-.724-2.173-1.957-2.173a2.186,2.186,0,0,0-2.3,2.48v4.161h-1.926V3625.66h1.926v4.161a3.667,3.667,0,0,1,2.743-1.048c1.972,0,3.436,1.125,3.436,3.605Z" transform="translate(-3040.083 -3625.66)" fill="#ff4e4e"/>
              <path id="Path_698" data-name="Path 698" d="M3221.573,3680.237v4.823h-1.818v-1a2.918,2.918,0,0,1-2.59,1.109c-1.879,0-3.066-1.032-3.066-2.464,0-1.372.925-2.45,3.421-2.45h2.126v-.123c0-1.125-.679-1.787-2.05-1.787a4.075,4.075,0,0,0-2.5.816l-.755-1.4a5.788,5.788,0,0,1,3.482-1.017c2.374,0,3.745,1.125,3.745,3.5Zm-1.926,2.25h0v-.956h-1.988c-1.31,0-1.664.494-1.664,1.095,0,.693.586,1.14,1.572,1.14A2.1,2.1,0,0,0,3219.647,3682.487Z" transform="translate(-3193.656 -3673.626)" fill="#ff4e4e"/>
              <path id="Path_699" data-name="Path 699" d="M3385.254,3680.326v4.716h-1.925v-4.469c0-1.464-.724-2.173-1.958-2.173a2.185,2.185,0,0,0-2.3,2.481v4.16h-1.926v-8.229h1.834v1.063a3.577,3.577,0,0,1,2.835-1.156c1.973,0,3.437,1.125,3.437,3.606Z" transform="translate(-3346.769 -3673.608)" fill="#ff4e4e"/>
              <path id="Path_700" data-name="Path 700" d="M3553.658,3633.574l-1.433,1.356v2.172H3550.3v-11.433h1.926v6.9l3.992-3.7h2.311l-3.437,3.451,3.759,4.777h-2.342Z" transform="translate(-3509.365 -3625.669)" fill="#ff4e4e"/>
              <path id="Path_701" data-name="Path 701" d="M3765.02,3678.25l-3.853,8.891c-.756,1.865-1.8,2.435-3.174,2.435a3.405,3.405,0,0,1-2.2-.756l.77-1.417a2.087,2.087,0,0,0,1.418.57c.678,0,1.078-.322,1.448-1.14l.139-.324-3.59-8.259h2l2.59,6.087,2.6-6.087h1.849Z" transform="translate(-3702.333 -3675.045)" fill="#ff4e4e"/>
              <path id="Path_702" data-name="Path 702" d="M3911.989,3680.946a4.387,4.387,0,1,1,4.376,4.222A4.142,4.142,0,0,1,3911.989,3680.946Zm6.827,0h0a2.446,2.446,0,1,0-2.45,2.573A2.4,2.4,0,0,0,3918.816,3680.946Z" transform="translate(-3849.011 -3673.626)" fill="#ff4e4e"/>
              <path id="Path_703" data-name="Path 703" d="M4093.179,3678.241v8.228h-1.834v-1.048a3.36,3.36,0,0,1-2.651,1.156c-2.11,0-3.544-1.156-3.544-3.636v-4.7h1.926v4.438c0,1.5.709,2.2,1.927,2.2a2.167,2.167,0,0,0,2.249-2.48v-4.16h1.927Z" transform="translate(-4011.619 -3675.035)" fill="#ff4e4e"/>
              <path id="Path_704" data-name="Path 704" d="M4252.5,3645.972a1.193,1.193,0,0,1,1.247-1.187,1.194,1.194,0,1,1,0,2.388A1.2,1.2,0,0,1,4252.5,3645.972Zm.107-9.693h2.28l-.386,7.21h-1.524Z" transform="translate(-4168.77 -3635.632)" fill="#ff4e4e"/>
            </g>
            <g id="Group_505" data-name="Group 505" transform="translate(30.586 47.933)">
              <g id="Group_458" data-name="Group 458" transform="translate(25.516 33.448)">
                <g id="Group_455" data-name="Group 455">
                  <path id="Path_705" data-name="Path 705" d="M3292.042,2666.28a22.161,22.161,0,1,1-22.161-22.161A22.162,22.162,0,0,1,3292.042,2666.28Z" transform="translate(-3247.72 -2644.119)" fill="#ff4e4e"/>
                </g>
                <g id="Group_457" data-name="Group 457" transform="translate(12.752 12.804)">
                  <g id="Group_456" data-name="Group 456">
                    <path id="Path_706" data-name="Path 706" d="M3477.275,2854.216c.283.23-3.857,5.8-9.246,12.435l-3.264,3.959-.446.542-.479-.494c-4.208-4.336-7.082-7.557-6.877-7.761s3.423,2.671,7.759,6.879l-.925.048,3.206-4.007c5.39-6.637,9.989-11.831,10.272-11.6Z" transform="translate(-3456.952 -2854.209)" fill="#fff"/>
                  </g>
                </g>
              </g>
              <g id="Group_459" data-name="Group 459" transform="translate(75.474 44.573)">
                <path id="Path_707" data-name="Path 707" d="M4071.1,2828.76c-.657-2.328-3.684-2.1-3.684-2.1l.083,1.62c1.749-.3,2.837,1.748,2.837,1.748Z" transform="translate(-4067.419 -2826.652)" fill="#e8505b"/>
              </g>
              <g id="Group_460" data-name="Group 460" transform="translate(11.285 49.454)">
                <path id="Path_708" data-name="Path 708" d="M3017.9,2908.86c-.657-2.328-3.684-2.1-3.684-2.1l.083,1.619c1.749-.3,2.836,1.748,2.836,1.748l.764-1.266Z" transform="translate(-3014.219 -2906.752)" fill="#dfdfdf"/>
              </g>
              <g id="Group_461" data-name="Group 461" transform="translate(49.331 15.16)">
                <path id="Path_709" data-name="Path 709" d="M3639.471,2348.251c3.51,1.063,5.693-2.985,5.693-2.985l-2.135-1.216c-1.044,2.48-4.549,2.193-4.549,2.193l.991,2.009Z" transform="translate(-3638.479 -2344.05)" fill="#dfdfdf"/>
              </g>
              <g id="Group_462" data-name="Group 462" transform="translate(29.019 23.717)">
                <path id="Path_710" data-name="Path 710" d="M3307.018,2484.459c-1.634.173-1.829,2.224-1.829,2.224l1.093.13c0-1.2,1.494-1.7,1.494-1.7Z" transform="translate(-3305.19 -2484.459)" fill="#e8505b"/>
              </g>
              <g id="Group_463" data-name="Group 463" transform="translate(96.074 36.389)">
                <path id="Path_711" data-name="Path 711" d="M4407.528,2694.693c.236-1.625-1.7-2.324-1.7-2.324l-.4,1.027c1.168.3,1.273,1.869,1.273,1.869Z" transform="translate(-4405.431 -2692.369)" fill="#dfdfdf"/>
              </g>
              <g id="Group_464" data-name="Group 464" transform="translate(38.279)">
                <path id="Path_712" data-name="Path 712" d="M3459.228,2097.633c.237-1.625-1.7-2.323-1.7-2.323l-.4,1.027c1.167.3,1.273,1.869,1.273,1.869l.824-.572Z" transform="translate(-3457.13 -2095.31)" fill="#e8505b"/>
              </g>
              <g id="Group_465" data-name="Group 465" transform="translate(0 27.468)">
                <path id="Path_713" data-name="Path 713" d="M2829.072,2547.082c-.293,2.548,3.083,3.165,3.083,3.165l.609-1.667c-2.025-.183-2.318-2.569-2.318-2.569l-1.374,1.071Z" transform="translate(-2829.054 -2546.01)" fill="#e8505b"/>
              </g>
              <g id="Group_466" data-name="Group 466" transform="translate(74.509 17.102)">
                <path id="Path_714" data-name="Path 714" d="M4052.231,2378.123c1.641.094,2.165-1.9,2.165-1.9l-1.058-.3c-.193,1.189-1.749,1.434-1.749,1.434l.643.77Z" transform="translate(-4051.59 -2375.92)" fill="#e8505b"/>
              </g>
              <g id="Group_485" data-name="Group 485" transform="translate(81.402 22.309)">
                <g id="Group_471" data-name="Group 471">
                  <g id="Group_468" data-name="Group 468" transform="translate(0 3.551)">
                    <g id="Group_467" data-name="Group 467">
                      <path id="Path_715" data-name="Path 715" d="M4167.4,2519.742a6.989,6.989,0,1,1-1.353-.132A3.569,3.569,0,0,1,4167.4,2519.742Z" transform="translate(-4164.689 -2519.61)" fill="#dfdfdf"/>
                    </g>
                  </g>
                  <g id="Group_470" data-name="Group 470" transform="translate(4.014)">
                    <g id="Group_469" data-name="Group 469">
                      <path id="Path_716" data-name="Path 716" d="M4230.682,2461.35a7.171,7.171,0,0,1,0,2.748,7.224,7.224,0,0,1,0-2.748Z" transform="translate(-4230.55 -2461.35)" fill="#dfdfdf"/>
                    </g>
                  </g>
                </g>
                <g id="Group_476" data-name="Group 476" transform="translate(4.107 3.462)">
                  <g id="Group_473" data-name="Group 473" transform="translate(1.57)">
                    <g id="Group_472" data-name="Group 472">
                      <path id="Path_717" data-name="Path 717" d="M4257.839,2518.292a7.024,7.024,0,0,1,2.709,0,6.948,6.948,0,0,1-2.709,0Z" transform="translate(-4257.839 -2518.16)" fill="#dfdfdf"/>
                    </g>
                  </g>
                  <g id="Group_475" data-name="Group 475" transform="translate(0 1.068)">
                    <g id="Group_474" data-name="Group 474">
                      <path id="Path_718" data-name="Path 718" d="M4232.212,2538.437a7.169,7.169,0,1,1,.133-1.374A3.7,3.7,0,0,1,4232.212,2538.437Z" transform="translate(-4232.08 -2535.69)" fill="#dfdfdf"/>
                    </g>
                  </g>
                </g>
                <g id="Group_478" data-name="Group 478" transform="translate(5.455 4.539)">
                  <g id="Group_477" data-name="Group 477">
                    <path id="Path_719" data-name="Path 719" d="M4255.167,2536.986c-.056.047-.316-.173-.582-.492s-.436-.615-.38-.661.317.174.583.492S4255.223,2536.939,4255.167,2536.986Z" transform="translate(-4254.194 -2535.827)" fill="#dfdfdf"/>
                  </g>
                </g>
                <g id="Group_480" data-name="Group 480" transform="translate(5.293 1.512)">
                  <g id="Group_479" data-name="Group 479">
                    <path id="Path_720" data-name="Path 720" d="M4252.543,2486.175c.052.051-.13.318-.407.6s-.541.462-.593.411.13-.319.405-.6S4252.491,2486.124,4252.543,2486.175Z" transform="translate(-4251.535 -2486.167)" fill="#dfdfdf"/>
                  </g>
                </g>
                <g id="Group_482" data-name="Group 482" transform="translate(2.239 1.78)">
                  <g id="Group_481" data-name="Group 481">
                    <path id="Path_721" data-name="Path 721" d="M4202.384,2491.363c-.046.056-.3-.076-.56-.294s-.437-.441-.393-.5.3.076.563.294.438.441.392.5Z" transform="translate(-4201.425 -2490.558)" fill="#dfdfdf"/>
                  </g>
                </g>
                <g id="Group_484" data-name="Group 484" transform="translate(2.158 4.418)">
                  <g id="Group_483" data-name="Group 483">
                    <path id="Path_722" data-name="Path 722" d="M4201.018,2533.856c.055.05-.105.312-.356.587s-.5.458-.552.409.105-.312.356-.587S4200.963,2533.807,4201.018,2533.856Z" transform="translate(-4200.1 -2533.848)" fill="#dfdfdf"/>
                  </g>
                </g>
              </g>
              <g id="Group_504" data-name="Group 504" transform="translate(7.661 14.763)">
                <g id="Group_490" data-name="Group 490">
                  <g id="Group_487" data-name="Group 487" transform="translate(0 3.551)">
                    <g id="Group_486" data-name="Group 486">
                      <path id="Path_723" data-name="Path 723" d="M2957.468,2395.942a6.991,6.991,0,0,1-2.708,0,7.016,7.016,0,0,1,2.708,0Z" transform="translate(-2954.76 -2395.81)" fill="#e8505b"/>
                    </g>
                  </g>
                  <g id="Group_489" data-name="Group 489" transform="translate(4.013)">
                    <g id="Group_488" data-name="Group 488">
                      <path id="Path_724" data-name="Path 724" d="M3020.742,2337.54a7.169,7.169,0,1,1-.133,1.374A3.681,3.681,0,0,1,3020.742,2337.54Z" transform="translate(-3020.61 -2337.54)" fill="#e8505b"/>
                    </g>
                  </g>
                </g>
                <g id="Group_495" data-name="Group 495" transform="translate(4.107 3.463)">
                  <g id="Group_492" data-name="Group 492" transform="translate(1.57)">
                    <g id="Group_491" data-name="Group 491">
                      <path id="Path_725" data-name="Path 725" d="M3047.91,2394.492a7.019,7.019,0,1,1,1.354.132A3.566,3.566,0,0,1,3047.91,2394.492Z" transform="translate(-3047.91 -2394.36)" fill="#e8505b"/>
                    </g>
                  </g>
                  <g id="Group_494" data-name="Group 494" transform="translate(0 1.068)">
                    <g id="Group_493" data-name="Group 493">
                      <path id="Path_726" data-name="Path 726" d="M3022.282,2414.627a7.171,7.171,0,0,1,0-2.748,7.224,7.224,0,0,1,0,2.748Z" transform="translate(-3022.15 -2411.88)" fill="#e8505b"/>
                    </g>
                  </g>
                </g>
                <g id="Group_497" data-name="Group 497" transform="translate(5.455 4.539)">
                  <g id="Group_496" data-name="Group 496">
                    <path id="Path_727" data-name="Path 727" d="M3045.237,2413.176c-.056.047-.316-.173-.583-.492s-.436-.614-.379-.662.317.173.583.492S3045.293,2413.129,3045.237,2413.176Z" transform="translate(-3044.264 -2412.016)" fill="#e8505b"/>
                  </g>
                </g>
                <g id="Group_499" data-name="Group 499" transform="translate(5.293 1.514)">
                  <g id="Group_498" data-name="Group 498">
                    <path id="Path_728" data-name="Path 728" d="M3042.614,2362.385c.051.052-.13.319-.406.6s-.542.462-.594.411.13-.318.405-.6.542-.463.594-.411Z" transform="translate(-3041.605 -2362.376)" fill="#e8505b"/>
                  </g>
                </g>
                <g id="Group_501" data-name="Group 501" transform="translate(2.238 1.781)">
                  <g id="Group_500" data-name="Group 500">
                    <path id="Path_729" data-name="Path 729" d="M2992.445,2367.563c-.046.056-.3-.076-.561-.294s-.437-.441-.391-.5.3.076.561.294S2992.491,2367.506,2992.445,2367.563Z" transform="translate(-2991.485 -2366.758)" fill="#e8505b"/>
                  </g>
                </g>
                <g id="Group_503" data-name="Group 503" transform="translate(2.158 4.418)">
                  <g id="Group_502" data-name="Group 502">
                    <path id="Path_730" data-name="Path 730" d="M2991.084,2410.046c.055.049-.105.312-.356.587s-.5.458-.551.408.1-.312.355-.587S2991.029,2410,2991.084,2410.046Z" transform="translate(-2990.166 -2410.038)" fill="#e8505b"/>
                  </g>
                </g>
              </g>
            </g>
            <g id="Group_512" data-name="Group 512" transform="translate(122.682 30.941)">
              <g id="Group_507" data-name="Group 507">
                <g id="Group_506" data-name="Group 506">
                  <path id="Path_731" data-name="Path 731" d="M4352.106,1816.72a81.341,81.341,0,0,1-11.956,0,81.161,81.161,0,0,1,11.956,0Z" transform="translate(-4340.15 -1816.5)" fill="#1c1d4d"/>
                </g>
              </g>
              <g id="Group_509" data-name="Group 509" transform="translate(0 2.491)">
                <g id="Group_508" data-name="Group 508">
                  <path id="Path_732" data-name="Path 732" d="M4352.106,1857.6a81.251,81.251,0,0,1-11.956,0,81.251,81.251,0,0,1,11.956,0Z" transform="translate(-4340.15 -1857.38)" fill="#1c1d4d"/>
                </g>
              </g>
              <g id="Group_511" data-name="Group 511" transform="translate(0 4.982)">
                <g id="Group_510" data-name="Group 510">
                  <path id="Path_733" data-name="Path 733" d="M4352.106,1898.47a81.431,81.431,0,0,1-11.956,0,81.072,81.072,0,0,1,11.956,0Z" transform="translate(-4340.15 -1898.25)" fill="#1c1d4d"/>
                </g>
              </g>
            </g>
            <g id="Group_541" data-name="Group 541" transform="translate(43.872 183.881)">
              <g id="Group_526" data-name="Group 526">
                <g id="Group_513" data-name="Group 513" transform="translate(20.8 21.725)">
                  <path id="Path_734" data-name="Path 734" d="M3388.33,4717.575l27.875.217.274-35.185-27.874-.217Z" transform="translate(-3388.33 -4682.39)" fill="#d9edff"/>
                </g>
                <g id="Group_514" data-name="Group 514" transform="translate(33.15 22.942)">
                  <path id="Path_735" data-name="Path 735" d="M3595.87,4702.38l-.5,34.068-4.4-.035.943-34.063Z" transform="translate(-3590.97 -4702.35)" fill="#f9f9f9"/>
                </g>
                <g id="Group_515" data-name="Group 515" transform="translate(4.815 22.715)">
                  <path id="Path_736" data-name="Path 736" d="M3126.309,4698.63l15.993.124,27.874.218-27.9,3.672-.236,30.181-15.984-.125Z" transform="translate(-3126.05 -4698.63)" fill="#9ed1ff"/>
                </g>
                <g id="Group_516" data-name="Group 516" transform="translate(8.399 22.747)">
                  <path id="Path_737" data-name="Path 737" d="M3190.231,4699.186l-.636,34.067-4.746-.037.776-34.067Z" transform="translate(-3184.85 -4699.149)" fill="#f9f9f9"/>
                </g>
                <g id="Group_521" data-name="Group 521" transform="translate(13.166)">
                  <g id="Group_518" data-name="Group 518" transform="translate(0 1.407)">
                    <g id="Group_517" data-name="Group 517">
                      <path id="Path_738" data-name="Path 738" d="M3276.332,4360.023c.006.216-.459.437-1.317.646a20.693,20.693,0,0,1-3.695.494,21.546,21.546,0,0,1-2.626-.029c-.477-.038-.971-.087-1.481-.168a12.1,12.1,0,0,1-1.632-.347,4.7,4.7,0,0,1-1-.432,3.141,3.141,0,0,1-1.058-.994,2.931,2.931,0,0,1-.458-1.533,4.822,4.822,0,0,1,.133-1.185,20.459,20.459,0,0,1,1.07-3.529,9.464,9.464,0,0,1,1.02-1.8,8.434,8.434,0,0,1,.688-.812,5.079,5.079,0,0,1,.929-.753,3.858,3.858,0,0,1,1.262-.506,3.355,3.355,0,0,1,1.444.037,4.82,4.82,0,0,1,1.907,1.055,15.391,15.391,0,0,1,3.662,4.5,11,11,0,0,1,1.233,3.662c.107.911,0,1.429-.2,1.477-.451.107-1.105-1.687-2.882-3.945a18.044,18.044,0,0,0-3.578-3.427,2.113,2.113,0,0,0-.811-.419.3.3,0,0,0-.152.018.958.958,0,0,0-.243.128,2.144,2.144,0,0,0-.352.314,6.135,6.135,0,0,0-.394.492,7.151,7.151,0,0,0-.673,1.223,22.942,22.942,0,0,0-.958,2.99,2.506,2.506,0,0,0-.085.439l0,.032,0,0-.086.021c-.1.025-.125.05-.059.011a1.133,1.133,0,0,0,.1-.075.02.02,0,0,0,.006.013.347.347,0,0,0,.08.073,1.846,1.846,0,0,0,.4.208,11.977,11.977,0,0,0,1.242.376c.432.114.86.206,1.277.292.836.169,1.635.288,2.375.389,1.479.2,2.716.329,3.574.5s1.342.351,1.349.566Z" transform="translate(-3263.062 -4349.017)" fill="#fff"/>
                    </g>
                  </g>
                  <g id="Group_520" data-name="Group 520" transform="translate(12.505)">
                    <g id="Group_519" data-name="Group 519">
                      <path id="Path_739" data-name="Path 739" d="M3468.437,4338.593c-.077-.441,2.007-1.1,5.261-2.049a45.85,45.85,0,0,0,5.486-1.968,5.308,5.308,0,0,0,1.188-.663c.129-.1.187-.2.17-.189s-.034.126-.039.065a2.808,2.808,0,0,0-.2-.488q-.2-.413-.4-.829a13.821,13.821,0,0,0-.848-1.517,6.2,6.2,0,0,0-.993-1.186,5.031,5.031,0,0,0-.562-.447,2.5,2.5,0,0,0-.508-.274,1.278,1.278,0,0,0-.823-.078,2.826,2.826,0,0,0-.984.572,21.6,21.6,0,0,0-3.809,4.14c-1.869,2.658-2.362,4.734-2.827,4.667-.2-.026-.356-.6-.285-1.619a11.858,11.858,0,0,1,1.2-4.15,18.227,18.227,0,0,1,3.823-5.194,5.545,5.545,0,0,1,1.974-1.249,4.229,4.229,0,0,1,2.759.04,5.43,5.43,0,0,1,1.162.569,7.941,7.941,0,0,1,.945.718,8.866,8.866,0,0,1,1.521,1.774,15.114,15.114,0,0,1,1.04,1.886q.207.451.409.9a5.083,5.083,0,0,1,.412,1.278,2.9,2.9,0,0,1-.312,1.851,3.494,3.494,0,0,1-1.034,1.138,7.541,7.541,0,0,1-1.9.951,28.524,28.524,0,0,1-6.106,1.463c-3.5.428-5.65.3-5.721-.1Z" transform="translate(-3468.248 -4325.924)" fill="#fff"/>
                    </g>
                  </g>
                </g>
                <g id="Group_522" data-name="Group 522" transform="translate(0 11.03)">
                  <path id="Path_740" data-name="Path 740" d="M3047.04,4518.546l40.971.319.092-11.646-40.972-.32Z" transform="translate(-3047.04 -4506.899)" fill="#9ed1ff"/>
                </g>
                <g id="Group_523" data-name="Group 523" transform="translate(15.066 11.147)">
                  <path id="Path_741" data-name="Path 741" d="M3294.24,4520.474l37.035.29.091-11.646-37.035-.289Z" transform="translate(-3294.24 -4508.83)" fill="#d9edff"/>
                </g>
                <g id="Group_524" data-name="Group 524" transform="translate(36.249 11.314)">
                  <path id="Path_742" data-name="Path 742" d="M3646.39,4511.6l-.261,11.7-4.319-.09.3-11.644Z" transform="translate(-3641.81 -4511.569)" fill="#f9f9f9"/>
                </g>
                <g id="Group_525" data-name="Group 525" transform="translate(4.974 11.07)">
                  <path id="Path_743" data-name="Path 743" d="M3133.826,4507.656l-.417,11.594-4.749-.037.254-11.652Z" transform="translate(-3128.66 -4507.56)" fill="#f9f9f9"/>
                </g>
              </g>
              <g id="Group_540" data-name="Group 540" transform="translate(39.209 23.713)">
                <g id="Group_527" data-name="Group 527" transform="translate(11.787 12.619)">
                  <path id="Path_744" data-name="Path 744" d="M3883.77,4941.986l15.795.124.155-19.937-15.795-.123Z" transform="translate(-3883.77 -4922.049)" fill="#d9edff"/>
                </g>
                <g id="Group_528" data-name="Group 528" transform="translate(18.785 13.308)">
                  <path id="Path_745" data-name="Path 745" d="M4001.367,4933.378l-.281,19.3-2.5-.02.535-19.3Z" transform="translate(-3998.59 -4933.359)" fill="#f9f9f9"/>
                </g>
                <g id="Group_529" data-name="Group 529" transform="translate(2.729 13.18)">
                  <path id="Path_746" data-name="Path 746" d="M3735.286,4931.25l9.063.07,15.795.123-15.812,2.081-.133,17.1-9.059-.071Z" transform="translate(-3735.14 -4931.25)" fill="#9ed1ff"/>
                </g>
                <g id="Group_530" data-name="Group 530" transform="translate(4.759 13.198)">
                  <path id="Path_747" data-name="Path 747" d="M3771.509,4931.569l-.359,19.3-2.689-.021.439-19.3Z" transform="translate(-3768.46 -4931.55)" fill="#f9f9f9"/>
                </g>
                <g id="Group_535" data-name="Group 535" transform="translate(7.249)">
                  <g id="Group_532" data-name="Group 532" transform="translate(0 0.893)">
                    <g id="Group_531" data-name="Group 531">
                      <path id="Path_748" data-name="Path 748" d="M3817.039,4736.107c0,.291-1.036.65-2.847.8a10.283,10.283,0,0,1-3.312-.272,2.252,2.252,0,0,1-1.278-.888,1.87,1.87,0,0,1-.294-.978,2.928,2.928,0,0,1,.079-.723,11.6,11.6,0,0,1,.614-2.039,5.586,5.586,0,0,1,.6-1.058,3.6,3.6,0,0,1,.978-.94,2.2,2.2,0,0,1,1.7-.29,2.871,2.871,0,0,1,1.157.643,8.635,8.635,0,0,1,2.082,2.624c.854,1.727.729,2.951.453,3-.314.072-.739-.92-1.764-2.151a10.555,10.555,0,0,0-2.021-1.866.893.893,0,0,0-.382-.192l-.006,0,0-.045.007.054a.65.65,0,0,1-.065.047,1.823,1.823,0,0,0-.362.405,3.856,3.856,0,0,0-.356.652,13.183,13.183,0,0,0-.535,1.656l-.045.2c.033,0-.107,0-.141.012a.961.961,0,0,0-.123.023c-.056.015-.07.027-.033.006a.866.866,0,0,0,.155-.136l.045-.051v0a.067.067,0,0,0,.015.016.771.771,0,0,0,.182.1,15.329,15.329,0,0,0,2.714.635c1.668.247,2.779.439,2.783.757Z" transform="translate(-3809.307 -4729.658)" fill="#fff"/>
                    </g>
                  </g>
                  <g id="Group_534" data-name="Group 534" transform="translate(7.187)">
                    <g id="Group_533" data-name="Group 533">
                      <path id="Path_749" data-name="Path 749" d="M3927.448,4722.487c-.059-.336,1.115-.787,2.935-1.381a28.831,28.831,0,0,0,3.045-1.168,2.609,2.609,0,0,0,.6-.345c.051-.043.05-.072.008-.011a.465.465,0,0,0-.058.232c-.1-.216-.209-.437-.316-.659a7.6,7.6,0,0,0-.462-.821,3.285,3.285,0,0,0-.508-.611,1.843,1.843,0,0,0-.5-.353.471.471,0,0,0-.269-.048,1.2,1.2,0,0,0-.456.255,12.863,12.863,0,0,0-2.158,2.237c-1.085,1.436-1.446,2.579-1.8,2.532-.3-.01-.557-1.4.326-3.382a10.139,10.139,0,0,1,2.168-3.05,3.369,3.369,0,0,1,1.219-.778,2.709,2.709,0,0,1,1.761.02,3.41,3.41,0,0,1,.727.353,4.583,4.583,0,0,1,.573.435,5.334,5.334,0,0,1,.917,1.064,8.783,8.783,0,0,1,.608,1.106l.232.515a3.156,3.156,0,0,1,.256.8,1.952,1.952,0,0,1-.214,1.243,2.261,2.261,0,0,1-.674.743,4.478,4.478,0,0,1-1.152.567,15.306,15.306,0,0,1-3.523.778c-2.008.188-3.234.036-3.289-.279Z" transform="translate(-3927.23 -4715)" fill="#fff"/>
                    </g>
                  </g>
                </g>
                <g id="Group_536" data-name="Group 536" transform="translate(0 6.558)">
                  <path id="Path_750" data-name="Path 750" d="M3690.37,4829.208l23.217.182.052-6.6-23.217-.181Z" transform="translate(-3690.37 -4822.61)" fill="#9ed1ff"/>
                </g>
                <g id="Group_537" data-name="Group 537" transform="translate(8.537 6.625)">
                  <path id="Path_751" data-name="Path 751" d="M3830.45,4830.3l20.987.164.051-6.6-20.986-.164Z" transform="translate(-3830.45 -4823.7)" fill="#d9edff"/>
                </g>
                <g id="Group_538" data-name="Group 538" transform="translate(20.541 6.719)">
                  <path id="Path_752" data-name="Path 752" d="M4030.005,4825.27l-.148,6.63-2.447-.053.171-6.6Z" transform="translate(-4027.41 -4825.25)" fill="#f9f9f9"/>
                </g>
                <g id="Group_539" data-name="Group 539" transform="translate(2.819 6.581)">
                  <path id="Path_753" data-name="Path 753" d="M3739.547,4823.034l-.236,6.571-2.691-.022.145-6.6Z" transform="translate(-3736.62 -4822.98)" fill="#f9f9f9"/>
                </g>
              </g>
            </g>
          </g>
        </g>
      </g>
      <g id="Line_cutting_stroke_EX" data-name="Line cutting stroke EX" transform="matrix(0.966, 0.259, -0.259, 0.966, 293.76, 196.876)">
        <g id="Group_542" data-name="Group 542" transform="translate(0)">
          <path id="Path_754" data-name="Path 754" d="M0,3.788V4.63H8a.421.421,0,0,0,.421-.421V.421A.421.421,0,0,0,8,0H0V.842H7.576V3.788Z" transform="translate(14.73 13.889)" fill="#fff"/>
          <path id="Path_755" data-name="Path 755" d="M11.447,7.155H1.767V8h9.68A1.685,1.685,0,0,1,9.764,9.68H.5a1.7,1.7,0,0,1-.337-.034L0,10.471a2.529,2.529,0,0,0,.5.051H9.764A2.528,2.528,0,0,0,12.289,8V0h-.842Z" transform="translate(12.963 14.73)" fill="#fff"/>
          <path id="Path_756" data-name="Path 756" d="M12.31,8h-.105V6.734h.316a.948.948,0,0,0,.947-.947V1.473A1.475,1.475,0,0,0,11.995,0H4.209V.842h7.786a.632.632,0,0,1,.631.631V5.787a.105.105,0,0,1-.105.105H1.789a.105.105,0,0,1-.105-.105V1.473A.632.632,0,0,1,2.315.842H3.367V0H2.315A1.475,1.475,0,0,0,.842,1.473V5.787a.948.948,0,0,0,.947.947H2.1V8H2a2,2,0,0,0-2,2V10.1H.842V10A1.159,1.159,0,0,1,2,8.838H12.31A1.159,1.159,0,0,1,13.468,10v1.789H2.946v.842H13.468v1.263h.842V10A2,2,0,0,0,12.31,8ZM2.946,8V6.734h8.417V8Z" transform="translate(10.942)" fill="#fff"/>
          <path id="Path_757" data-name="Path 757" d="M0,0H.842V3.367H0Z" transform="translate(13.468 1.683)" fill="#fff"/>
          <path id="Path_758" data-name="Path 758" d="M0,0H.842V3.367H0Z" transform="translate(15.151 1.683)" fill="#fff"/>
          <path id="Path_759" data-name="Path 759" d="M0,0H.842V3.367H0Z" transform="translate(16.835 1.683)" fill="#fff"/>
          <path id="Path_760" data-name="Path 760" d="M0,0H.842V3.367H0Z" transform="translate(18.518 1.683)" fill="#fff"/>
          <path id="Path_761" data-name="Path 761" d="M0,0H.842V3.367H0Z" transform="translate(20.201 1.683)" fill="#fff"/>
          <path id="Path_762" data-name="Path 762" d="M0,0H.842V3.367H0Z" transform="translate(21.885 1.683)" fill="#fff"/>
          <path id="Path_763" data-name="Path 763" d="M0,0H2.525V.842H0Z" transform="translate(14.73 19.781)" fill="#fff"/>
          <path id="Path_764" data-name="Path 764" d="M0,0H5.05V.842H0Z" transform="translate(18.097 19.781)" fill="#fff"/>
          <path id="Path_765" data-name="Path 765" d="M.219,2.894l1.252.685.685,1.252a.421.421,0,0,0,.738,0l.685-1.252,1.252-.685a.421.421,0,0,0,0-.739L3.579,1.471,2.894.219a.421.421,0,0,0-.738,0L1.471,1.471.219,2.156a.421.421,0,0,0,0,.739ZM1.983,2.15a.421.421,0,0,0,.167-.167L2.525,1.3l.375.685a.421.421,0,0,0,.167.167l.685.375L3.067,2.9a.421.421,0,0,0-.167.167l-.375.685L2.15,3.067A.421.421,0,0,0,1.983,2.9L1.3,2.525Z" transform="translate(5.471 4.629)" fill="#fff"/>
          <path id="Path_766" data-name="Path 766" d="M8.335,4.1A4.108,4.108,0,0,0,4.232,0h-.21A4.115,4.115,0,0,0,0,3.283l.825.167A3.27,3.27,0,0,1,4.021.842h.21A3.265,3.265,0,0,1,7.493,4.1v2.21H4.968v.842H7.493V8h-2.1v.842h2.1v1.368a3.265,3.265,0,0,1-3.262,3.262h-.21A3.26,3.26,0,0,1,3,13.3l-.264.8a4.1,4.1,0,0,0,1.29.207h.21a4.108,4.108,0,0,0,4.1-4.1Z" transform="translate(5.553 10.942)" fill="#fff"/>
          <path id="Path_767" data-name="Path 767" d="M.219,2.263l.844.462.462.844a.421.421,0,0,0,.739,0l.462-.844.844-.462a.421.421,0,0,0,0-.739l-.844-.462L2.263.219a.421.421,0,0,0-.739,0l-.462.844-.844.462a.421.421,0,0,0,0,.739Zm1.356-.521a.421.421,0,0,0,.167-.167L1.894,1.3l.152.277a.421.421,0,0,0,.167.167l.277.152-.277.152a.421.421,0,0,0-.167.167l-.152.277-.152-.277a.421.421,0,0,0-.167-.167L1.3,1.894Z" transform="translate(0.952 2.415)" fill="#fff"/>
          <path id="Path_768" data-name="Path 768" d="M10.1,5.05A5.05,5.05,0,1,0,5.05,10.1,5.05,5.05,0,0,0,10.1,5.05Zm-.842,0A4.183,4.183,0,0,1,8.782,7L3.1,1.319A4.208,4.208,0,0,1,9.259,5.05ZM7.713,8.308,4.085,4.681l-.6.6L7,8.782A4.208,4.208,0,0,1,1.319,3.1l1.4,1.4.6-.6L1.793,2.388a4.246,4.246,0,0,1,.6-.6l5.92,5.92a4.246,4.246,0,0,1-.6.6Z" transform="translate(0 15.151)" fill="#fff"/>
        </g>
      </g>
    </g>
  </g>
</svg>
