<svg xmlns="http://www.w3.org/2000/svg" xmlns:xlink="http://www.w3.org/1999/xlink" width="642.276" height="571.869" viewBox="0 0 642.276 571.869">
  <defs>
    <linearGradient id="linear-gradient" x1="0.383" y1="0.997" x2="0.556" y2="0.053" gradientUnits="objectBoundingBox">
      <stop offset="0" stop-color="#d4000b"/>
      <stop offset="1" stop-color="#ff4e4e"/>
    </linearGradient>
    <linearGradient id="linear-gradient-2" x1="0.404" y1="0.991" x2="0.596" y2="0.009" gradientUnits="objectBoundingBox">
      <stop offset="0" stop-color="#ffc8d1"/>
      <stop offset="1" stop-color="#fff6f7"/>
    </linearGradient>
  </defs>
  <g id="wishlist_missing" transform="translate(-2046.871 -3579.88)">
    <circle id="Ellipse_165" data-name="Ellipse 165" cx="265.594" cy="265.594" r="265.594" transform="translate(2065.53 3579.88)" fill="#262863"/>
    <path id="Path_870" data-name="Path 870" d="M2050.4,4223.462l26.522-23.352,18.161,23.352,23.926-23.352,22.2,24.5,17.583-24.5" transform="translate(0 -529.798)" fill="none" stroke="#ffc400" stroke-linecap="round" stroke-linejoin="round" stroke-miterlimit="2.613" stroke-width="5" fill-rule="evenodd"/>
    <path id="Path_871" data-name="Path 871" d="M2050.4,4443.92l26.522-23.35,18.161,23.35,23.926-23.35,22.2,24.5,17.583-24.5" transform="translate(0 -718.114)" fill="none" stroke="#ffc400" stroke-linecap="round" stroke-linejoin="round" stroke-miterlimit="2.613" stroke-width="5" fill-rule="evenodd"/>
    <path id="Path_872" data-name="Path 872" d="M5663.931,5101.3l26.52-23.352,18.162,23.352,23.93-23.352,22.2,24.5,17.584-24.5" transform="translate(-3086.663 -1279.645)" fill="none" stroke="#ffc400" stroke-linecap="round" stroke-linejoin="round" stroke-miterlimit="2.613" stroke-width="5" fill-rule="evenodd"/>
    <path id="Path_873" data-name="Path 873" d="M5663.931,5321.753l26.52-23.354,18.162,23.354,23.93-23.354,22.2,24.5,17.584-24.5" transform="translate(-3086.663 -1467.952)" fill="none" stroke="#ffc400" stroke-linecap="round" stroke-linejoin="round" stroke-miterlimit="2.613" stroke-width="5" fill-rule="evenodd"/>
    <rect id="Rectangle_365" data-name="Rectangle 365" width="310.205" height="463.482" rx="6" transform="matrix(0.985, 0.174, -0.174, 0.985, 2226.456, 3641.442)" fill="#fff"/>
    <path id="Path_874" data-name="Path 874" d="M4201.62,4997.45c-13.979,20.018-6.7,49.238,16.278,65.293,22.914,16.006,52.858,12.807,66.84-7.207,13.941-19.967,6.664-49.186-16.257-65.193-22.972-16.064-52.918-12.855-66.861,7.109Z" transform="translate(-1831.494 -1196.071)" fill="#efefef" fill-rule="evenodd"/>
    <circle id="Ellipse_166" data-name="Ellipse 166" cx="35.612" cy="35.612" r="35.612" transform="matrix(0.969, 0.245, -0.245, 0.969, 2380.663, 3783.258)" fill="#fff"/>
    <path id="Path_875" data-name="Path 875" d="M4332.774,5155.42a20.947,20.947,0,1,1-15.146-25.4A20.743,20.743,0,0,1,4332.774,5155.42Z" transform="translate(-1914.353 -1323.564)" fill="#3e4347" fill-rule="evenodd"/>
    <ellipse id="Ellipse_167" data-name="Ellipse 167" cx="5.713" cy="3.884" rx="5.713" ry="3.884" transform="matrix(-0.512, -0.859, 0.859, -0.512, 2406.595, 3828.335)" fill="#fff"/>
    <path id="Path_876" data-name="Path 876" d="M3537.395,4844.93c2.78,24.258-17.527,46.5-45.372,49.7-27.771,3.182-52.589-13.877-55.369-38.135-2.776-24.193,17.531-46.434,45.3-49.615C3509.809,4803.67,3534.626,4820.736,3537.395,4844.93Z" transform="translate(-1183.915 -1047.764)" fill="#efefef" fill-rule="evenodd"/>
    <circle id="Ellipse_168" data-name="Ellipse 168" cx="35.612" cy="35.612" r="35.612" transform="matrix(0.969, 0.245, -0.245, 0.969, 2283.804, 3758.748)" fill="#fff"/>
    <path id="Path_877" data-name="Path 877" d="M3775.129,5014.31a20.945,20.945,0,1,1-15.141-25.4A20.74,20.74,0,0,1,3775.129,5014.31Z" transform="translate(-1438.016 -1203.028)" fill="#3e4347" fill-rule="evenodd"/>
    <ellipse id="Ellipse_169" data-name="Ellipse 169" cx="5.713" cy="3.884" rx="5.713" ry="3.884" transform="matrix(-0.512, -0.859, 0.859, -0.512, 2325.282, 3807.765)" fill="#fff"/>
    <path id="Path_878" data-name="Path 878" d="M4448.66,4720.044c-21.432,6.086-65.308,13.6-72.285-23.883a1.825,1.825,0,0,1,3.148-1.547c7.279,7.863,25.947,21.488,68.6,21.8A1.851,1.851,0,0,1,4448.66,4720.044Z" transform="translate(-1986.811 -951.686)" fill="#3e4347" fill-rule="evenodd"/>
    <path id="Path_879" data-name="Path 879" d="M3650.67,4534.515c20.725,8.283,63.638,20.332,74.343-16.287a1.833,1.833,0,0,0-2.983-1.865c-8.028,7.074-27.987,18.709-70.468,14.594a1.851,1.851,0,0,0-.892,3.557Z" transform="translate(-1365.95 -799.536)" fill="#3e4347" fill-rule="evenodd"/>
    <path id="Path_880" data-name="Path 880" d="M3959.775,5579.541c-.455-8.109-6.38-20.514-28.354-34.586-11.105-7.826-35.384-19.025-42.031-22.611,11.059.043,33.581-1.668,50.375,9.273,15.212,10.838,24.787,29.035,20.008,47.924Z" transform="translate(-1570.858 -1659.182)" fill="#3e4347" fill-rule="evenodd"/>
    <rect id="Rectangle_357" data-name="Rectangle 357" width="20.674" height="20.674" rx="10.337" transform="translate(2236.907 3921.073) rotate(11.049)" fill="#efefef"/>
    <rect id="Rectangle_358" data-name="Rectangle 358" width="155.434" height="20.674" rx="10.337" transform="matrix(0.981, 0.192, -0.192, 0.981, 2269.949, 3927.526)" fill="#efefef"/>
    <rect id="Rectangle_359" data-name="Rectangle 359" width="20.674" height="20.674" rx="10.337" transform="translate(2230.499 3953.893) rotate(11.049)" fill="#efefef"/>
    <rect id="Rectangle_360" data-name="Rectangle 360" width="155.434" height="20.674" rx="10.337" transform="matrix(0.981, 0.192, -0.192, 0.981, 2263.541, 3960.344)" fill="#efefef"/>
    <rect id="Rectangle_361" data-name="Rectangle 361" width="20.674" height="20.674" rx="10.337" transform="translate(2222.971 3986.712) rotate(11.049)" fill="#efefef"/>
    <rect id="Rectangle_362" data-name="Rectangle 362" width="155.434" height="20.674" rx="10.337" transform="matrix(0.981, 0.192, -0.192, 0.981, 2256.013, 3993.164)" fill="#efefef"/>
    <rect id="Rectangle_363" data-name="Rectangle 363" width="20.674" height="20.674" rx="10.337" transform="translate(2215.752 4018.99) rotate(11.049)" fill="#efefef"/>
    <rect id="Rectangle_364" data-name="Rectangle 364" width="155.434" height="20.674" rx="10.337" transform="matrix(0.981, 0.192, -0.192, 0.981, 2248.794, 4025.442)" fill="#efefef"/>
    <g id="_2554722837312" transform="translate(2435.666 3608.5)">
      <g id="Group_549" data-name="Group 549">
        <g id="Group_546" data-name="Group 546">
          <g id="Group_545" data-name="Group 545">
            <path id="Path_881" data-name="Path 881" d="M4821.191,3791.684a52.79,52.79,0,0,0-40.906,8.873,52.77,52.77,0,0,0-34.562-23.609c-23.807-4.649-46.77,12.137-51.873,38.293-5.738,29.383,10.609,75.7,59.375,112.832a4.816,4.816,0,0,0,4.164.814c59.152-16.056,91.725-52.825,97.461-82.208,5.109-26.153-9.852-50.346-33.658-54.993Z" transform="translate(-4692.753 -3776.175)" fill-rule="evenodd" fill="url(#linear-gradient)"/>
          </g>
        </g>
        <g id="Group_548" data-name="Group 548" transform="translate(49.314 44.238)">
          <g id="Group_547" data-name="Group 547">
            <path id="Path_882" data-name="Path 882" d="M5021.01,4130.265a33.644,33.644,0,1,0,26.57,39.469A33.683,33.683,0,0,0,5021.01,4130.265Zm2.064,39.579-4.717-.923-.922,4.719A4.807,4.807,0,0,1,5008,4171.8l.922-4.717-4.715-.921a4.806,4.806,0,1,1,1.84-9.434l4.717.921.92-4.717a4.806,4.806,0,1,1,9.434,1.841l-.92,4.717,4.717.921a4.806,4.806,0,1,1-1.84,9.435h0Z" transform="translate(-4980.915 -4129.638)" fill-rule="evenodd" fill="url(#linear-gradient-2)"/>
          </g>
        </g>
      </g>
    </g>
  </g>
</svg>
